<?xml version="1.0" encoding="UTF-8"?>
<svg width="60px" height="60px" viewBox="0 0 60 60" version="1.1" xmlns="http://www.w3.org/2000/svg" xmlns:xlink="http://www.w3.org/1999/xlink">
    <!-- Generator: Sketch 44.1 (41455) - http://www.bohemiancoding.com/sketch -->
    <title>nodeicon</title>
    <desc>Created with Sketch.</desc>
    <defs></defs>
    <g id="区块链" stroke="none" stroke-width="1" fill="none" fill-rule="evenodd">
        <g id="区块链-拓扑图展开" transform="translate(-806.000000, -679.000000)" fill="#FFFFFF">
            <g id="Group-10" transform="translate(504.000000, 679.000000)">
                <path d="M332,60 C315.431458,60 302,46.5685425 302,30 C302,13.4314575 315.431458,0 332,0 C348.568542,0 362,13.4314575 362,30 C362,46.5685425 348.568542,60 332,60 Z M315.5,25.5 L333.62834,25.5 L333.62834,30.1251831 C333.62834,31.5058949 334.747628,32.6251831 336.12834,32.6251831 C337.509052,32.6251831 338.62834,31.5058949 338.62834,30.1251831 L338.62834,23 C338.62834,21.6192881 337.509052,20.5 336.12834,20.5 L313,20.5 C311.619288,20.5 310.5,21.6192881 310.5,23 L310.5,37.6540463 C310.5,39.0347582 311.619288,40.1540463 313,40.1540463 L320.669336,40.1540463 C322.050048,40.1540463 323.169336,39.0347582 323.169336,37.6540463 C323.169336,36.2733345 322.050048,35.1540463 320.669336,35.1540463 L315.5,35.1540463 L315.5,25.5 Z M348.62834,35.1540463 L330.5,35.1540463 L330.5,30.5288633 C330.5,29.1481514 329.380712,28.0288633 328,28.0288633 C326.619288,28.0288633 325.5,29.1481514 325.5,30.5288633 L325.5,37.6540463 C325.5,39.0347582 326.619288,40.1540463 328,40.1540463 L351.12834,40.1540463 C352.509052,40.1540463 353.62834,39.0347582 353.62834,37.6540463 L353.62834,23 C353.62834,21.6192881 352.509052,20.5 351.12834,20.5 L343.459004,20.5 C342.078292,20.5 340.959004,21.6192881 340.959004,23 C340.959004,24.3807119 342.078292,25.5 343.459004,25.5 L348.62834,25.5 L348.62834,35.1540463 Z" id="nodeicon"></path>
            </g>
        </g>
    </g>
</svg>