<?xml version="1.0" encoding="UTF-8"?>
<svg width="30px" height="30px" viewBox="0 0 30 30" version="1.1" xmlns="http://www.w3.org/2000/svg" xmlns:xlink="http://www.w3.org/1999/xlink">
    <!-- Generator: Sketch 43.2 (39069) - http://www.bohemiancoding.com/sketch -->
    <title>dbic</title>
    <desc>Created with Sketch.</desc>
    <defs></defs>
    <g id="Symbols" stroke="none" stroke-width="1" fill="none" fill-rule="evenodd">
        <g id="connections" transform="translate(-128.000000, -94.000000)" fill="#FFFFFF">
            <g id="Group" transform="translate(0.000000, 6.000000)">
                <path d="M143,118 C134.715729,118 128,111.284271 128,103 C128,94.7157288 134.715729,88 143,88 C151.284271,88 158,94.7157288 158,103 C158,111.284271 151.284271,118 143,118 Z M133,96.990778 L133,101.009222 C133,101.549025 133.444045,102 133.991803,102 L152.008197,102 C152.544694,102 153,101.556414 153,101.009222 L153,96.990778 C153,96.4509752 152.555955,96 152.008197,96 L133.991803,96 C133.455306,96 133,96.4435864 133,96.990778 Z M133,105.990778 L133,110.009222 C133,110.549025 133.444045,111 133.991803,111 L152.008197,111 C152.544694,111 153,110.556414 153,110.009222 L153,105.990778 C153,105.450975 152.555955,105 152.008197,105 L133.991803,105 C133.455306,105 133,105.443586 133,105.990778 Z M137,101 C138.104569,101 139,100.104569 139,99 C139,97.8954305 138.104569,97 137,97 C135.895431,97 135,97.8954305 135,99 C135,100.104569 135.895431,101 137,101 Z M144,97 L145,97 L145,101 L144,101 L144,97 Z M146,97 L147,97 L147,101 L146,101 L146,97 Z M148,97 L149,97 L149,101 L148,101 L148,97 Z M150,97 L151,97 L151,101 L150,101 L150,97 Z M137,110 C138.104569,110 139,109.104569 139,108 C139,106.895431 138.104569,106 137,106 C135.895431,106 135,106.895431 135,108 C135,109.104569 135.895431,110 137,110 Z M144,106 L145,106 L145,110 L144,110 L144,106 Z M146,106 L147,106 L147,110 L146,110 L146,106 Z M148,106 L149,106 L149,110 L148,110 L148,106 Z M150,106 L151,106 L151,110 L150,110 L150,106 Z" id="dbic"></path>
            </g>
        </g>
    </g>
</svg>