<?xml version="1.0" encoding="UTF-8"?>
<svg width="30px" height="30px" viewBox="0 0 30 30" version="1.1" xmlns="http://www.w3.org/2000/svg" xmlns:xlink="http://www.w3.org/1999/xlink">
    <!-- Generator: Sketch 43.2 (39069) - http://www.bohemiancoding.com/sketch -->
    <title>dbic02</title>
    <desc>Created with Sketch.</desc>
    <defs></defs>
    <g id="Symbols" stroke="none" stroke-width="1" fill="none" fill-rule="evenodd">
        <g id="connections" transform="translate(-223.000000, -95.000000)" fill="#444851">
            <g id="Group" transform="translate(0.000000, 6.000000)">
                <path d="M239.926863,100.16844 C240.46553,100.683576 241.195813,101 242,101 C243.656854,101 245,99.6568542 245,98 C245,96.3431458 243.656854,95 242,95 C240.343146,95 239,96.3431458 239,98 C239,98.1521609 239.011328,98.3016759 239.033187,98.4477477 L233.183873,101.943121 C232.636795,101.362482 231.860729,101 231,101 C229.343146,101 228,102.343146 228,104 C228,105.656854 229.343146,107 231,107 C231.506774,107 231.984199,106.874344 232.402819,106.652489 L238.651753,110.395122 C238.543001,110.70563 238.483871,111.039458 238.483871,111.387097 C238.483871,113.043951 239.827017,114.387097 241.483871,114.387097 C243.140725,114.387097 244.483871,113.043951 244.483871,111.387097 C244.483871,109.730243 243.140725,108.387097 241.483871,108.387097 C240.886001,108.387097 240.32898,108.561988 239.861175,108.863401 L233.74916,105.202773 C233.910483,104.834565 234,104.427736 234,104 C234,103.904892 233.995574,103.810818 233.986917,103.717972 L239.926863,100.16844 Z M238,119 C229.715729,119 223,112.284271 223,104 C223,95.7157288 229.715729,89 238,89 C246.284271,89 253,95.7157288 253,104 C253,112.284271 246.284271,119 238,119 Z" id="dbic02"></path>
            </g>
        </g>
    </g>
</svg>