<?xml version="1.0" encoding="UTF-8"?>
<svg width="80px" height="80px" viewBox="0 0 80 80" version="1.1" xmlns="http://www.w3.org/2000/svg" xmlns:xlink="http://www.w3.org/1999/xlink">
    <!-- Generator: Sketch 43.2 (39069) - http://www.bohemiancoding.com/sketch -->
    <title>files</title>
    <desc>Created with Sketch.</desc>
    <defs></defs>
    <g id="system_defense" stroke="none" stroke-width="1" fill="none" fill-rule="evenodd">
        <g id="系统检测_扫描前-copy-5" transform="translate(-919.000000, -688.000000)" fill="#EFA223">
            <g id="icons" transform="translate(446.000000, 513.000000)">
                <g id="Group-3" transform="translate(472.000000, 0.000000)">
                    <g id="files" transform="translate(1.000000, 175.000000)">
                        <path d="M40.3266253,0 C40.603246,0.000833333333 40.8798667,0.00375 41.1564874,0.01 C41.7056002,0.0225 42.2547129,0.04625 42.8038257,0.08125 C44.3025319,0.177083333 45.7971095,0.35875 47.2710438,0.625416667 C48.8234227,0.905416667 50.359287,1.27916667 51.8662506,1.745 C53.3938575,2.21666667 54.8884351,2.78166667 56.3458547,3.43625 C58.352387,4.33791667 60.2846033,5.40916667 62.1177317,6.63416667 C63.988018,7.88458333 65.7509589,9.295 67.3859112,10.8445833 C69.0332495,12.40625 70.5484704,14.1091667 71.9109307,15.9295833 C73.2651336,17.7420833 74.4707044,19.6708333 75.5028713,21.68875 C76.3698914,23.38375 77.1171802,25.1416667 77.7323517,26.9445833 C78.3392658,28.7158333 78.8223199,30.5308333 79.1732566,32.3708333 C79.6563107,34.8829167 79.8957734,37.44125 79.8957734,40 C79.8957734,41.8277083 79.7719133,43.655375 79.528322,45.46625 C79.2558299,47.4589583 78.8388345,49.430875 78.2732071,51.3594583 C77.6828077,53.3704583 76.9355189,55.3339167 76.0354694,57.2258333 C75.0198172,59.368 73.8142463,61.4179583 72.4394001,63.3447083 C71.0480392,65.2933333 69.4832743,67.115625 67.774006,68.78325 C65.986293,70.5215417 64.0416907,72.0915 61.9690996,73.4651667 C59.9295379,74.8157917 57.7661162,75.9762917 55.5159925,76.9253333 C53.0387921,77.969875 50.4542463,78.7574167 47.8201565,79.2719583 C45.3512135,79.7538333 42.836855,79.9959167 40.3266253,79.9999583 C37.8081382,80.0039583 35.2937797,79.7697917 32.820708,79.2954583 C30.1824895,78.7890833 27.5979437,78.009375 25.1166147,76.9721667 C22.8623623,76.029875 20.6989406,74.8757917 18.6552502,73.5310833 C16.5744019,72.1636667 14.6256709,70.5995 12.8338292,68.8664583 C11.1163036,67.2040417 9.54740999,65.3865417 8.15192042,63.4421667 C6.76881685,61.5199167 5.55911731,59.4739167 4.5352078,57.3352083 C3.63515831,55.4465833 2.87961218,53.4860417 2.28508408,51.4774583 C1.71119931,49.5515417 1.28594657,47.5818333 1.00932586,45.590875 C0.753348483,43.7392917 0.625359794,41.869625 0.625359794,40 C0.625359794,37.4829167 0.856565167,34.96625 1.32310458,32.4933333 C1.66991264,30.65125 2.14883805,28.8345833 2.74749482,27.0604167 C3.3585376,25.255 4.10169772,23.4945833 4.9645892,21.79625 C5.99262738,19.775 7.18994092,17.8425 8.54001515,16.0254167 C9.89421805,14.20125 11.4053103,12.4933333 13.0485199,10.9266667 C14.6793435,9.3725 16.4381558,7.95708333 18.3043135,6.70083333 C20.1333131,5.47083333 22.0614008,4.39375 24.0638045,3.48583333 C25.5212241,2.82708333 27.0158016,2.2575 28.5392799,1.78125 C30.0421148,1.31125 31.5779791,0.932083333 33.1262294,0.6475 C34.6042923,0.37625 36.0947412,0.19 37.5893188,0.0895833333 C38.1384316,0.0525 38.6875443,0.0270833333 39.2366571,0.0129166667 C39.5132778,0.00583333333 39.7898985,0.00208333333 40.0665192,0.000416666667 C40.1532212,0 40.2399232,0 40.3266253,0 Z M40.1986366,2 C39.4719911,2.00166667 38.7453457,2.02333333 38.0228289,2.06625 C36.5406373,2.15416667 35.0584457,2.33 33.5968974,2.59416667 C32.2179225,2.84291667 30.8554623,3.17 29.5136454,3.57291667 C27.9653951,4.03708333 26.4543029,4.60208333 24.9803686,5.26333333 C23.2298137,6.05041667 21.53706,6.97291667 19.9268798,8.02 C18.0689794,9.225 16.3184245,10.595 14.6999869,12.1075 C13.0939353,13.6058333 11.620001,15.24375 10.2946988,16.9983333 C8.93223855,18.8054167 7.72666768,20.7358333 6.70275817,22.7595833 C6.1288734,23.89125 5.61278998,25.05125 5.15863657,26.235 C4.9150452,26.8670833 4.68796849,27.5058333 4.47740645,28.15 C4.01086704,29.5816667 3.63102964,31.04125 3.33789426,32.51875 C2.89199818,34.7591667 2.65253547,37.0404167 2.6112488,39.324875 C2.59060546,40.706125 2.6360208,42.0889583 2.75988083,43.4647917 C2.8135535,44.02325 2.87548351,44.5805417 2.94979953,45.13625 C3.13558956,46.5258333 3.3956956,47.9050417 3.73424633,49.2650833 C3.9530657,50.1351667 4.20078574,50.997625 4.47740645,51.8497917 C4.66732515,52.4389583 4.87375852,53.0234583 5.09670656,53.602375 C5.44351462,54.519875 5.82748068,55.4235417 6.24860476,56.3108333 C7.23122759,58.399 8.40789779,60.3955833 9.75384336,62.2681667 C11.0502449,64.0697083 12.4994072,65.7568333 14.0848154,67.3043333 C15.1417543,68.3357917 16.2564945,69.3055833 17.4249073,70.2062917 C18.1432955,70.7618333 18.8823269,71.2912083 19.6420017,71.793375 C21.561832,73.066125 23.5972651,74.1602083 25.7152714,75.0577083 C28.1222845,76.0762083 30.6325143,76.8390833 33.192288,77.3306667 C34.2987709,77.542625 35.4093824,77.7043333 36.5282513,77.8155833 C37.7296935,77.9348333 38.9352644,77.9959167 40.1408352,77.9997917 C42.6097783,78.0078333 45.0787214,77.7741667 47.5022492,77.2970417 C49.9299056,76.819375 52.308018,76.0978333 54.591171,75.1465 C56.490358,74.35675 58.3234863,73.4091667 60.065784,72.3169167 C60.8708741,71.8140417 61.6553209,71.281 62.4191244,70.719 C63.7733273,69.7215 65.0614715,68.6326667 66.2752997,67.462625 C67.922638,65.8717917 69.4296016,64.1314167 70.7672898,62.2681667 C72.080206,60.4421667 73.2279756,58.4983333 74.1982124,56.466625 C74.9744019,54.8485 75.63086,53.1747917 76.1675867,51.4620417 C76.7910155,49.475125 77.2492976,47.4362083 77.5383043,45.3728333 C77.802539,43.5125417 77.926399,41.6330833 77.914013,39.7543333 C77.9057557,38.6797917 77.8562117,37.6054167 77.7612523,36.535 C77.641521,35.2458333 77.4639883,33.9629167 77.2162682,32.6925 C76.8818462,30.9458333 76.4194354,29.22375 75.841422,27.5429167 C75.2757946,25.9041667 74.6028218,24.3045833 73.818375,22.7595833 C72.6995061,20.5495833 71.3659466,18.4504167 69.846597,16.5020833 C69.2272969,15.7108333 68.5790961,14.94375 67.897866,14.2041667 C67.2703085,13.5204167 66.6179791,12.86 65.9450063,12.2241667 C64.2935394,10.665 62.4975691,9.25541667 60.5942534,8.02 C59.0294885,7.00416667 57.3904075,6.10541667 55.6976539,5.33416667 C54.3847377,4.73833333 53.0429208,4.21875 51.6722032,3.77916667 C50.1734969,3.29791667 48.64589,2.9125 47.0976398,2.62583333 C45.7351795,2.37333333 44.3603333,2.19708333 42.9772297,2.0975 C42.4157309,2.05708333 41.8542322,2.02916667 41.2927334,2.01416667 C41.0284987,2.00666667 40.7683927,2.0025 40.504158,2.00083333 C40.4009413,2 40.3018533,2 40.1986366,2 Z" id="Fill-9"></path>
                        <path d="M52.0148826,45.6150417 C52.0272686,45.616 52.0396546,45.6167083 52.0520406,45.617875 C52.0768126,45.6202917 52.1015846,45.623625 52.1263566,45.627875 C52.2006726,45.6407083 52.2749886,45.6620417 52.3410473,45.691375 C52.469036,45.745125 52.5846387,45.8257083 52.679598,45.9266667 C52.7828147,46.0368333 52.8612594,46.1705833 52.9066747,46.3152083 C52.9273181,46.3875 52.9397041,46.4622917 52.9479614,46.5377917 L52.9479614,46.6134167 L52.9479614,50.260375 L52.9479614,50.2982083 C52.9479614,50.3360417 52.9438328,50.3737917 52.9397041,50.4112083 C52.9231894,50.511 52.8942887,50.6084167 52.8488734,50.699125 C52.7952007,50.8125417 52.716756,50.9152083 52.6259254,51.000125 C52.5350947,51.0850833 52.4236207,51.152 52.308018,51.1964167 C52.2254446,51.2275 52.1387426,51.2475417 52.0520406,51.2559167 C51.9034086,51.2702083 51.7506479,51.24975 51.6102732,51.1964167 C51.4822845,51.1475417 51.3625531,51.0714167 51.2634651,50.974125 C51.1932778,50.9034167 51.1313478,50.8217917 51.0859324,50.7328333 C51.0322598,50.6327083 50.9951018,50.5235 50.9785871,50.4112083 C50.9744584,50.3737917 50.9703297,50.3360417 50.9703297,50.2982083 C50.9703297,50.285625 50.9703297,50.273 50.9662011,50.260375 L50.9662011,46.6134167 C50.9703297,46.6007917 50.9703297,46.5881667 50.9703297,46.5755833 C50.9703297,46.550375 50.9703297,46.5251667 50.9744584,46.500125 C50.9827158,46.424875 50.9992304,46.3506667 51.0240024,46.2793333 C51.0735464,46.1364583 51.1561198,46.0057917 51.2634651,45.8996667 C51.3708105,45.7935 51.5029278,45.7126667 51.6474312,45.66475 C51.7176185,45.6407917 51.7919346,45.6250417 51.8662506,45.617875 C51.8910226,45.6155 51.9157946,45.6140833 51.9405666,45.6135833 C51.9529526,45.613375 51.9653386,45.6135833 51.9777246,45.6135833 C51.9901106,45.6140833 52.0024966,45.6145417 52.0148826,45.6150417 Z" id="Fill-10"></path>
                        <path d="M47.3371025,45.6150417 C47.3701318,45.6175833 47.3783891,45.61775 47.4114185,45.6221667 C47.4857345,45.6321667 47.5600505,45.65075 47.6302378,45.677375 C47.7582265,45.72625 47.8738292,45.802375 47.9729172,45.8996667 C48.0802626,46.0057917 48.1628359,46.1364583 48.2123799,46.2793333 C48.2371519,46.3506667 48.2536666,46.424875 48.2660526,46.500125 C48.2660526,46.5251667 48.2701813,46.550375 48.2701813,46.5755833 L48.2701813,46.6134167 L48.2701813,50.260375 L48.2701813,50.2982083 C48.2701813,50.3360417 48.2660526,50.3737917 48.2577953,50.4112083 C48.2454093,50.511 48.2123799,50.6084167 48.1710933,50.699125 C48.1132919,50.8125417 48.0389759,50.9152083 47.9481452,51.000125 C47.8531859,51.0850833 47.7458405,51.152 47.6302378,51.1964167 C47.5352785,51.2319583 47.4361905,51.2530417 47.3371025,51.25875 C47.2504004,51.2637917 47.1595698,51.2570417 47.0728677,51.2387917 C46.9407504,51.2100833 46.8127617,51.1528333 46.7012877,51.071625 C46.5774277,50.983 46.4783396,50.866375 46.4081523,50.7328333 C46.3544796,50.6327083 46.3173216,50.5235 46.3008069,50.4112083 C46.2925496,50.3737917 46.2925496,50.3360417 46.2884209,50.2982083 L46.2884209,50.260375 L46.2884209,46.6134167 L46.2884209,46.5755833 C46.2884209,46.550375 46.2925496,46.5251667 46.2966783,46.500125 C46.3049356,46.424875 46.3214503,46.3506667 46.3462223,46.2793333 C46.3957663,46.1364583 46.4783396,46.0057917 46.585685,45.8996667 C46.6930303,45.7935 46.8251477,45.7126667 46.9655224,45.66475 C47.0357097,45.6407917 47.1100258,45.6250417 47.1843418,45.617875 C47.2091138,45.6155 47.2338858,45.6140833 47.2627864,45.6135833 C47.2751724,45.613375 47.2875585,45.6135833 47.2999445,45.6135833 C47.3123305,45.6140833 47.3247165,45.6145417 47.3371025,45.6150417 Z" id="Fill-11"></path>
                        <path d="M37.9774135,45.5765833 C38.0104429,45.579125 38.0187002,45.5792917 38.0517295,45.5837083 C38.1260455,45.5937083 38.2003616,45.6122917 38.2705489,45.6389167 C38.3985376,45.6877917 38.5182689,45.7639167 38.6132283,45.8612083 C38.7205737,45.9673333 38.803147,46.098 38.8568197,46.2408333 C38.8815917,46.3122083 38.8981063,46.3864167 38.9063637,46.4616667 C38.9063637,46.4867083 38.9104923,46.5119167 38.9104923,46.537125 L38.9104923,46.5749583 L38.9104923,50.2219167 L38.9104923,50.25975 C38.9104923,50.2975833 38.9063637,50.3353333 38.902235,50.37275 C38.8815917,50.4850417 38.8485623,50.59425 38.7948897,50.6943333 C38.7453457,50.7833333 38.6875443,50.8649583 38.6132283,50.9356667 C38.5512983,50.9975417 38.4811109,51.051 38.4067949,51.0941667 C38.2870636,51.1620833 38.1508176,51.2043333 38.0145715,51.2174583 C37.8659395,51.23175 37.7131788,51.2112917 37.5728041,51.1579583 C37.4530728,51.1135417 37.3457274,51.046625 37.2548967,50.9616667 C37.1599374,50.87675 37.0856214,50.7740833 37.0319487,50.6606667 C36.9865334,50.5699583 36.9576327,50.4725417 36.941118,50.37275 C36.9369893,50.3353333 36.9328607,50.2975833 36.928732,50.25975 L36.928732,50.2219167 L36.928732,46.5749583 L36.928732,46.537125 C36.9328607,46.5119167 36.9328607,46.4867083 36.9369893,46.4616667 C36.9452467,46.3864167 36.9617613,46.3122083 36.9865334,46.2408333 C37.0360774,46.098 37.1186507,45.9673333 37.2259961,45.8612083 C37.3333414,45.7550417 37.4654588,45.6742083 37.6058335,45.62625 C37.6801495,45.6023333 37.7544655,45.5865833 37.8287815,45.5794167 C37.8535535,45.5770417 37.8783255,45.575625 37.9030975,45.575125 C37.9154835,45.5749167 37.9278695,45.575125 37.9402555,45.575125 C37.9526415,45.575625 37.9650275,45.5760833 37.9774135,45.5765833 Z" id="Fill-12"></path>
                        <path d="M42.6551937,45.5765833 C42.6675797,45.5775417 42.6799657,45.57825 42.6923517,45.5794167 C42.7171237,45.5818333 42.7418957,45.5851667 42.7666677,45.5894167 C42.8409837,45.60225 42.9152997,45.6235833 42.985487,45.6529167 C43.1093471,45.7066667 43.2249498,45.78725 43.3199091,45.8882083 C43.4231258,45.998375 43.5015705,46.1320833 43.5469858,46.27675 C43.5676291,46.3490417 43.5841438,46.4238333 43.5882725,46.4993333 C43.5924012,46.532875 43.5924012,46.5413333 43.5924012,46.5749583 L43.5924012,50.2219167 L43.5924012,50.25975 C43.5882725,50.2975833 43.5841438,50.3353333 43.5800151,50.37275 C43.5635005,50.4725417 43.5345998,50.5699583 43.4891845,50.6606667 C43.4355118,50.7740833 43.3611958,50.87675 43.2662364,50.9616667 C43.1754057,51.046625 43.0680604,51.1135417 42.948329,51.1579583 C42.8533697,51.1935 42.7584103,51.2145833 42.6551937,51.2202917 C42.5684916,51.2253333 42.4817896,51.2185833 42.3950876,51.2003333 C42.2505843,51.169 42.1102096,51.1036667 41.9904782,51.0104583 C41.8831329,50.9250417 41.7923022,50.81675 41.7262435,50.6943333 C41.6725708,50.59425 41.6395415,50.4850417 41.6188981,50.37275 C41.6147695,50.3353333 41.6106408,50.2975833 41.6106408,50.25975 L41.6106408,50.2219167 L41.6106408,46.5749583 L41.6106408,46.537125 C41.6106408,46.5119167 41.6147695,46.4867083 41.6147695,46.4616667 C41.6230268,46.3864167 41.6395415,46.3122083 41.6643135,46.2408333 C41.7179862,46.098 41.8005595,45.9673333 41.9079049,45.8612083 C42.0152502,45.7550417 42.1432389,45.6742083 42.2877423,45.62625 C42.3579296,45.6023333 42.4322456,45.5865833 42.5065616,45.5794167 C42.5313336,45.5770417 42.5561056,45.575625 42.5808776,45.575125 C42.5932636,45.5749167 42.6056496,45.575125 42.6180357,45.575125 C42.6304217,45.575625 42.6428077,45.5760833 42.6551937,45.5765833 Z" id="Fill-13"></path>
                        <path d="M33.2996334,45.5765833 C33.3326627,45.579125 33.3409201,45.5792917 33.3739494,45.5837083 C33.4482654,45.5937083 33.5184528,45.6122917 33.5886401,45.6389167 C33.7290148,45.69225 33.8570035,45.7780417 33.9602202,45.8882083 C34.0551795,45.9891667 34.1294955,46.1099583 34.1749109,46.2408333 C34.1996829,46.3122083 34.2161975,46.3864167 34.2244549,46.4616667 C34.2285835,46.4867083 34.2327122,46.5119167 34.2327122,46.537125 L34.2327122,46.5749583 L34.2327122,50.2219167 L34.2327122,50.25975 C34.2285835,50.2975833 34.2285835,50.3353333 34.2203262,50.37275 C34.2079402,50.4725417 34.1749109,50.5699583 34.1336242,50.6606667 C34.0758229,50.7740833 34.0015068,50.87675 33.9065475,50.9616667 C33.8157168,51.046625 33.7083715,51.1135417 33.5886401,51.1579583 C33.4606514,51.2068333 33.3244054,51.2281667 33.1840307,51.2202917 C33.0353987,51.2117083 32.8867667,51.1682917 32.758778,51.0941667 C32.6803333,51.051 32.6101459,50.9975417 32.5482159,50.9356667 C32.4780286,50.8649583 32.4160986,50.7833333 32.3665546,50.6943333 C32.3170106,50.59425 32.2798525,50.4850417 32.2633379,50.37275 C32.2550805,50.3353333 32.2509519,50.2975833 32.2509519,50.25975 L32.2509519,50.2219167 L32.2509519,46.5749583 L32.2509519,46.537125 C32.2509519,46.5119167 32.2550805,46.4867083 32.2550805,46.4616667 C32.2674665,46.3864167 32.2839812,46.3122083 32.3087532,46.2408333 C32.3582972,46.098 32.4408706,45.9673333 32.5482159,45.8612083 C32.6555613,45.7550417 32.7876786,45.6742083 32.9280533,45.62625 C32.9982407,45.6023333 33.0725567,45.5865833 33.1468727,45.5794167 C33.1716447,45.5770417 33.1964167,45.575625 33.2211887,45.575125 C33.2335747,45.5749167 33.2459607,45.575125 33.2583467,45.575125 C33.2707327,45.575625 33.2872474,45.5760833 33.2996334,45.5765833 Z" id="Fill-14"></path>
                        <path d="M28.6177246,45.5765833 C28.6507539,45.579125 28.6590113,45.5792917 28.6920406,45.5837083 C28.7663566,45.5937083 28.8406726,45.6122917 28.91086,45.6389167 C29.0388487,45.6877917 29.15858,45.7639167 29.257668,45.8612083 C29.3650134,45.9673333 29.4475867,46.098 29.4971307,46.2408333 C29.5219027,46.3122083 29.5384174,46.3864167 29.5466747,46.4616667 C29.5508034,46.4867083 29.5508034,46.5119167 29.5508034,46.537125 C29.5508034,46.5497083 29.5508034,46.5623333 29.5549321,46.5749583 L29.5549321,50.2219167 C29.5508034,50.2345417 29.5508034,50.2471667 29.5508034,50.25975 C29.5508034,50.2975833 29.5466747,50.3353333 29.5425461,50.37275 C29.5260314,50.4725417 29.4971307,50.5699583 29.4517154,50.6606667 C29.3980427,50.7740833 29.319598,50.87675 29.2287674,50.9616667 C29.1379367,51.046625 29.0264627,51.1135417 28.91086,51.1579583 C28.8159006,51.1935 28.7168126,51.2145833 28.6177246,51.2202917 C28.5310226,51.2253333 28.4443206,51.2185833 28.3576185,51.2003333 C28.2213725,51.171625 28.0933838,51.114375 27.9819098,51.0331667 C27.8621785,50.9445417 27.7589618,50.8279167 27.6887744,50.6943333 C27.6351018,50.59425 27.5979437,50.4850417 27.5814291,50.37275 C27.5773004,50.3353333 27.5731717,50.2975833 27.5731717,50.25975 L27.5731717,50.2219167 L27.5731717,46.5749583 L27.5731717,46.537125 C27.5731717,46.5119167 27.5731717,46.4867083 27.5773004,46.4616667 C27.5855577,46.3864167 27.6020724,46.3122083 27.6268444,46.2408333 C27.6763884,46.098 27.7589618,45.9673333 27.8663071,45.8612083 C27.9736525,45.7550417 28.1057698,45.6742083 28.2502732,45.62625 C28.3204605,45.6023333 28.3947765,45.5865833 28.4690926,45.5794167 C28.4938646,45.5770417 28.5186366,45.575625 28.5434086,45.575125 C28.5557946,45.5749167 28.5681806,45.575125 28.5805666,45.575125 C28.5929526,45.575625 28.6053386,45.5760833 28.6177246,45.5765833 Z" id="Fill-15"></path>
                        <path d="M62.3943524,48.9388333 C62.3943524,49.0294583 62.3902237,49.12 62.3778377,49.2100833 C62.361323,49.3803333 62.3200364,49.548375 62.2663637,49.7103333 C62.1548897,50.0390417 61.9690996,50.341 61.7255083,50.5898333 C61.4777882,50.8487083 61.1681382,51.0485833 60.8295874,51.1689167 C60.6685694,51.2258333 60.5034227,51.2649583 60.3341474,51.2855 C60.2474453,51.296375 60.1566147,51.30175 60.065784,51.302625 C46.858177,51.344875 33.6464414,51.4292917 20.4388345,51.3025 C20.3480038,51.3010417 20.2613018,51.2950833 20.1704711,51.2836667 C20.0011958,51.2620833 19.8360491,51.2219167 19.6791597,51.1640833 C19.3364803,51.0400833 19.0268303,50.8346667 18.7749816,50.5694167 C18.5437762,50.3245833 18.3662435,50.0300833 18.2547695,49.7103333 C18.2010968,49.548375 18.1598101,49.3803333 18.1432955,49.2100833 C18.1309095,49.12 18.1267808,49.0294583 18.1267808,48.9388333 L18.1267808,41.84725 L62.3943524,41.84725 L62.3943524,48.9388333 Z M20.1085411,43.84725 L20.1085411,48.935625 L20.1085411,48.9528333 C20.1085411,48.9626667 20.1085411,48.9724583 20.1126698,48.98225 C20.1167985,49.0170833 20.1250558,49.05125 20.1374418,49.083375 C20.1787285,49.1716667 20.2530445,49.2440417 20.3397465,49.2789583 C20.3810332,49.2947917 20.4223199,49.30225 20.4677352,49.3026667 C33.6588275,49.3452083 46.8540484,49.3026667 60.0492693,49.3026667 C60.053398,49.3026667 60.0616553,49.3025833 60.065784,49.302375 C60.1070706,49.30075 60.1442287,49.29325 60.1813867,49.2789583 C60.276346,49.2420833 60.3547907,49.16325 60.38782,49.068 C60.4043347,49.0282917 60.412592,48.9862083 60.412592,48.9437083 L60.412592,48.935625 L60.412592,43.84725 L20.1085411,43.84725 Z" id="Fill-16"></path>
                        <path d="M62.435639,26.6975 C62.4769257,26.6983333 62.5182124,26.6995833 62.5594991,26.7016667 C62.6420724,26.7058333 62.7287744,26.7133333 62.8072191,26.72375 C63.0673252,26.7566667 63.3191739,26.8204167 63.5627652,26.9133333 C64.0169186,27.08875 64.4339141,27.3683333 64.7724648,27.725 C64.9417401,27.9075 65.0945008,28.1095833 65.2224895,28.32625 C65.3380922,28.5229167 65.4330516,28.7320833 65.5073676,28.94875 C65.5816836,29.17125 65.6312276,29.4016667 65.6559996,29.635 C65.6642569,29.7041667 65.6725143,29.77375 65.6725143,29.8429167 C65.6766429,29.8966667 65.6766429,29.95 65.6807716,30.00375 L65.6807716,40.540875 C65.6766429,40.5944583 65.6766429,40.6479583 65.6725143,40.7014583 C65.6725143,40.7709583 65.6642569,40.840375 65.6559996,40.9095 C65.6312276,41.1569167 65.5734262,41.4011667 65.4908529,41.6359583 C65.4206656,41.838375 65.3298349,42.033875 65.2224895,42.218625 C65.0945008,42.4352917 64.9417401,42.6373333 64.7724648,42.8195 C64.6073181,42.9915833 64.4297854,43.1459583 64.2316094,43.279125 C64.000404,43.43725 63.7485553,43.5652917 63.4843206,43.659125 C63.2655012,43.7369167 63.0384245,43.7911667 62.8113478,43.8207083 C62.7287744,43.8312917 62.6462011,43.8387083 62.5636277,43.843 C62.5182124,43.845125 62.4769257,43.8462083 62.435639,43.847 C47.6632672,43.9436667 32.8908953,43.84725 18.1226521,43.84725 C18.0111781,43.8465 17.9038328,43.841375 17.7923587,43.8302083 C17.5611534,43.8064167 17.3340767,43.7577917 17.1111286,43.6852083 C16.8221219,43.5895833 16.5413725,43.4524583 16.2895238,43.279125 C16.0046458,43.08675 15.7527971,42.8500833 15.542235,42.5800833 C15.3234156,42.2962917 15.1500116,41.97625 15.0302803,41.6359583 C14.9477069,41.4011667 14.8899056,41.1569167 14.8651336,40.9095 C14.8568762,40.840375 14.8486189,40.7709583 14.8486189,40.7014583 C14.8444902,40.6479583 14.8444902,40.5944583 14.8403616,40.540875 L14.8403616,30.00375 C14.8444902,29.95 14.8444902,29.8966667 14.8486189,29.8429167 C14.8486189,29.77375 14.8568762,29.7041667 14.8651336,29.635 C14.8899056,29.4016667 14.9394496,29.17125 15.0137656,28.94875 C15.0880816,28.7320833 15.183041,28.5229167 15.2986436,28.32625 C15.4266323,28.1095833 15.579393,27.9075 15.7486684,27.725 C16.0872191,27.3683333 16.5042145,27.08875 16.9583679,26.9133333 C17.2019593,26.8204167 17.453808,26.7566667 17.7139141,26.72375 C17.7923587,26.7133333 17.8790607,26.7058333 17.9616341,26.7016667 C18.0029208,26.6995833 18.0442074,26.6983333 18.0854941,26.6975 C32.870252,26.6116667 47.6508812,26.6116667 62.435639,26.6975 Z M18.1267808,28.6975 C18.0772368,28.6975 18.0276928,28.7 17.9781488,28.7058333 C17.8831894,28.7170833 17.7841014,28.7391667 17.6932707,28.7716667 C17.515738,28.835 17.3505913,28.9383333 17.218474,29.0716667 C17.0780993,29.2083333 16.9707539,29.37625 16.9046952,29.5604167 C16.8716659,29.6520833 16.8468939,29.7479167 16.8345079,29.845 C16.8303792,29.895 16.8262506,29.945 16.8262506,29.9954167 C16.8014786,33.5133333 16.8014786,37.03125 16.8262506,40.5492083 C16.8262506,40.594 16.8262506,40.6386667 16.8345079,40.6831667 C16.8427652,40.7805417 16.8675372,40.876625 16.8964379,40.9690417 C16.9624966,41.1489583 17.0615846,41.3142083 17.193702,41.4506667 C17.329948,41.5908333 17.4950947,41.6999583 17.6808847,41.767375 C17.7717154,41.8010417 17.8666747,41.8242917 17.9616341,41.8366667 C18.0111781,41.843 18.0607221,41.8461667 18.1102661,41.847125 C32.8785093,41.9415833 47.6426238,41.9415833 62.410867,41.847125 C62.460411,41.8461667 62.5099551,41.843 62.5594991,41.8366667 C62.6544584,41.8242917 62.7494178,41.8010417 62.8402484,41.767375 C63.0260385,41.6999583 63.1911852,41.5908333 63.3274312,41.4506667 C63.4595486,41.3142083 63.5586366,41.1489583 63.6246952,40.9690417 C63.6535959,40.876625 63.6783679,40.7805417 63.6866253,40.6831667 C63.6948826,40.6386667 63.6948826,40.594 63.6948826,40.5492083 C63.7196546,37.03125 63.7196546,33.5133333 63.6948826,29.9954167 C63.6948826,29.9504167 63.6948826,29.9058333 63.6866253,29.86125 C63.6783679,29.7641667 63.6535959,29.6679167 63.6246952,29.5754167 C63.5586366,29.3954167 63.4595486,29.2304167 63.3274312,29.09375 C63.1911852,28.95375 63.0260385,28.8445833 62.8402484,28.7770833 C62.7494178,28.7433333 62.6544584,28.7204167 62.5594991,28.7079167 C62.5099551,28.7016667 62.460411,28.6983333 62.410867,28.6975 C47.6508812,28.6029167 32.8867667,28.6975 18.1267808,28.6975 Z" id="Fill-17"></path>
                    </g>
                </g>
            </g>
        </g>
    </g>
</svg>