<?xml version="1.0" encoding="UTF-8"?>
<svg width="80px" height="80px" viewBox="0 0 80 80" version="1.1" xmlns="http://www.w3.org/2000/svg" xmlns:xlink="http://www.w3.org/1999/xlink">
    <!-- Generator: Sketch 43.2 (39069) - http://www.bohemiancoding.com/sketch -->
    <title>port scana</title>
    <desc>Created with Sketch.</desc>
    <defs></defs>
    <g id="system_defense" stroke="none" stroke-width="1" fill="none" fill-rule="evenodd">
        <g id="系统检测_扫描前-copy-5" transform="translate(-1155.000000, -688.000000)" fill="#EFA223">
            <g id="icons" transform="translate(446.000000, 513.000000)">
                <g id="Group-4" transform="translate(708.000000, 0.000000)">
                    <g id="port-scana" transform="translate(1.000000, 175.000000)">
                        <path d="M39.7012655,0 C39.9778862,0.000833333333 40.2545069,0.00375 40.5311276,0.01 C41.0802404,0.0225 41.6293531,0.04625 42.1784659,0.08125 C43.6771721,0.177083333 45.1717497,0.35875 46.645684,0.625416667 C48.1980629,0.905416667 49.7339272,1.27916667 51.2408908,1.745 C52.7684977,2.21666667 54.2630753,2.78166667 55.7204949,3.43625 C57.7270272,4.33791667 59.6592435,5.40916667 61.4923719,6.63416667 C63.3626582,7.88458333 65.1255992,9.295 66.7605514,10.8445833 C68.4078897,12.40625 69.9231106,14.1091667 71.2855709,15.9295833 C72.6397738,17.7420833 73.8453446,19.6708333 74.8775115,21.68875 C75.7445316,23.38375 76.4918204,25.1416667 77.1069919,26.9445833 C77.713906,28.7158333 78.1969601,30.5308333 78.5478968,32.3708333 C79.0309509,34.8829167 79.2704136,37.44125 79.2704136,40 C79.2704136,41.8277083 79.1465536,43.655375 78.9029622,45.46625 C78.6304701,47.4589583 78.2134747,49.430875 77.6478473,51.3594583 C77.0574479,53.3704583 76.3101591,55.3339167 75.4101096,57.2258333 C74.3944574,59.368 73.1888865,61.4179583 71.8140403,63.3447083 C70.4226794,65.2933333 68.8579145,67.115625 67.1486462,68.78325 C65.3609332,70.5215417 63.4163309,72.0915 61.3437398,73.4651667 C59.3041782,74.8157917 57.1407565,75.9762917 54.8906327,76.9253333 C52.4134323,77.969875 49.8288865,78.7574167 47.1947967,79.2719583 C44.7258537,79.7538333 42.2114952,79.9959167 39.7012655,79.9999583 C37.1827784,80.0039583 34.6684199,79.7697917 32.1953482,79.2954583 C29.5571297,78.7890833 26.972584,78.009375 24.4912549,76.9721667 C22.2370025,76.029875 20.0735808,74.8757917 18.0298904,73.5310833 C15.9490421,72.1636667 14.0003111,70.5995 12.2084694,68.8664583 C10.4909438,67.2040417 8.92205019,65.3865417 7.52656062,63.4421667 C6.14345705,61.5199167 4.93375751,59.4739167 3.909848,57.3352083 C3.00979852,55.4465833 2.25425239,53.4860417 1.65972428,51.4774583 C1.08583952,49.5515417 0.66058678,47.5818333 0.383966066,45.590875 C0.127988689,43.7392917 0,41.869625 0,40 C0,37.4829167 0.231205373,34.96625 0.697744786,32.4933333 C1.04455285,30.65125 1.52347826,28.8345833 2.12213503,27.0604167 C2.7331778,25.255 3.47633793,23.4945833 4.33922941,21.79625 C5.36726759,19.775 6.56458112,17.8425 7.91465536,16.0254167 C9.26885825,14.20125 10.7799505,12.4933333 12.4231601,10.9266667 C14.0539837,9.3725 15.812796,7.95708333 17.6789537,6.70083333 C19.5079533,5.47083333 21.436041,4.39375 23.4384447,3.48583333 C24.8958643,2.82708333 26.3904419,2.2575 27.9139201,1.78125 C29.416755,1.31125 30.9526193,0.932083333 32.5008696,0.6475 C33.9789325,0.37625 35.4693814,0.19 36.963959,0.0895833333 C37.5130718,0.0525 38.0621845,0.0270833333 38.6112973,0.0129166667 C38.887918,0.00583333333 39.1645387,0.00208333333 39.4411594,0.000416666667 C39.5278614,0 39.6145634,0 39.7012655,0 Z M39.5732768,2 C38.8466313,2.00166667 38.1199859,2.02333333 37.3974691,2.06625 C35.9152775,2.15416667 34.4330859,2.33 32.9715376,2.59416667 C31.6297207,2.83583333 30.3044185,3.15166667 28.995631,3.54 C27.4143514,4.01 25.8619724,4.58625 24.3550088,5.26333333 C22.3278332,6.17458333 20.3791022,7.2675 18.5418452,8.52458333 C16.8284482,9.69916667 15.2058819,11.0170833 13.703047,12.4591667 C11.9690067,14.1229167 10.3918558,15.9533333 8.99636621,17.9170833 C7.92704136,19.4241667 6.96919053,21.0095833 6.12694238,22.6575 C5.30533758,24.26875 4.59933545,25.9395833 4.01719335,27.6529167 C3.45156592,29.3175 2.99741251,31.0220833 2.66711912,32.7504167 C2.45242842,33.8641667 2.29141039,34.9870833 2.17580771,36.1154167 C2.04781902,37.4058333 1.98176034,38.703 1.98176034,40 C1.98176034,41.7770417 2.10149169,43.5537917 2.34921174,45.3137083 C2.58454578,47.0111667 2.93135384,48.6925833 3.39376458,50.3419583 C3.96764935,52.3899167 4.71493814,54.3891667 5.62324496,56.3102083 C5.86683634,56.8297917 6.12281372,57.343875 6.39117709,57.85175 C6.9980912,58.998 7.66280665,60.112875 8.38119477,61.1904583 C9.85925769,63.3995417 11.5602686,65.4519583 13.4594556,67.3043333 C15.1109226,68.9187917 16.9110216,70.3815417 18.8267232,71.6668333 C19.8052174,72.32275 20.8126122,72.9329167 21.8447791,73.4939583 C22.9017179,74.067125 23.9875574,74.5891667 25.0899116,75.0577083 C27.4969247,76.0761667 30.0071545,76.839125 32.5669282,77.3306667 C33.6734111,77.542625 34.7840226,77.7042917 35.9028915,77.8155833 C37.1043337,77.934875 38.3099046,77.9959167 39.5113468,77.9997917 C42.0422199,78.008 44.5689643,77.7629167 47.0502934,77.262625 C48.4746836,76.9748333 49.8825592,76.6029583 51.2656628,76.1493333 C52.1780983,75.8501667 53.0822764,75.5153333 53.9658112,75.146375 C56.3728243,74.146 58.672492,72.8908333 60.8193991,71.4113333 C62.5162814,70.2420833 64.122333,68.9330417 65.6086532,67.5017917 C67.4087522,65.7695417 69.0395758,63.8579583 70.4680947,61.8033333 C70.9057335,61.1786667 71.3186002,60.5410417 71.7190809,59.8912917 C72.3755391,58.815625 72.9783245,57.706625 73.5233086,56.5701667 C74.3779427,54.7974583 75.0922022,52.9570833 75.6619583,51.0715833 C76.2193284,49.2274583 76.6363238,47.340125 76.9046872,45.431875 C77.0533192,44.3994167 77.1565359,43.360875 77.2184659,42.3197917 C77.2638812,41.5882083 77.2845246,40.8554167 77.2886532,40.1225 C77.2927819,39.3687083 77.2721386,38.6148333 77.2308519,37.8620833 C77.1895652,37.1391667 77.1317639,36.4170833 77.0491905,35.6970833 C76.9418452,34.7291667 76.7973418,33.7654167 76.6156805,32.8083333 C76.2606151,30.9458333 75.765175,29.1108333 75.1376175,27.3233333 C74.5967621,25.7791667 73.9568187,24.2708333 73.2219159,22.81125 C72.1567197,20.7008333 70.8974761,18.6916667 69.4648286,16.8170833 C68.7257971,15.8533333 67.945479,14.9254167 67.1197455,14.0366667 C66.5252174,13.39875 65.9141746,12.7808333 65.2783598,12.185 C63.5236762,10.5370833 61.6162319,9.05791667 59.5849275,7.77416667 C58.139894,6.85833333 56.6288017,6.0425 55.0722941,5.33416667 C53.4786285,4.61 51.8395475,3.99916667 50.1633086,3.50708333 C48.891679,3.13375 47.5994062,2.82916667 46.2988759,2.59416667 C44.994217,2.35833333 43.6771721,2.19291667 42.3518699,2.0975 C41.7903712,2.05708333 41.2288724,2.02916667 40.6673736,2.01416667 C40.4031389,2.00666667 40.1430329,2.0025 39.8787982,2.00083333 C39.7755815,2 39.6764935,2 39.5732768,2 Z" id="Fill-1"></path>
                        <path d="M40.9817603,49.0454219 L40.9817603,32.6283077 C41.084566,32.6147131 41.1866749,32.5980591 41.287598,32.5783333 C41.6426634,32.5104167 41.9853427,32.4058333 42.3156361,32.2666667 C42.9266789,32.01125 43.484049,31.6391667 43.9588457,31.1775 C44.4171278,30.7308333 44.7969652,30.2016667 45.0694573,29.6208333 C45.3006626,29.125 45.457552,28.5933333 45.531868,28.0495833 C45.5339753,28.033066 45.5360096,28.016538 45.5379706,28 L52.518207,28 L52.518207,35.3064454 C52.3807255,35.3557756 52.2454739,35.410897 52.1129241,35.4716667 C51.5885833,35.7104167 51.1055292,36.0358333 50.6844052,36.4304167 C50.2508951,36.8391667 49.8834437,37.3208333 49.606823,37.8508333 C49.3714889,38.3041667 49.1980849,38.791875 49.0989969,39.294625 C48.9875229,39.8712917 48.9710082,40.4670417 49.0453242,41.04975 C49.1196402,41.5934583 49.2765296,42.1252083 49.507735,42.6207917 C49.780227,43.2015833 50.1600644,43.7310417 50.6183465,44.1774167 C51.0931432,44.6394583 51.6505133,45.0112917 52.2615561,45.2669167 C52.5918495,45.4057917 52.9345289,45.5103333 53.2854656,45.5784583 C53.615759,45.64225 53.9543097,45.674 54.2887318,45.674 C54.6231538,45.674 54.9575759,45.64225 55.2878693,45.5784583 C55.638806,45.5103333 55.9856141,45.4057917 56.3159075,45.2669167 C56.9228216,45.0112917 57.4843203,44.6394583 57.9591171,44.1774167 C58.4173992,43.7310417 58.7931079,43.2015833 59.0697286,42.6207917 C59.300934,42.1252083 59.4578233,41.5934583 59.5280107,41.04975 C59.6064554,40.4670417 59.5899407,39.8712917 59.474338,39.294625 C59.37525,38.791875 59.2059746,38.3041667 58.9665119,37.8508333 C58.6898912,37.3208333 58.3224398,36.8391667 57.8889297,36.4304167 C57.4678057,36.0358333 56.9847516,35.7104167 56.4645395,35.4716667 C56.0269007,35.2729167 55.56449,35.1345833 55.0938219,35.0616667 C54.9286752,35.03625 54.7593999,35.0183333 54.5942532,35.00875 C54.5628246,35.0070199 54.531396,35.0055892 54.4999674,35.004406 L54.4999674,27 C54.4958387,26.9483333 54.4999674,26.935 54.49171,26.88375 C54.4875814,26.8258333 54.4751954,26.76875 54.4586807,26.7129167 C54.417394,26.5829167 54.355464,26.46125 54.268762,26.3570833 C54.169674,26.2379167 54.0416853,26.1433333 53.9013106,26.0816667 C53.8311233,26.0508333 53.7568072,26.0283333 53.6783626,26.015 C53.6288186,26.00625 53.6164326,26.00625 53.5668885,26.0016667 C53.5462452,26.0008333 53.5256019,26.0004167 53.5090872,26 L45.4075133,26 C45.305733,25.6013713 45.1586421,25.2150739 44.9662406,24.8508333 C44.6896199,24.3208333 44.3262971,23.83875 43.8886584,23.4304167 C43.471663,23.0358333 42.9886089,22.7104167 42.4642682,22.4716667 C42.0266294,22.2729167 41.5642187,22.1345833 41.0935506,22.0616667 C40.9284039,22.0358333 40.7632572,22.0183333 40.5939818,22.00875 C40.5031512,22.00375 40.4123205,22.0008333 40.3214898,22 L40.2554311,22 C40.1646004,22.0008333 40.0737697,22.00375 39.9829391,22.00875 C39.8136637,22.0183333 39.648517,22.0358333 39.4833703,22.0616667 C39.0127022,22.1345833 38.5502915,22.2729167 38.1126527,22.4716667 C37.588312,22.7104167 37.1052579,23.0358333 36.6882625,23.4304167 C36.2506238,23.83875 35.887301,24.3208333 35.6065517,24.8508333 C35.3839518,25.2796364 35.220455,25.7390085 35.1195553,26.2130818 C35.0826877,26.1839241 35.0439737,26.157375 35.003761,26.13375 C34.904673,26.0758333 34.793199,26.0354167 34.681725,26.015 C34.632181,26.00625 34.6156663,26.00625 34.5661223,26.0016667 C34.545479,26.0008333 34.5289643,26.0004167 34.508321,26 L25.9908802,26 C25.9413362,26.00125 25.9289502,26.0004167 25.8752775,26.0066667 C25.8009615,26.0158333 25.7266455,26.03375 25.6523294,26.06 C25.5243408,26.1066667 25.4087381,26.1791667 25.3096501,26.2725 C25.198176,26.3791667 25.111474,26.5120833 25.06193,26.6579167 C25.0330293,26.7308333 25.0165147,26.8066667 25.0082573,26.88375 C25,26.935 25.0041287,26.9483333 25,27 L25,35.1600322 C24.6963813,35.2369926 24.3987578,35.3413407 24.1117857,35.4716667 C23.5915736,35.7104167 23.1085195,36.0358333 22.6873955,36.4304167 C22.2538854,36.8391667 21.886434,37.3208333 21.6098133,37.8508333 C21.3703506,38.3041667 21.2010752,38.791875 21.1019872,39.294625 C20.9863845,39.8712917 20.9698698,40.4670417 21.0483145,41.04975 C21.1185019,41.5934583 21.2753912,42.1252083 21.5065966,42.6207917 C21.7790886,43.2015833 22.158926,43.7310417 22.6172081,44.1774167 C23.0920049,44.6394583 23.6535036,45.0112917 24.2604177,45.2669167 C24.5907111,45.4057917 24.9375192,45.5103333 25.2884559,45.5784583 C25.6187493,45.64225 25.9531713,45.674 26.2875934,45.674 C26.6220155,45.674 26.9605662,45.64225 27.2908596,45.5784583 C27.6417963,45.5103333 27.9844757,45.4057917 28.3147691,45.2669167 C28.9258119,45.0112917 29.483182,44.6394583 29.9579787,44.1774167 C30.4162608,43.7310417 30.7960982,43.2015833 31.0685902,42.6207917 C31.2997956,42.1252083 31.456685,41.5934583 31.531001,41.04975 C31.605317,40.4670417 31.5888023,39.8712917 31.4773283,39.294625 C31.3782403,38.791875 31.2048362,38.3041667 30.9695022,37.8508333 C30.6928815,37.3208333 30.3254301,36.8391667 29.89192,36.4304167 C29.470796,36.0358333 28.9877419,35.7104167 28.4634011,35.4716667 C28.029891,35.2729167 27.5674803,35.1345833 27.0926835,35.0616667 C27.0557246,35.0559785 27.0187656,35.0506661 26.9817603,35.0457385 L26.9817603,28 L34.508321,28 C34.5289643,27.9991667 34.545479,27.9991667 34.5661223,27.9983333 C34.6032803,27.9958333 34.644567,27.99125 34.681725,27.9845833 C34.8022591,27.9632957 34.9193568,27.918772 35.0236125,27.8544925 C35.0296248,27.9196583 35.0367754,27.9847035 35.0450529,28.0495833 C35.1193689,28.5933333 35.2762583,29.125 35.5074636,29.6208333 C35.7799557,30.2016667 36.1597931,30.7308333 36.6180752,31.1775 C37.0928719,31.6391667 37.650242,32.01125 38.2612848,32.2666667 C38.5009991,32.3676685 38.7472375,32.4504543 39,32.5142275 L39,49.1601118 C38.6966817,49.2370757 38.3993517,49.3413868 38.1126527,49.4716979 C37.588312,49.7104479 37.1052579,50.0358229 36.6882625,50.4304479 C36.2506238,50.8388229 35.887301,51.3207396 35.6065517,51.8507812 C35.3712176,52.3040313 35.2019422,52.7917396 35.1028542,53.2944896 C34.9872515,53.8711563 34.9707369,54.4669063 35.0450529,55.0495729 C35.1193689,55.5933229 35.2762583,56.1250729 35.5074636,56.6206146 C35.7799557,57.2014479 36.1597931,57.7309063 36.6180752,58.1772813 C37.0928719,58.6393229 37.650242,59.0111146 38.2612848,59.2667813 C38.5915782,59.4056563 38.9342576,59.5101979 39.2893229,59.5783229 C39.6154877,59.6421146 39.9540384,59.6738646 40.2884605,59.6738646 C40.6228825,59.6738646 40.9614332,59.6421146 41.287598,59.5783229 C41.6426634,59.5101979 41.9853427,59.4056563 42.3156361,59.2667813 C42.9266789,59.0111146 43.484049,58.6393229 43.9588457,58.1772813 C44.4171278,57.7309063 44.7969652,57.2014479 45.0694573,56.6206146 C45.3006626,56.1250729 45.457552,55.5933229 45.531868,55.0495729 C45.606184,54.4669063 45.5896694,53.8711563 45.4740667,53.2944896 C45.3749787,52.7917396 45.2057033,52.3040313 44.9662406,51.8507812 C44.6896199,51.3207396 44.3262971,50.8388229 43.8886584,50.4304479 C43.471663,50.0358229 42.9886089,49.7104479 42.4642682,49.4716979 C42.0266294,49.2727813 41.5642187,49.1344479 41.0935506,49.0614896 C41.056303,49.0557288 41.0190553,49.0503729 40.9817603,49.0454219 Z M26.2669501,37 C26.2091487,37.0008333 26.1513474,37.0025 26.093546,37.0054167 C25.982072,37.0120833 25.870598,37.0241667 25.7632526,37.0420833 C25.4701173,37.0891667 25.1811106,37.1770833 24.9127472,37.3025 C24.4833658,37.5016667 24.095271,37.7945833 23.7897496,38.155 C23.5998309,38.3732917 23.4429416,38.6159583 23.3149529,38.8751667 C23.1910929,39.1312917 23.1002622,39.4039167 23.0465895,39.6836667 C22.9681448,40.072625 22.9598875,40.4759167 23.0218175,40.8674583 C23.0754902,41.190375 23.1745782,41.5055 23.3149529,41.799125 C23.4883569,42.1545833 23.723691,42.4786667 24.008569,42.7516667 C24.3017044,43.0343333 24.6443838,43.2628333 25.0200925,43.4202083 C25.2100112,43.4986667 25.4040586,43.5596667 25.6022346,43.6019167 C25.8251827,43.6500833 26.056388,43.674 26.2875934,43.674 C26.4898981,43.674 26.6963315,43.6555417 26.8945075,43.618125 C27.1215842,43.5758333 27.3445323,43.5092917 27.5550943,43.4202083 C27.930803,43.2628333 28.2734824,43.034375 28.5707465,42.7516667 C28.8514958,42.47925 29.0868299,42.1557083 29.2602339,41.8007917 C29.3304213,41.6545833 29.3923513,41.5034167 29.4418953,41.3483333 C29.495568,41.1710833 29.5368546,40.9890417 29.5616266,40.8048333 C29.5863986,40.6499583 29.594656,40.4934583 29.594656,40.3370417 C29.594656,40.0905833 29.569884,39.8439583 29.5162113,39.6034583 C29.4501526,39.3120417 29.3469359,39.0300417 29.2065612,38.7667083 C29.0248999,38.42425 28.7813085,38.11375 28.4964305,37.8545833 C28.2487104,37.63 27.967961,37.4429167 27.6665683,37.3025 C27.3940763,37.1770833 27.1091982,37.0891667 26.8160628,37.0420833 C26.7045888,37.0241667 26.5931148,37.0120833 26.4816408,37.0058333 C26.4238394,37.0025 26.3660381,37.0008333 26.3082367,37 L26.2669501,37 Z M54.2680884,37 C54.2102871,37.0008333 54.1524858,37.0025 54.0946844,37.0054167 C53.9832104,37.0120833 53.8717364,37.0241667 53.7602624,37.0420833 C53.467127,37.0891667 53.1822489,37.1770833 52.9097569,37.3025 C52.5299195,37.4791667 52.1831114,37.73 51.8941047,38.03625 C51.6587707,38.2839167 51.4647233,38.568 51.3160913,38.8751667 C51.1922312,39.1312917 51.1014006,39.4039167 51.0435992,39.6836667 C50.9692832,40.072625 50.9610259,40.4759167 51.0229559,40.8674583 C51.0724999,41.190375 51.1715879,41.5055 51.3160913,41.799125 C51.4894953,42.1545833 51.7248293,42.4786667 52.0055787,42.7516667 C52.3028428,43.0343333 52.6455222,43.2628333 53.0212309,43.4202083 C53.2070209,43.4986667 53.4010683,43.5596667 53.5992443,43.6019167 C53.826321,43.6500833 54.0575264,43.674 54.2887318,43.674 C54.4910365,43.674 54.6933412,43.6555417 54.8956459,43.618125 C55.1227226,43.5758333 55.341542,43.5092917 55.5562327,43.4202083 C55.9278127,43.263125 56.2746208,43.0351667 56.5677562,42.7526667 C56.7411602,42.5859583 56.8980496,42.4008333 57.0301669,42.2006667 C57.1251263,42.061 57.2076996,41.9143333 57.277887,41.762125 C57.414133,41.4728333 57.5090923,41.1632083 57.5545077,40.8465833 C57.5834083,40.6780833 57.5957943,40.5075417 57.5957943,40.3370417 C57.5957943,40.111 57.5710223,39.8849167 57.525607,39.6634167 C57.4678057,39.364125 57.364589,39.0735833 57.2242143,38.8025417 C57.0425529,38.45175 56.7989615,38.13375 56.5099548,37.8679167 C56.2581061,37.6375 55.9732281,37.4458333 55.663578,37.3025 C55.4076006,37.1829167 55.1351086,37.0970833 54.8543592,37.04875 C54.6809552,37.01875 54.5075512,37.0033333 54.3300185,37.0004167 C54.3093751,37 54.2887318,37 54.2680884,37 Z M40.2678171,24 C40.2182731,24.0004167 40.1687291,24.0016667 40.1150564,24.0041667 C39.9994537,24.0104167 39.8797224,24.0229167 39.7641197,24.0416667 C39.4668556,24.0891667 39.1819776,24.1770833 38.9136142,24.3025 C38.4842328,24.5016667 38.0961381,24.7945833 37.786488,25.155 C37.600698,25.3733333 37.43968,25.6158333 37.3158199,25.875 C37.1919599,26.13125 37.1011292,26.40375 37.0433279,26.68375 C36.9979126,26.9129167 36.9772692,27.1470833 36.9813979,27.3808333 C36.9855266,27.5295833 36.9937839,27.6783333 37.0185559,27.8254167 C37.0639712,28.1425 37.1548019,28.4533333 37.2910479,28.7433333 C37.3529779,28.8841667 37.427294,29.02 37.513996,29.15 C37.6461133,29.3579167 37.8030027,29.5508333 37.9805354,29.7241667 C38.2736708,30.015 38.6246075,30.25 39.0044449,30.4125 C39.2150069,30.5029167 39.4338263,30.5704167 39.660903,30.6141667 C39.859079,30.6529167 40.0655124,30.6725 40.2678171,30.67375 C40.4990225,30.6754167 40.7302279,30.6529167 40.9573046,30.60625 C41.1554806,30.565 41.349528,30.505 41.535318,30.4279167 C41.9110267,30.2729167 42.2578348,30.04625 42.5550988,29.7654167 C42.8399769,29.4945833 43.0794396,29.1725 43.2528436,28.81875 C43.3065163,28.70375 43.360189,28.5854167 43.4014757,28.4645833 C43.471663,28.2641667 43.5253357,28.0570833 43.558365,27.8466667 C43.6161664,27.455 43.607909,27.0516667 43.5294643,26.6633333 C43.4634057,26.3508333 43.3560603,26.0479167 43.2074283,25.7666667 C43.0257669,25.43 42.7904329,25.1241667 42.5096835,24.8675 C42.2660921,24.6416667 41.9853427,24.4529167 41.68395,24.3108333 C41.4197153,24.1866667 41.1389659,24.0983333 40.8540879,24.0483333 C40.6889412,24.0195833 40.5196658,24.0041667 40.3545191,24.0004167 C40.3256185,24 40.2967178,24 40.2678171,24 Z M40.2678171,51.0000313 C40.2100158,51.0005729 40.1522144,51.0021979 40.0944131,51.0054896 C39.9911964,51.0115313 39.8879797,51.0225313 39.784763,51.0385313 C39.4833703,51.0849063 39.1861063,51.1739896 38.9136142,51.3022813 C38.5791922,51.4565729 38.2736708,51.6672396 38.0094361,51.9220313 C37.761716,52.1579063 37.5552827,52.4317813 37.390136,52.7312396 C37.2415039,52.9986146 37.1341586,53.2860313 37.0680999,53.5834479 C36.9731406,53.9832396 36.9566259,54.4003646 37.0144272,54.8066146 C37.0598426,55.1378646 37.1548019,55.4615313 37.2993053,55.7636979 C37.4685806,56.1209896 37.699786,56.4475312 37.9805354,56.7236562 C38.2736708,57.0146979 38.6246075,57.2499063 39.0044449,57.4124479 C39.1943636,57.4946562 39.3966683,57.5581979 39.598973,57.6017813 C39.8177924,57.6484479 40.0448691,57.6723646 40.2678171,57.6737813 C40.4783792,57.6751146 40.6889412,57.6568229 40.8953746,57.6180313 C41.1141939,57.5768646 41.3288846,57.5130729 41.535318,57.4277813 C41.9110267,57.2726979 42.2578348,57.0463646 42.5550988,56.7654479 C42.8399769,56.4947396 43.0794396,56.1725729 43.2528436,55.8186979 C43.3065163,55.7035729 43.360189,55.5853229 43.4014757,55.4643646 C43.471663,55.2640313 43.5253357,55.0568646 43.558365,54.8464479 C43.6161664,54.4546562 43.607909,54.0515729 43.5294643,53.6632813 C43.4634057,53.3506563 43.3560603,53.0478646 43.2074283,52.7665729 C43.0092523,52.3937396 42.7408889,52.0602813 42.4188528,51.7871146 C42.1959048,51.5963646 41.9481847,51.4356979 41.68395,51.3106979 C41.4032006,51.1778229 41.1018079,51.0859479 40.7921579,51.0384896 C40.6476545,51.0159896 40.4990225,51.0039062 40.3545191,51.0005729 C40.3256185,51.0001146 40.2967178,50.9999063 40.2678171,51.0000313 Z" id="Combined-Shape"></path>
                    </g>
                </g>
            </g>
        </g>
    </g>
</svg>