<?xml version="1.0" encoding="UTF-8"?>
<svg width="80px" height="80px" viewBox="0 0 80 80" version="1.1" xmlns="http://www.w3.org/2000/svg" xmlns:xlink="http://www.w3.org/1999/xlink">
    <!-- Generator: Sketch 43.2 (39069) - http://www.bohemiancoding.com/sketch -->
    <title>virus</title>
    <desc>Created with Sketch.</desc>
    <defs></defs>
    <g id="系统检测" stroke="none" stroke-width="1" fill="none" fill-rule="evenodd">
        <g id="系统检测_扫描前" transform="translate(-452.000000, -259.000000)" fill="#32A1FF">
            <g id="table" transform="translate(264.000000, 227.000000)">
                <g id="icons" transform="translate(49.000000, 32.000000)">
                    <g id="virus" transform="translate(139.000000, 0.000000)">
                        <path d="M39.8034278,0 C40.0804613,0.000833333333 40.3574949,0.00375 40.6341156,0.01 C41.184467,0.0225 41.7339926,0.04625 42.2831054,0.08125 C43.7813988,0.177083333 45.273912,0.35875 46.7515621,0.625416667 C48.3035282,0.905416667 49.8385667,1.27916667 51.3455303,1.745 C52.87066,2.21666667 54.3673019,2.78166667 55.8247215,3.43625 C57.8320796,4.33791667 59.7642959,5.40916667 61.5957728,6.63416667 C63.4652333,7.88458333 65.2294129,9.295 66.8639523,10.8445833 C68.5112906,12.40625 70.0269244,14.1091667 71.3889718,15.9295833 C72.7448261,17.7420833 73.9483327,19.6708333 74.9809124,21.68875 C75.8483454,23.38375 76.5948085,25.1416667 77.2120442,26.9445833 C77.8185455,28.7158333 78.300361,30.5308333 78.653362,32.3708333 C79.1347646,34.8829167 79.3746402,37.44125 79.3746402,40 C79.3746402,41.8277083 79.2524317,43.655375 79.0067759,45.46625 C78.7367611,47.4589583 78.3164628,49.430875 77.7508353,51.3594583 C77.1608488,53.3704583 76.4127342,55.3339167 75.5155748,57.2258333 C74.5003355,59.368 73.2947646,61.4179583 71.9190927,63.3447083 C70.5281446,65.2933333 68.9637926,67.115625 67.2512213,68.78325 C65.4663984,70.5215417 63.5201446,72.0915 61.446315,73.4651667 C59.4071662,74.8157917 57.2445702,75.9762917 54.9940336,76.9253333 C52.5172461,77.969875 49.9347646,78.7574167 47.2990234,79.2719583 C44.830906,79.7538333 42.3173733,79.9959167 39.8034278,79.9999583 C37.2882436,80.0039583 34.7722337,79.7697917 32.3012263,79.2954583 C29.6630078,78.7890833 27.0772235,78.009375 24.5963072,76.9721667 C22.3424677,76.029875 20.1757431,74.8757917 18.1324656,73.5310833 C16.0540944,72.1636667 14.103712,70.5995 12.3131089,68.8664583 C10.5959962,67.2040417 9.02627683,65.3865417 7.62954865,63.4421667 C6.24850942,61.5199167 5.03715841,59.4739167 4.01531324,57.3352083 C3.11278655,55.4465833 2.35889189,53.4860417 1.76271232,51.4774583 C1.19130475,49.5515417 0.765639146,47.5818333 0.489018432,45.590875 C0.231802454,43.7392917 0.104226632,41.869625 0.104226632,40 C0.104226632,37.4829167 0.336257739,34.96625 0.802384285,32.4933333 C1.14960521,30.65125 1.62605343,28.8345833 2.2271874,27.0604167 C2.83946877,25.255 3.58056456,23.4945833 4.44304318,21.79625 C5.46942988,19.775 6.66756916,17.8425 8.01846912,16.0254167 C9.37514922,14.20125 10.8858286,12.4933333 12.5286254,10.9266667 C14.1582104,9.3725 15.9182613,7.95708333 17.7835932,6.70083333 C19.6109414,5.47083333 21.5398548,4.39375 23.5443228,3.48583333 C24.9988523,2.82708333 26.4934299,2.2575 28.0169081,1.78125 C29.5218074,1.31125 31.0551945,0.932083333 32.6050962,0.6475 C34.0810948,0.37625 35.5723694,0.19 37.0694242,0.0895833333 C37.6181241,0.0525 38.1672369,0.0270833333 38.7171754,0.0129166667 C38.9937961,0.00583333333 39.2704168,0.00208333333 39.5474504,0.000416666667 C39.6325009,0 39.7179643,0 39.8034278,0 Z M39.6783291,2 C39.3946897,2.00083333 39.1114631,2.00416667 38.8278237,2.01083333 C38.2654992,2.02458333 37.7027618,2.05041667 37.141263,2.08916667 C35.7783899,2.18291667 34.4208841,2.35125 33.0761771,2.59416667 C31.7355988,2.83583333 30.4082323,3.15166667 29.1019219,3.54 C27.5189909,4.01 25.9674377,4.58625 24.4600612,5.26333333 C22.6913401,6.05791667 20.9841361,6.99083333 19.3574412,8.05083333 C17.5193585,9.24875 15.7844925,10.6079167 14.1784408,12.1075 C12.560829,13.61875 11.0732701,15.2720833 9.73971055,17.04375 C8.41234399,18.8075 7.23691239,20.6879167 6.23282048,22.6575 C5.40254547,24.2858333 4.68952462,25.975 4.10242812,27.7079167 C3.55042529,29.33625 3.10907075,31.0029167 2.78249316,32.6925 C2.56367379,33.8245833 2.39604989,34.9670833 2.2804472,36.115 C2.14832985,37.4258333 2.08392264,38.74375 2.08598697,40.0614583 C2.08887704,41.7779583 2.20489259,43.4942917 2.43527223,45.1949583 C2.68959814,47.0680417 3.08264728,48.9219167 3.61194243,50.7355 C4.16931253,52.6464167 4.87696612,54.5124167 5.726233,56.3106667 C6.69605696,58.3645417 7.84960663,60.3296667 9.16747725,62.175625 C10.4894765,64.0274583 11.9762097,65.7591667 13.6037303,67.3440417 C15.2320768,68.9297917 17.0012107,70.3678333 18.8834702,71.6353333 C20.8891768,72.986 23.0236978,74.14175 25.2486367,75.08 C27.5284868,76.0414167 29.9028834,76.773625 32.3259983,77.2626667 C34.7449845,77.750875 37.2114504,77.9962083 39.6783291,77.9999583 C40.8248601,78.0017083 41.971391,77.9519167 43.1133804,77.8493333 C44.3523935,77.7380417 45.5856264,77.5651667 46.8072991,77.3306667 C48.2568742,77.0524583 49.6899347,76.6874167 51.0969845,76.2383333 C52.1213069,75.9112917 53.1315918,75.5393333 54.1245363,75.124375 C56.3874589,74.1785 58.5578993,73.0074583 60.5953967,71.635375 C61.458701,71.0538333 62.2988848,70.4365417 63.1122323,69.7854167 C64.0420082,69.0409167 64.9371033,68.252125 65.7938017,67.4229167 C67.5625229,65.7114583 69.1656844,63.8265 70.5739728,61.8030417 C71.7502302,60.1130833 72.7898286,58.326625 73.6787307,56.4664583 C74.5523567,54.6379583 75.279415,52.7381667 75.8508226,50.7916667 C76.3710347,49.0174167 76.7616066,47.2045 77.0188226,45.3724583 C77.2661298,43.61375 77.3899898,41.8377083 77.3928799,40.0614583 C77.3965957,37.6491667 77.1761248,35.2366667 76.7298159,32.8670833 C76.407367,31.1558333 75.967251,29.4675 75.4135967,27.8179167 C74.8438406,26.1195833 74.1531146,24.4620833 73.3496759,22.8625 C72.3488869,20.8691667 71.1730425,18.9658333 69.8415472,17.1804167 C68.5154193,15.4025 67.0357049,13.7425 65.424286,12.2241667 C63.769929,10.665 61.9772616,9.25583333 60.0735331,8.01958333 C58.4778032,6.98333333 56.8040414,6.06833333 55.0712397,5.28708333 C53.6881361,4.66333333 52.2678746,4.12458333 50.8203638,3.67458333 C49.3716144,3.22416667 47.8952029,2.86333333 46.4026897,2.59416667 C45.0579827,2.35125 43.7004769,2.18291667 42.3376038,2.08916667 C41.8161531,2.05333333 41.2942896,2.02833333 40.7720131,2.01416667 C40.4685561,2.00583333 40.165099,2.00125 39.8612291,2 L39.6783291,2 Z" id="Fill-37"></path>
                        <path d="M40.0800485,35.26875 C40.1077105,35.27375 40.1353726,35.2770833 40.1630347,35.2833333 C40.217946,35.295 40.2716186,35.3116667 40.3236399,35.3329167 C40.4536929,35.3858333 40.5725985,35.4666667 40.6696222,35.56875 C40.7666459,35.6708333 40.8417876,35.7941667 40.8884415,35.9275 C40.9165165,36.0075 40.9342698,36.09125 40.9412885,36.1758333 C40.9437657,36.2041667 40.9437657,36.2325 40.9450043,36.2608333 L40.9450043,54.7362083 C40.9417014,54.8115 40.9433528,54.83075 40.930554,54.9052083 C40.8975246,55.1009583 40.8058682,55.28475 40.6696222,55.4281667 C40.5920032,55.5099167 40.5003468,55.5781667 40.4000202,55.629125 C40.3001064,55.680125 40.1911096,55.7137083 40.0800485,55.728125 C39.9966494,55.7389167 39.9115988,55.7389167 39.8281998,55.728125 C39.6890637,55.710125 39.5540563,55.662 39.4347378,55.58775 C39.2910601,55.4985833 39.1713288,55.372375 39.0891683,55.2239167 C39.034257,55.1250417 38.9962733,55.0168333 38.9776943,54.9052083 C38.9648954,54.83075 38.9665469,54.8115 38.963244,54.7362083 L38.963244,36.2608333 C38.9644826,36.2325 38.9644826,36.2041667 38.9669598,36.1758333 C38.9739785,36.09125 38.9917318,36.0075 39.0198067,35.9275 C39.0759566,35.7670833 39.1729803,35.6225 39.2993175,35.51 C39.4050114,35.4166667 39.5296971,35.3458333 39.6638788,35.3045833 C39.7443878,35.2795833 39.8281998,35.2654167 39.9120117,35.2616667 C39.9400867,35.2604167 39.9681616,35.2616667 39.9962365,35.2616667 C40.0243115,35.2641667 40.0519735,35.26625 40.0800485,35.26875 Z" id="Fill-38"></path>
                        <path d="M55.8618795,49.6848333 C55.9147265,49.6897083 55.9283511,49.6897083 55.9807851,49.6994167 C56.0394122,49.7102917 56.0972136,49.7265833 56.1533634,49.748 C56.2842422,49.7980417 56.4039735,49.8761667 56.5026487,49.9759167 C56.6013238,50.0756667 56.6789428,50.1965 56.7284868,50.3284167 C56.7569746,50.40375 56.7759665,50.4825 56.7854624,50.5625 C56.7920683,50.6158333 56.7912425,50.629375 56.792894,50.6830417 L56.792894,60.0068333 C56.7920683,60.0269583 56.7920683,60.047125 56.7912425,60.0672083 C56.7887653,60.1074167 56.7838109,60.1474583 56.7767922,60.1870833 C56.7516073,60.325875 56.6966961,60.4587917 56.6174256,60.5749167 C56.5608629,60.6577917 56.4915013,60.7319167 56.4130566,60.7940417 C56.3346119,60.856125 56.2466713,60.906125 56.1533634,60.941875 C56.0224847,60.991875 55.8816971,61.0135417 55.7421482,61.005 C55.6224168,60.9977083 55.5047498,60.968375 55.3953401,60.91875 C55.3045094,60.8774167 55.2194589,60.822125 55.14473,60.7553333 C55.0551379,60.6752083 54.980409,60.5785833 54.924672,60.4715833 C54.868935,60.3645417 54.8326027,60.247375 54.8181524,60.127375 C54.8119594,60.0740417 54.8127851,60.0605 54.8111337,60.0068333 L54.8111337,51.6830417 L50.6300322,51.6830417 L50.5701665,51.6812083 C50.5169067,51.6763333 50.503695,51.6763333 50.4512609,51.6666667 C50.3335939,51.644875 50.2196427,51.6013333 50.1172517,51.5387917 C50.0148608,51.47625 49.9236172,51.3949167 49.8497141,51.29975 C49.7881969,51.2204583 49.7386529,51.1317917 49.7035593,51.037625 C49.661034,50.9245833 49.639152,50.8039167 49.639152,50.6830417 C49.639152,50.562125 49.661034,50.4414583 49.7035593,50.3284167 C49.7386529,50.23425 49.7881969,50.1455833 49.8497141,50.0662917 C49.9112312,49.9870417 49.9847215,49.91725 50.066882,49.8600417 C50.1820718,49.7799167 50.3137763,49.7248333 50.4512609,49.6994167 C50.4904833,49.692125 50.5301185,49.6872917 50.5701665,49.6848333 C50.5899841,49.683625 50.6098017,49.683625 50.6300322,49.6830417 L55.8020138,49.6830417 C55.8218314,49.683625 55.8420619,49.68425 55.8618795,49.6848333 Z" id="Fill-39"></path>
                        <path d="M29.3380817,49.6848333 C29.3913415,49.6897083 29.4045532,49.6897083 29.4569873,49.6994167 C29.5746543,49.7212083 29.6886056,49.7647083 29.7909965,49.82725 C29.8933875,49.8897917 29.984631,49.9711667 30.0585342,50.0662917 C30.1200513,50.1455833 30.1695953,50.23425 30.204689,50.3284167 C30.2472143,50.4414583 30.2690962,50.562125 30.2690962,50.6830417 C30.2690962,50.8039167 30.2472143,50.9245833 30.204689,51.037625 C30.1695953,51.1317917 30.1200513,51.2204583 30.0585342,51.29975 C29.997017,51.3790417 29.9235267,51.4487917 29.8413663,51.506 C29.7261764,51.5861667 29.5944719,51.6412083 29.4569873,51.6666667 C29.417765,51.6739167 29.3781298,51.67875 29.3380817,51.6812083 C29.3182641,51.6824167 29.2984465,51.6824167 29.278216,51.6830417 L25.0971146,51.6830417 L25.0971146,60.0068333 L25.0954631,60.0672083 C25.0905087,60.1206667 25.0905087,60.13425 25.0810128,60.1870833 C25.0591308,60.306 25.0161927,60.42075 24.9542627,60.5241667 C24.8923327,60.627625 24.8118237,60.7194583 24.7172772,60.7940417 C24.6388325,60.856125 24.5508919,60.906125 24.457584,60.941875 C24.3456971,60.9847083 24.2259658,61.0068333 24.1062344,61.0068333 C23.9865031,61.0068333 23.8667717,60.9847083 23.7548848,60.941875 C23.6615769,60.906125 23.5736363,60.856125 23.4951916,60.7940417 C23.416747,60.7319167 23.3473853,60.6577917 23.2908226,60.5749167 C23.2115522,60.4587917 23.1566409,60.325875 23.131456,60.1870833 C23.1244373,60.1474583 23.1194829,60.1074167 23.1170057,60.0672083 C23.11618,60.047125 23.11618,60.0269583 23.1153542,60.0068333 L23.1153542,50.6830417 C23.1170057,50.629375 23.11618,50.6158333 23.1227858,50.5625 C23.1322818,50.4825 23.1512736,50.40375 23.1797615,50.3284167 C23.2363242,50.1775833 23.3296321,50.0415 23.4493634,49.9345 C23.5538187,49.8409583 23.6780916,49.7702917 23.8114476,49.7282917 C23.8684232,49.7103333 23.9274631,49.6975833 23.9869159,49.6903333 C24.0397629,49.6838333 24.0529746,49.6846667 24.1062344,49.6830417 L29.278216,49.6830417 C29.2984465,49.683625 29.3182641,49.68425 29.3380817,49.6848333 Z" id="Fill-40"></path>
                        <path d="M55.8618795,18.995 C55.9147265,19 55.9283511,19 55.9807851,19.0095833 C56.0394122,19.0204167 56.0972136,19.0366667 56.1533634,19.0583333 C56.2842422,19.1083333 56.4039735,19.18625 56.5026487,19.28625 C56.6013238,19.3858333 56.6789428,19.5066667 56.7284868,19.63875 C56.7569746,19.71375 56.7759665,19.7925 56.7854624,19.8725 C56.7920683,19.9258333 56.7912425,19.9395833 56.792894,19.9933333 L56.792894,29.3170833 C56.7912425,29.3704167 56.7920683,29.3841667 56.7854624,29.4375 C56.7784437,29.4975 56.7656448,29.5566667 56.7478915,29.6145833 C56.7004119,29.7683333 56.6157742,29.91 56.5026487,30.0241667 C56.4039735,30.12375 56.2842422,30.2020833 56.1533634,30.2520833 C56.0786346,30.2804167 56.0006027,30.3 55.9213323,30.3095833 C55.8684854,30.31625 55.8552736,30.3154167 55.8020138,30.3170833 L50.6300322,30.3170833 C50.5767724,30.3154167 50.5631478,30.31625 50.5103009,30.3095833 C50.3913952,30.295 50.2753797,30.25875 50.1692729,30.2025 C50.0631662,30.14625 49.967794,30.0704167 49.8881107,29.98 C49.822052,29.9045833 49.7671407,29.8191667 49.7262669,29.7275 C49.6688785,29.59875 49.639152,29.4579167 49.639152,29.3170833 C49.639152,29.19625 49.661034,29.0754167 49.7035593,28.9625 C49.7386529,28.8683333 49.7881969,28.7795833 49.8497141,28.7004167 C49.9112312,28.6208333 49.9847215,28.55125 50.066882,28.4941667 C50.1820718,28.41375 50.3137763,28.35875 50.4512609,28.3333333 C50.4904833,28.32625 50.5301185,28.32125 50.5701665,28.31875 C50.5899841,28.3175 50.6098017,28.3175 50.6300322,28.3170833 L54.8111337,28.3170833 L54.8111337,19.9933333 L54.8127851,19.9329167 C54.8177395,19.8791667 54.8177395,19.8658333 54.8272355,19.8129167 C54.83797,19.7533333 54.8540718,19.695 54.8755409,19.63875 C54.9250849,19.5066667 55.002291,19.3858333 55.101379,19.28625 C55.2000541,19.18625 55.3197855,19.1083333 55.4506642,19.0583333 C55.5253931,19.0295833 55.6034249,19.01 55.6826953,19.0004167 C55.7355423,18.9941667 55.748754,18.9945833 55.8020138,18.9933333 C55.8218314,18.99375 55.8420619,18.9945833 55.8618795,18.995 Z" id="Fill-41"></path>
                        <path d="M24.1661001,18.995 C24.218947,19 24.2325716,19 24.2850057,19.0095833 C24.3634504,19.0241667 24.4402436,19.0483333 24.5129081,19.08125 C24.640484,19.1391667 24.7552609,19.2245833 24.8477431,19.33 C24.9406381,19.4358333 25.0108254,19.5608333 25.0521121,19.6958333 C25.0702782,19.7533333 25.0826642,19.8125 25.0900958,19.8725 C25.0962888,19.9258333 25.0954631,19.9395833 25.0971146,19.9933333 L25.0971146,28.3170833 L29.278216,28.3170833 L29.3380817,28.31875 C29.3913415,28.32375 29.4045532,28.32375 29.4569873,28.3333333 C29.5746543,28.355 29.6886056,28.39875 29.7909965,28.46125 C29.8933875,28.52375 29.984631,28.605 30.0585342,28.7004167 C30.1200513,28.7795833 30.1695953,28.8683333 30.204689,28.9625 C30.2472143,29.0754167 30.2690962,29.19625 30.2690962,29.3170833 C30.2690962,29.4379167 30.2472143,29.55875 30.204689,29.6716667 C30.1695953,29.7658333 30.1200513,29.8545833 30.0585342,29.93375 C29.997017,30.0129167 29.9235267,30.0829167 29.8413663,30.14 C29.7261764,30.22 29.5944719,30.275 29.4569873,30.3004167 C29.417765,30.3079167 29.3781298,30.3129167 29.3380817,30.315 C29.3182641,30.31625 29.2984465,30.31625 29.278216,30.3170833 L24.1062344,30.3170833 C24.0529746,30.3154167 24.0397629,30.31625 23.9869159,30.3095833 C23.9076455,30.3 23.8296137,30.2804167 23.7548848,30.2520833 C23.6054271,30.195 23.4704196,30.1008333 23.3647257,29.98 C23.2718307,29.8745833 23.2016434,29.7491667 23.1603567,29.6145833 C23.1426034,29.5566667 23.1298046,29.4975 23.1227858,29.4375 C23.11618,29.3841667 23.1170057,29.3704167 23.1153542,29.3170833 L23.1153542,19.9933333 C23.1170057,19.9395833 23.11618,19.9258333 23.1227858,19.8725 C23.1322818,19.7925 23.1512736,19.71375 23.1797615,19.63875 C23.2293055,19.5066667 23.3069244,19.3858333 23.4055996,19.28625 C23.518725,19.1720833 23.6586869,19.08625 23.8114476,19.0383333 C23.8684232,19.0204167 23.9274631,19.0079167 23.9869159,19.0004167 C24.0397629,18.9941667 24.0529746,18.9945833 24.1062344,18.9933333 C24.126052,18.99375 24.1462825,18.9945833 24.1661001,18.995 Z" id="Fill-42"></path>
                        <path d="M39.9991266,22.655 C40.2385893,22.6566667 40.4776391,22.6654167 40.7162761,22.6829167 C41.203046,22.7183333 41.6873387,22.7879167 42.1646126,22.89125 C42.6939078,23.0054167 43.2149456,23.1604167 43.7215331,23.3529167 C44.1174723,23.5033333 44.5047413,23.6770833 44.8816886,23.8708333 C45.1938159,24.0316667 45.4989244,24.2066667 45.7961885,24.3945833 C46.0447342,24.5516667 46.2874999,24.7179167 46.5244854,24.8920833 C46.7267901,25.0408333 46.9245532,25.1958333 47.1181877,25.3558333 C48.3695868,26.3920833 49.4290029,27.6533333 50.2914815,29.0333333 C50.4244246,29.24625 50.553239,29.4625 50.677099,29.68125 C51.1609788,30.5354167 51.5746713,31.4291667 51.9202408,32.34875 C52.3760456,33.5608333 52.7133578,34.8179167 52.9375444,36.0945833 C53.1765943,37.4541667 53.2868297,38.8365417 53.2736179,40.2172083 C53.2554518,42.1510417 52.9949329,44.0846667 52.4759594,45.947125 C52.1200683,47.2247083 51.6427943,48.4690833 51.0383574,49.64825 C50.9012857,49.9163333 50.7571952,50.1810417 50.6064988,50.441875 C50.4731429,50.67275 50.3348325,50.9005833 50.1911549,51.1250417 C50.0739007,51.3082917 49.9529308,51.4892917 49.8286579,51.6677917 C48.9492517,52.9312083 47.8914871,54.0745417 46.6660987,55.0021667 C46.4196172,55.1887083 46.1665299,55.366375 45.9072496,55.53425 C45.5996639,55.7333333 45.283408,55.918625 44.9593076,56.088625 C44.558414,56.2990417 44.1451344,56.4859583 43.721946,56.6468333 C43.201321,56.84475 42.6658329,57.0030417 42.1212616,57.1181667 C41.4239297,57.2655833 40.7117346,57.34175 39.9991266,57.3448333 C39.2861057,57.3479167 38.572672,57.2777917 37.8732758,57.1360417 C37.3134285,57.0225833 36.7626642,56.8634167 36.227589,56.6624167 C35.8035748,56.5032083 35.3894695,56.3178333 34.9877501,56.108875 C34.662824,55.940125 34.3457424,55.7560417 34.0377438,55.5580417 C33.7780506,55.391125 33.5245504,55.2144583 33.2776561,55.0288333 C32.0369916,54.0965833 30.9672539,52.9433333 30.0795904,51.6677917 C29.9553175,51.4892917 29.8343475,51.3082917 29.7170934,51.1250417 C29.5734157,50.9005833 29.4351054,50.67275 29.3017494,50.441875 C29.1432086,50.1672083 28.9916865,49.8882083 28.8480089,49.6054583 C28.2538937,48.4389167 27.7840513,47.2093333 27.4322888,45.947125 C26.9133154,44.0846667 26.6527964,42.1510417 26.6346303,40.2172083 C26.6214186,38.8365417 26.731654,37.4541667 26.9707038,36.0945833 C27.1948905,34.8179167 27.5322026,33.5608333 27.9880075,32.34875 C28.3335769,31.4291667 28.7472694,30.5354167 29.2311492,29.68125 C29.3550092,29.4625 29.4838237,29.24625 29.6167668,29.0333333 C30.4792454,27.6533333 31.5386614,26.3920833 32.7900605,25.3558333 C32.983695,25.1958333 33.1814582,25.0408333 33.3837629,24.8920833 C33.6207484,24.7179167 33.863514,24.5516667 34.1120598,24.3945833 C34.4093238,24.2066667 34.7144324,24.0316667 35.0265596,23.8708333 C35.4035069,23.6770833 35.7907759,23.5033333 36.1867151,23.3529167 C36.6933026,23.1604167 37.2143405,23.0054167 37.7436356,22.89125 C38.191596,22.7945833 38.6461623,22.7270833 39.1027929,22.6895833 C39.3562931,22.6691667 39.6102061,22.6583333 39.8641192,22.6554167 C39.9091216,22.655 39.9541241,22.655 39.9991266,22.655 Z M39.917379,24.655 C39.7229187,24.65625 39.5288714,24.6633333 39.334824,24.6775 C38.963244,24.7045833 38.5933154,24.75625 38.2283412,24.8320833 C37.8179516,24.9170833 37.414168,25.0320833 37.0198802,25.1745833 C36.7143588,25.2854167 36.4146176,25.4125 36.1223079,25.555 C35.892754,25.6666667 35.6673288,25.7875 35.4472708,25.9170833 C35.2883171,26.0104167 35.1318406,26.1079167 34.9782542,26.21 C33.820163,26.9775 32.819374,27.9725 31.986209,29.0866667 C31.8478986,29.27125 31.7145426,29.4595833 31.5853154,29.6508333 C31.4152143,29.9020833 31.2529576,30.15875 31.0985455,30.4204167 C30.6394377,31.1958333 30.2476271,32.01125 29.9198109,32.8516667 C29.4904295,33.9525 29.1708707,35.09625 28.9553542,36.2591667 C28.7117629,37.5729167 28.6011146,38.9112917 28.6168035,40.2476667 C28.637034,41.9885833 28.8727809,43.7289583 29.340146,45.4057083 C29.6597049,46.5529167 30.0874348,47.6705833 30.6299417,48.7294167 C30.7967399,49.0547083 30.9742726,49.3743333 31.1625398,49.6872083 C31.3190163,49.946625 31.4829244,50.2014583 31.654677,50.450875 C31.78473,50.6404167 31.9197374,50.8269167 32.0588735,51.0099167 C32.8623122,52.0650833 33.8176858,53.0095417 34.9167371,53.7489583 C35.0699106,53.852 35.2255614,53.951 35.3841022,54.045625 C35.5930128,54.1705833 35.8068777,54.2879167 36.0244585,54.3969583 C36.3369986,54.5534583 36.658209,54.6927917 36.986438,54.8130417 C37.3910474,54.9614167 37.8063914,55.080625 38.2283412,55.168 C38.7836469,55.283 39.350513,55.3424167 39.917379,55.3448333 C40.4850707,55.3472917 41.0527625,55.2927083 41.6097197,55.18225 C42.0440555,55.096125 42.4713726,54.9762083 42.8879552,54.8253333 C43.2277445,54.7023333 43.5605151,54.5588333 43.8837897,54.3969583 C44.1013705,54.2879167 44.3152355,54.1705833 44.524146,54.045625 C44.6826869,53.951 44.8383376,53.852 44.9915112,53.7489583 C46.1017098,53.0020417 47.0653408,52.0459583 47.8737339,50.9777917 C48.0124571,50.79425 48.1470517,50.6072083 48.2766918,50.417125 C48.4480315,50.167 48.6111139,49.9115417 48.7671775,49.6514583 C48.9550319,49.3377917 49.1317388,49.0174167 49.2977113,48.6914583 C49.8311351,47.643875 50.252672,46.5392083 50.5681022,45.4057083 C51.0309258,43.7448333 51.2666727,42.0215 51.2910319,40.2970833 C51.3096109,38.959875 51.2022655,37.6204167 50.9615642,36.305 C50.748525,35.14125 50.4314433,33.9958333 50.0045391,32.8929167 C49.6783744,32.0508333 49.2882153,31.23375 48.8311718,30.45625 C48.6767597,30.1941667 48.5153288,29.9366667 48.3460534,29.6845833 C48.217239,29.4929167 48.083883,29.3041667 47.9463984,29.1191667 C47.1082789,27.9916667 46.0996455,26.985 44.929994,26.21 C44.7764076,26.1079167 44.6199311,26.0104167 44.4609774,25.9170833 C44.2512411,25.79375 44.0369633,25.6779167 43.8185568,25.5708333 C43.52666,25.4275 43.2273316,25.29875 42.9218102,25.1870833 C42.5394956,25.0466667 42.148098,24.9325 41.7500944,24.8466667 C41.385946,24.7683333 41.0168431,24.7133333 40.6456759,24.6833333 C40.4520414,24.6675 40.257994,24.65875 40.0639467,24.6558333 C40.0152284,24.6554167 39.9665101,24.655 39.917379,24.655 Z" id="Fill-43"></path>
                    </g>
                </g>
            </g>
        </g>
    </g>
</svg>