<?xml version="1.0" encoding="UTF-8"?>
<svg width="80px" height="80px" viewBox="0 0 80 80" version="1.1" xmlns="http://www.w3.org/2000/svg" xmlns:xlink="http://www.w3.org/1999/xlink">
    <!-- Generator: Sketch 43.1 (39012) - http://www.bohemiancoding.com/sketch -->
    <title>breach_examine</title>
    <desc>Created with Sketch.</desc>
    <defs></defs>
    <g id="Page-1" stroke="none" stroke-width="1" fill="none" fill-rule="evenodd">
        <g id="系统检测" transform="translate(-1009.000000, -259.000000)" fill="#D0011B">
            <g id="table" transform="translate(264.000000, 227.000000)">
                <g id="threats" transform="translate(49.000000, 32.000000)">
                    <g id="breach_examine" transform="translate(696.000000, 0.000000)">
                        <path d="M40.2223986,0 C40.4990193,0.000833333333 40.7756401,0.00375 41.0522608,0.01 C41.6013735,0.0225 42.1504863,0.04625 42.6995991,0.08125 C44.1983053,0.177083333 45.6928829,0.35875 47.1668171,0.625416667 C48.7191961,0.905416667 50.2550603,1.27916667 51.7620239,1.745 C53.2896309,2.21666667 54.7842085,2.78166667 56.241628,3.43625 C58.2481604,4.33791667 60.1803767,5.40916667 62.013505,6.63416667 C63.8837913,7.88458333 65.6467323,9.295 67.2816846,10.8445833 C68.9290229,12.40625 70.4442438,14.1091667 71.806704,15.9295833 C73.1609069,17.7420833 74.3664778,19.6708333 75.3986446,21.68875 C76.2656648,23.38375 77.0129536,25.1416667 77.628125,26.9445833 C78.2350391,28.7158333 78.7180932,30.5308333 79.0690299,32.3708333 C79.552084,34.8829167 79.7915467,37.44125 79.7915467,40 C79.7915467,41.8277083 79.6676867,43.655375 79.4240953,45.46625 C79.1516033,47.4589583 78.7346079,49.430875 78.1689805,51.3594583 C77.578581,53.3704583 76.8312922,55.3339167 75.9312427,57.2258333 C74.9155906,59.368 73.7100197,61.4179583 72.3351735,63.3447083 C70.9438126,65.2933333 69.3790476,67.115625 67.6697793,68.78325 C65.8820664,70.5215417 63.937464,72.0915 61.864873,73.4651667 C59.8253113,74.8157917 57.6618896,75.9762917 55.4117659,76.9253333 C52.9345655,77.969875 50.3500197,78.7574167 47.7159299,79.2719583 C45.2469868,79.7538333 42.7326284,79.9959167 40.2223986,79.9999583 C37.7039115,80.0039583 35.1895531,79.7697917 32.7164813,79.2954583 C30.0782629,78.7890833 27.4937171,78.009375 25.012388,76.9721667 C22.7581356,76.029875 20.5947139,74.8757917 18.5510236,73.5310833 C16.4701752,72.1636667 14.5214442,70.5995 12.7296026,68.8664583 C11.012077,67.2040417 9.44318336,65.3865417 8.04769378,63.4421667 C6.66459021,61.5199167 5.45489067,59.4739167 4.43098116,57.3352083 C3.53093168,55.4465833 2.77538555,53.4860417 2.18085745,51.4774583 C1.60697268,49.5515417 1.18171994,47.5818333 0.905099227,45.590875 C0.64912185,43.7392917 0.521133162,41.869625 0.521133162,40 C0.521133162,37.4829167 0.752338535,34.96625 1.21887795,32.4933333 C1.56568601,30.65125 2.04461142,28.8345833 2.64326819,27.0604167 C3.25431096,25.255 3.99747109,23.4945833 4.86036257,21.79625 C5.88840075,19.775 7.08571429,17.8425 8.43578852,16.0254167 C9.78999142,14.20125 11.3010837,12.4933333 12.9442933,10.9266667 C14.5751169,9.3725 16.3339292,7.95708333 18.2000869,6.70083333 C20.0290865,5.47083333 21.9571742,4.39375 23.9595778,3.48583333 C25.4169974,2.82708333 26.911575,2.2575 28.4350533,1.78125 C29.9378882,1.31125 31.4737525,0.932083333 33.0220027,0.6475 C34.5000656,0.37625 35.9905146,0.19 37.4850922,0.0895833333 C38.0342049,0.0525 38.5833177,0.0270833333 39.1324304,0.0129166667 C39.4090512,0.00583333333 39.6856719,0.00208333333 39.9622926,0.000416666667 C40.0489946,0 40.1356966,0 40.2223986,0 Z M40.0944099,2 C39.8136606,2.00083333 39.5287825,2.00416667 39.2439045,2.01083333 C38.6824057,2.02458333 38.1209069,2.05041667 37.5594082,2.08916667 C36.1969479,2.18291667 34.8386164,2.35125 33.4926708,2.59416667 C32.0558946,2.85291667 30.635633,3.19708333 29.2401434,3.62333333 C27.7538232,4.0775 26.2964036,4.62583333 24.876142,5.26333333 C23.2618331,5.98791667 21.7011968,6.82791667 20.2066192,7.77416667 C18.2248589,9.02791667 16.3545725,10.4675 14.6370469,12.06875 C13.2126567,13.3970833 11.8873544,14.8354167 10.6776549,16.3675 C9.17069131,18.2791667 7.84538908,20.3366667 6.72652022,22.5041667 C5.92555875,24.0591667 5.23194263,25.6704167 4.6539292,27.3233333 C4.34427915,28.20375 4.06765844,29.0954167 3.82406706,29.9966667 C3.59286169,30.8491667 3.39055699,31.71 3.22128162,32.5766667 C2.76299955,34.91875 2.52353684,37.305 2.5028935,39.6927917 C2.49463617,40.911375 2.54005151,42.130625 2.64739686,43.344625 C2.70106953,43.9829583 2.77538555,44.6198333 2.86208756,45.2545833 C3.05200626,46.64275 3.31624097,48.0205 3.65892037,49.3785833 C3.8447104,50.116 4.05527243,50.847875 4.28234914,51.5725833 C4.49291118,52.2375 4.72411655,52.8965417 4.97183659,53.5486667 C5.32277332,54.4846667 5.71499672,55.4062917 6.14437812,56.3108333 C7.13525829,58.4165417 8.3243145,60.42825 9.68264606,62.3147917 C10.9707903,64.0990417 12.4075665,65.7703333 13.9805888,67.3043333 C15.7022431,68.9852917 17.5807867,70.5010833 19.5831904,71.8245833 C21.4906348,73.0837083 23.5095531,74.1677917 25.6110448,75.0575833 C26.6555976,75.4995417 27.7207938,75.8938333 28.798376,76.238375 C30.0947776,76.6517917 31.4118225,76.9939167 32.7412533,77.262625 C33.9592102,77.5083333 35.1895531,77.6927083 36.4240246,77.8155833 C37.6254668,77.9348333 38.8310377,77.9959167 40.0366086,77.9997917 C42.4436217,78.007625 44.8547634,77.7851667 47.2246185,77.3306667 C49.7100763,76.8535 52.1501187,76.1204167 54.4869444,75.1465 C56.4728334,74.3202083 58.3885351,73.3209167 60.2051487,72.1647917 C62.3396697,70.804 64.3420734,69.22575 66.1710731,67.462625 C67.6532647,66.0299583 69.0239822,64.4760417 70.2584538,62.819875 C70.8818825,61.9821667 71.472282,61.1187083 72.0296521,60.2319167 C72.7851982,59.0175 73.4788143,57.7599167 74.0939858,56.466625 C74.8866899,54.813375 75.555534,53.102125 76.1005181,51.3505417 C76.7115609,49.38 77.1615856,47.3585833 77.442335,45.3137083 C77.5868384,44.2800417 77.690055,43.2405 77.7478564,42.1985 C77.8015291,41.2823333 77.8180437,40.3644583 77.8056577,39.4469167 C77.7726284,37.1608333 77.5372943,34.8775 77.1037843,32.6345833 C76.8147776,31.1554167 76.4390688,29.6941667 75.9766581,28.2604167 C75.357358,26.3341667 74.5811685,24.4583333 73.6646044,22.6575 C73.1609069,21.6708333 72.6159228,20.7066667 72.0296521,19.7679167 C71.472282,18.88125 70.8818825,18.0179167 70.2584538,17.18 C69.1024269,15.63 67.8307974,14.17 66.4559511,12.8145833 C64.8086128,11.1929167 63.0167712,9.72208333 61.1051982,8.42875 C59.3587719,7.24416667 57.5132576,6.20708333 55.5934273,5.33416667 C54.230967,4.71458333 52.8313488,4.17708333 51.4028299,3.72666667 C50.011469,3.2875 48.5994647,2.93083333 47.1668171,2.65833333 C45.7465556,2.38833333 44.313908,2.20125 42.8730031,2.0975 C42.3115043,2.05708333 41.7500056,2.02916667 41.1885068,2.01416667 C40.9242721,2.00666667 40.664166,2.0025 40.3999313,2.00083333 C40.2967146,2 40.1976266,2 40.0944099,2 Z" id="Fill-18"></path>
                        <path d="M40.1852406,41.9920417 C40.3503873,41.9936667 40.5196627,42.0043333 40.6848094,42.02575 C41.0027168,42.0663333 41.3123668,42.14375 41.6137595,42.2562083 C42.1091996,42.4429167 42.5674817,42.726 42.9555764,43.0849167 C43.3725718,43.4654167 43.7111226,43.929875 43.9423279,44.4439167 C44.1074746,44.8050833 44.2230773,45.1897917 44.2808787,45.5830833 C44.3469373,46.0541667 44.3345513,46.537125 44.2478493,47.0044583 C44.15289,47.4965833 43.9670999,47.9702917 43.7069939,48.3972083 C43.5046892,48.7292917 43.2569691,49.032625 42.9720911,49.29625 C42.8895177,49.3724583 42.8028157,49.445375 42.7161137,49.51475 C42.6665697,49.552625 42.6170257,49.58925 42.5674817,49.6251667 C42.5674817,50.8853333 42.575739,52.1455 42.5674817,53.405625 C42.5674817,53.4521667 42.563353,53.4985833 42.5592244,53.5448333 C42.5468384,53.6346667 42.526195,53.7232083 42.4972943,53.80825 C42.4353643,53.9785417 42.3321477,54.134 42.204159,54.2607083 C42.0802989,54.3840833 41.9275383,54.4795417 41.7623916,54.53825 C41.6798182,54.5684167 41.5889875,54.588875 41.5022855,54.5992083 C41.4609988,54.6039167 41.4197122,54.60625 41.3784255,54.6070417 C40.565078,54.61225 39.7476019,54.61225 38.9342544,54.6070417 C38.8888391,54.6061667 38.8434237,54.60325 38.7980084,54.5973333 C38.7071777,54.5859167 38.6204757,54.564375 38.5337737,54.5332083 C38.368627,54.4708333 38.2117376,54.3697917 38.0878776,54.2400417 C37.9640176,54.1137083 37.8690582,53.96075 37.8112569,53.7942083 C37.7823562,53.7086667 37.7617129,53.6197083 37.7534555,53.5295833 C37.7451982,53.4831667 37.7451982,53.4365833 37.7451982,53.389875 L37.7451982,49.6251667 C37.7204262,49.6072083 37.7204262,49.60725 37.6956542,49.5890833 C37.6708822,49.57075 37.6708822,49.5707917 37.6461102,49.55225 C37.5965662,49.5149167 37.5511508,49.4769167 37.5016068,49.4376667 C37.4149048,49.36575 37.3323315,49.2904167 37.2538868,49.2118333 C36.9772661,48.9398333 36.7378034,48.6290833 36.543756,48.2909583 C36.296036,47.8551667 36.1226319,47.3746667 36.0441872,46.878375 C35.9698712,46.4159583 35.9698712,45.9407083 36.0483159,45.4789583 C36.1143746,45.0967083 36.2341059,44.724 36.3992526,44.374625 C36.6387153,43.872875 36.9813947,43.420875 37.3942615,43.0511667 C37.7740989,42.7082083 38.219995,42.437 38.6989204,42.2562083 C39.0003131,42.14375 39.3099631,42.0663333 39.6278705,42.02575 C39.7930172,42.0043333 39.9622926,41.9936667 40.1274393,41.9920417 C40.1480826,41.992 40.1645973,41.992 40.1852406,41.9920417 Z M40.1398253,43.992 C40.0448659,43.9929583 39.9457779,43.9997917 39.8466899,44.0135 C39.6939292,44.0354167 39.5411685,44.0746667 39.3925365,44.13 C39.0622431,44.2543333 38.764979,44.4614583 38.529645,44.7258333 C38.4140423,44.8579167 38.3108256,45.0044167 38.2282523,45.1609167 C38.1291643,45.3462083 38.0589769,45.546125 38.0176902,45.7520833 C37.9598889,46.0269583 37.9557602,46.313375 38.0053042,46.5895417 C38.0507196,46.8475833 38.1456789,47.09625 38.2777963,47.3214583 C38.3892703,47.5117917 38.529645,47.6847917 38.6947917,47.8333333 C38.7567217,47.8930417 38.8269091,47.9481667 38.8970964,48.0000417 L38.9796697,48.06025 C39.0457284,48.1172083 39.0622431,48.13025 39.1283018,48.1921667 C39.1984891,48.2618333 39.2645478,48.3368333 39.3223491,48.416375 C39.5040105,48.65525 39.6278705,48.9345833 39.6856719,49.2284167 C39.7063152,49.3262917 39.7187012,49.425625 39.7228299,49.525375 C39.7269585,49.558625 39.7269585,49.5919167 39.7269585,49.6251667 L39.7269585,52.607125 L40.5857214,52.607125 L40.5857214,49.6251667 C40.5857214,49.5919167 40.5857214,49.558625 40.58985,49.525375 C40.5939787,49.425625 40.6063647,49.3262917 40.627008,49.2284167 C40.664166,49.0326667 40.7343534,48.8430417 40.8293127,48.6676667 C40.9077574,48.5215417 41.0027168,48.3855 41.1183194,48.2635833 C41.1843781,48.1904583 41.2586941,48.1224167 41.3330101,48.06025 C41.3742968,48.02775 41.4155835,47.997875 41.4568702,47.9669167 C41.4692562,47.9573333 41.4857708,47.9477083 41.4981568,47.9379167 C41.5807302,47.87075 41.6591749,47.798125 41.7376196,47.7195833 C41.8697369,47.57925 41.9853396,47.4209167 42.0761703,47.2504583 C42.2000303,47.024875 42.2826036,46.7777083 42.315633,46.5233333 C42.3610483,46.231625 42.3445337,45.9310417 42.2743463,45.6454167 C42.216545,45.4299167 42.129843,45.2228333 42.0142403,45.0342083 C41.9151522,44.8795 41.8036782,44.736875 41.6715609,44.610125 C41.4568702,44.400625 41.2008928,44.2354583 40.9201434,44.13 C40.7756401,44.0762083 40.627008,44.03775 40.478376,44.0154167 C40.3751593,44.000375 40.2719426,43.993 40.1728546,43.992 L40.1398253,43.992 Z" id="Fill-19"></path>
                        <path d="M45.4823209,21.1879167 C45.6433389,21.1895833 45.8043569,21.1991667 45.9612463,21.2183333 C46.262639,21.255 46.5557744,21.325 46.8406524,21.42625 C47.1379165,21.53125 47.4186659,21.6695833 47.6829006,21.8383333 C47.9595213,22.0141667 48.2154987,22.2229167 48.4425754,22.4583333 C48.6572661,22.6816667 48.8513134,22.9291667 49.0123315,23.195 C49.1733495,23.45625 49.3013382,23.7354167 49.4004262,24.0254167 C49.4995142,24.3141667 49.5697016,24.61375 49.6027309,24.9170833 C49.6192456,25.0775 49.6316316,25.23875 49.6316316,25.4004167 L49.6316316,38.0379167 L30.6810483,38.0379167 C30.6810483,33.81625 30.6686623,29.5945833 30.6810483,25.3733333 C30.685177,25.2116667 30.6934343,25.0508333 30.7140777,24.8904167 C30.747107,24.5875 30.8172943,24.28875 30.920511,24.00125 C31.0195991,23.7116667 31.1517164,23.43375 31.3127344,23.1733333 C31.4820098,22.9016667 31.6801858,22.6491667 31.9072625,22.4220833 C32.1302106,22.1954167 32.3820593,21.9945833 32.6504227,21.8245833 C32.9064,21.6620833 33.1830208,21.5283333 33.4720275,21.42625 C33.7569055,21.325 34.0500409,21.255 34.3514336,21.2183333 C34.508323,21.1991667 34.669341,21.1895833 34.830359,21.1879167 C38.381013,21.1766667 41.9316669,21.1766667 45.4823209,21.1879167 Z M34.8592597,23.1879167 C34.768429,23.1883333 34.6775983,23.1929167 34.5908963,23.2041667 C34.421621,23.2241667 34.2606029,23.26375 34.1037136,23.3216667 C33.7692915,23.4458333 33.4637701,23.6545833 33.2243074,23.9233333 C33.0343887,24.1391667 32.881628,24.3920833 32.7866687,24.6658333 C32.7412533,24.8029167 32.7040953,24.945 32.6875807,25.0891667 C32.671066,25.1929167 32.6628087,25.2975 32.6628087,25.4025 L32.6628087,36.0379167 L47.6498712,36.0379167 C47.6498712,32.4820833 47.6787719,28.9258333 47.6498712,25.37 C47.6457426,25.2620833 47.6374852,25.1541667 47.6209706,25.0475 C47.5961986,24.9041667 47.5631692,24.7633333 47.5094965,24.6270833 C47.3773792,24.26375 47.1461738,23.9391667 46.8489098,23.6929167 C46.6548624,23.5308333 46.4319144,23.4029167 46.1965803,23.3170833 C46.0479483,23.2629167 45.8951876,23.2258333 45.7382982,23.2058333 C45.6474676,23.1945833 45.5607655,23.18875 45.4699349,23.1879167 C41.9316669,23.17625 38.3975276,23.1879167 34.8592597,23.1879167 Z" id="Fill-20"></path>
                        <path d="M51.0188638,36.0379167 C51.1138232,36.03875 51.2046538,36.0408333 51.2954845,36.045 C51.4606312,36.0525 51.6257779,36.0654167 51.7909246,36.0845833 C52.319394,36.1458333 52.8396061,36.2666667 53.3433035,36.4454167 C53.9419603,36.6583333 54.5117164,36.9525 55.0319285,37.3170833 C55.5356259,37.6691667 55.993908,38.0870833 56.3902601,38.5568333 C56.6875241,38.9072917 56.9517588,39.286375 57.1788355,39.6875417 C57.3935262,40.0683333 57.5710589,40.4687917 57.7155623,40.8825417 C57.8889663,41.3904583 58.004569,41.918125 58.0623703,42.4524167 C58.0830137,42.6497083 58.0953997,42.847875 58.0995284,43.0462083 C58.103657,43.0928333 58.103657,43.1395 58.103657,43.186125 C58.1119144,46.6645417 58.103657,50.143 58.103657,53.6214167 C58.103657,53.6821667 58.103657,53.7429167 58.0995284,53.8036667 C58.0953997,54.002 58.0830137,54.2002083 58.0623703,54.3974583 C58.004569,54.9168333 57.893095,55.42975 57.7279483,55.9245833 C57.5215149,56.5454583 57.2283795,57.1371667 56.8609281,57.677875 C56.4893481,58.2230417 56.043452,58.7165 55.5438833,59.14025 C55.1599172,59.4642917 54.7387931,59.7475833 54.2970257,59.9834167 C53.9915043,60.147 53.6694683,60.287875 53.3433035,60.4044583 C52.8437348,60.5830417 52.319394,60.7042083 51.7909246,60.76525 C51.6257779,60.7842917 51.4606312,60.7975417 51.2954845,60.8049583 C51.2046538,60.8090417 51.1138232,60.8110833 51.0229925,60.8119583 C43.7936959,60.835875 36.5643993,60.812125 29.3351028,60.812125 C29.2442721,60.8118333 29.1534414,60.8103333 29.0626107,60.806875 C28.8809494,60.7999167 28.7034167,60.7860417 28.5217553,60.76525 C28.0221865,60.7075417 27.5267465,60.5961667 27.0519497,60.43325 C26.6555976,60.297375 26.2675029,60.1258333 25.9000515,59.9215 C25.5119568,59.7055833 25.1445054,59.4527917 24.801826,59.168 C24.2981286,58.7472083 23.8522325,58.2563333 23.4765238,57.71325 C23.1173297,57.1872917 22.8241943,56.6123333 22.6136323,56.0085 C22.4360996,55.502125 22.3163682,54.9756667 22.2544382,54.4422083 C22.2379235,54.276 22.2255375,54.1090833 22.2172802,53.9419583 C22.2131515,53.84975 22.2090229,53.7575 22.2090229,53.6652083 C22.2007655,50.1862917 22.2090229,46.707375 22.2090229,43.2284167 C22.2090229,43.152625 22.2090229,43.0768333 22.2131515,43.0010833 C22.2172802,42.8027917 22.2337949,42.60475 22.2544382,42.4076667 C22.3122396,41.918125 22.4154562,41.4344167 22.5723456,40.96675 C22.7829076,40.317125 23.0925577,39.6989167 23.4765238,39.1365833 C23.8522325,38.5935833 24.2981286,38.1029167 24.801826,37.6820833 C25.4458981,37.14625 26.1808009,36.7254167 26.9693764,36.4454167 C27.4689451,36.2666667 27.9932859,36.1458333 28.5217553,36.0845833 C28.686902,36.0654167 28.8520487,36.0525 29.0171954,36.045 C29.1080261,36.0408333 29.1988567,36.03875 29.2938161,36.0379167 C36.5354987,36.0166667 43.7771812,36.0166667 51.0188638,36.0379167 Z M29.3392314,38.0379167 C29.2731728,38.0379167 29.2029854,38.0391667 29.1369267,38.0416667 C29.008938,38.0466667 28.8768207,38.0566667 28.748832,38.0716667 C28.3772519,38.1145833 28.0098005,38.1983333 27.6588638,38.32125 C27.3037984,38.44475 26.961119,38.6079167 26.6432116,38.8064583 C26.3170469,39.0084167 26.0156542,39.246875 25.7431621,39.5158333 C25.4541554,39.79925 25.2023067,40.1165 24.987616,40.4592917 C24.7811826,40.78775 24.6119073,41.1395833 24.4839186,41.5062083 C24.3600586,41.8609583 24.2733566,42.2293333 24.2279412,42.60275 C24.2114266,42.7338333 24.2031692,42.8655417 24.1949119,42.9974583 C24.1949119,43.0642083 24.1907832,43.1309583 24.1907832,43.1977917 C24.1783972,46.6825417 24.1783972,50.1673333 24.1907832,53.6520833 C24.1907832,53.718875 24.1949119,53.7856667 24.1949119,53.8524167 C24.2031692,53.9843333 24.2114266,54.116 24.2279412,54.247125 C24.2733566,54.6205417 24.3600586,54.9889167 24.4839186,55.3436667 C24.6077786,55.7004583 24.7687966,56.0432083 24.9711013,56.3640417 C25.1775347,56.699375 25.4211261,57.0106667 25.6977468,57.2902083 C25.9743675,57.5697917 26.2840176,57.8175 26.6184396,58.0269167 C26.936347,58.2272917 27.2748977,58.3925 27.6299631,58.51825 C27.9808999,58.6432917 28.3442226,58.72925 28.7158027,58.774375 C28.8437913,58.7902083 28.9759087,58.8010833 29.1038974,58.8069167 C29.1699561,58.809875 29.2360147,58.811375 29.3062021,58.812 C36.5396273,58.8351667 43.7730526,58.8351667 51.0064778,58.812 C51.0766652,58.811375 51.1427238,58.809875 51.2087825,58.8069167 C51.3367712,58.8010833 51.4688886,58.7902083 51.5968772,58.774375 C51.9684573,58.72925 52.33178,58.6432917 52.6827168,58.51825 C53.0377822,58.3925 53.3763329,58.2272917 53.6942403,58.0269167 C54.0286623,57.8175 54.3383124,57.5697917 54.6149331,57.2902083 C54.8915538,57.0106667 55.1351452,56.699375 55.3415785,56.3640417 C55.5438833,56.0432083 55.7049013,55.7004583 55.8287613,55.3436667 C55.9526213,54.9889167 56.0393233,54.6205417 56.0847387,54.247125 C56.1012533,54.116 56.1095107,53.9843333 56.117768,53.8524167 C56.117768,53.7856667 56.1218967,53.718875 56.1218967,53.6520833 C56.1342827,50.1673333 56.1342827,46.6825417 56.1218967,43.1977917 C56.1218967,43.1309583 56.117768,43.0642083 56.117768,42.9974583 C56.1095107,42.8655417 56.1012533,42.7338333 56.0847387,42.60275 C56.0393233,42.2293333 55.9526213,41.8609583 55.8287613,41.5062083 C55.7049013,41.1494167 55.5438833,40.8066667 55.3415785,40.4857917 C55.1351452,40.1504583 54.8915538,39.8392083 54.6149331,39.559625 C54.3383124,39.2800833 54.0286623,39.032375 53.6942403,38.8229583 C53.3763329,38.6225833 53.0377822,38.457375 52.6827168,38.3316667 C52.33178,38.2066667 51.9684573,38.1204167 51.5968772,38.0754167 C51.4688886,38.0595833 51.3367712,38.04875 51.2087825,38.0429167 C51.1427238,38.04 51.0766652,38.0383333 51.0064778,38.0379167 C43.7854386,38.0145833 36.5602707,38.0379167 29.3392314,38.0379167 Z" id="Fill-21"></path>
                    </g>
                </g>
            </g>
        </g>
    </g>
</svg>