<?xml version="1.0" encoding="UTF-8"?>
<svg width="80px" height="80px" viewBox="0 0 80 80" version="1.1" xmlns="http://www.w3.org/2000/svg" xmlns:xlink="http://www.w3.org/1999/xlink">
    <!-- Generator: Sketch 43.1 (39012) - http://www.bohemiancoding.com/sketch -->
    <title>boot_items</title>
    <desc>Created with Sketch.</desc>
    <defs></defs>
    <g id="Page-1" stroke="none" stroke-width="1" fill="none" fill-rule="evenodd">
        <g id="系统检测" transform="translate(-591.000000, -259.000000)" fill="#03A9F4">
            <g id="table" transform="translate(264.000000, 227.000000)">
                <g id="threats" transform="translate(49.000000, 32.000000)">
                    <g id="boot_items" transform="translate(278.000000, 0.000000)">
                        <path d="M39.9076544,0 C40.184688,0.000833333333 40.4617216,0.00375 40.7383423,0.01 C41.2886936,0.0225 41.8382193,0.04625 42.387332,0.08125 C43.8856254,0.177083333 45.3781387,0.35875 46.8557887,0.625416667 C48.4077548,0.905416667 49.9427933,1.27916667 51.4497569,1.745 C52.9748866,2.21666667 54.4715286,2.78166667 55.9289481,3.43625 C57.9363062,4.33791667 59.8685225,5.40916667 61.6999994,6.63416667 C63.56946,7.88458333 65.3336395,9.295 66.968179,10.8445833 C68.6155172,12.40625 70.131151,14.1091667 71.4931984,15.9295833 C72.8490528,17.7420833 74.0525593,19.6708333 75.085139,21.68875 C75.952572,23.38375 76.6990351,25.1416667 77.3162709,26.9445833 C77.9227721,28.7158333 78.4045876,30.5308333 78.7575886,32.3708333 C79.2389913,34.8829167 79.4788668,37.44125 79.4788668,40 C79.4788668,41.8277083 79.3566583,43.655375 79.1110026,45.46625 C78.8409877,47.4589583 78.4206894,49.430875 77.855062,51.3594583 C77.2650754,53.3704583 76.5169609,55.3339167 75.6198014,57.2258333 C74.6045621,59.368 73.3989913,61.4179583 72.0233193,63.3447083 C70.6323713,65.2933333 69.0680192,67.115625 67.355448,68.78325 C65.5706251,70.5215417 63.6243713,72.0915 61.5505416,73.4651667 C59.5113928,74.8157917 57.3487968,75.9762917 55.0982603,76.9253333 C52.6214727,77.969875 50.0389913,78.7574167 47.40325,79.2719583 C44.9351327,79.7538333 42.4216,79.9959167 39.9076544,79.9999583 C37.3924702,80.0039583 34.8764603,79.7697917 32.4054529,79.2954583 C29.7672345,78.7890833 27.1814501,78.009375 24.7005339,76.9721667 C22.4466943,76.029875 20.2799697,74.8757917 18.2366922,73.5310833 C16.1583211,72.1636667 14.2079386,70.5995 12.4173356,68.8664583 C10.7002228,67.2040417 9.13050346,65.3865417 7.73377529,63.4421667 C6.35273605,61.5199167 5.14138504,59.4739167 4.11953987,57.3352083 C3.21701318,55.4465833 2.46311852,53.4860417 1.86693895,51.4774583 C1.29553138,49.5515417 0.869865778,47.5818333 0.593245064,45.590875 C0.336029087,43.7392917 0.208453265,41.869625 0.208453265,40 C0.208453265,37.4829167 0.440484371,34.96625 0.906610918,32.4933333 C1.25383184,30.65125 1.73028006,28.8345833 2.33141403,27.0604167 C2.9436954,25.255 3.68479119,23.4945833 4.54726981,21.79625 C5.57365652,19.775 6.77179579,17.8425 8.12269575,16.0254167 C9.47937585,14.20125 10.9900552,12.4933333 12.632852,10.9266667 C14.262437,9.3725 16.0224879,7.95708333 17.8878198,6.70083333 C19.715168,5.47083333 21.6440814,4.39375 23.6485494,3.48583333 C25.1030789,2.82708333 26.5976565,2.2575 28.1211348,1.78125 C29.626034,1.31125 31.1594211,0.932083333 32.7093228,0.6475 C34.1853214,0.37625 35.6765961,0.19 37.1736509,0.0895833333 C37.7223508,0.0525 38.2714635,0.0270833333 38.821402,0.0129166667 C39.0980227,0.00583333333 39.3746434,0.00208333333 39.651677,0.000416666667 C39.7367276,0 39.822191,0 39.9076544,0 Z M39.7825558,2 C39.0563232,2.00166667 38.3300906,2.02333333 37.6050966,2.06625 C36.1216664,2.15416667 34.6431906,2.33 33.1804038,2.59416667 C31.8018417,2.84291667 30.4369043,3.17 29.0946745,3.57291667 C27.5505529,4.03708333 26.0361578,4.60208333 24.5642878,5.26333333 C22.6229884,6.13541667 20.7551793,7.17458333 18.9876968,8.36458333 C17.1834692,9.57958333 15.4836968,10.9508333 13.9119131,12.45875 C12.2179209,14.08375 10.6737993,15.8666667 9.30473322,17.7779167 C8.19577317,19.32625 7.20282866,20.9591667 6.33663425,22.6575 C5.44484209,24.4066667 4.6888831,26.2266667 4.07784033,28.0945833 C3.57290431,29.6370833 3.16788204,31.2133333 2.86442499,32.80875 C2.41811604,35.1570833 2.1939294,37.5475 2.1902136,39.9385417 C2.18732354,41.7159583 2.30622916,43.4935417 2.5477562,45.2542083 C2.79134757,47.0298333 3.16003757,48.7880833 3.65134899,50.5107917 C4.22358229,52.5184167 4.96137515,54.4780417 5.85481876,56.3624583 C6.27305277,57.2440833 6.72472898,58.1095 7.20902166,58.9559167 C7.77630056,59.94775 8.38816907,60.9136667 9.04173711,61.8499583 C10.4310337,63.8402917 12.0098361,65.6956667 13.7484179,67.3835833 C15.3656169,68.9537083 17.1211263,70.37825 18.9876968,71.635375 C21.0095052,72.9967917 23.1617795,74.160125 25.4057102,75.1022083 C27.6694586,76.0526667 30.025689,76.7774583 32.4302249,77.262625 C33.6477689,77.5083333 34.8772861,77.6927083 36.1129962,77.8155833 C37.3524222,77.938875 38.5980411,78 39.8436601,78 C41.089279,78 42.3348979,77.9388333 43.5743239,77.8155833 C44.6931927,77.7043333 45.8071072,77.542625 46.9115257,77.3306667 C49.435793,76.8462917 51.9092776,76.098375 54.281197,75.1022917 C56.4206724,74.203875 58.4767488,73.104625 60.4159838,71.8244583 C62.3886611,70.522125 64.2399556,69.0329167 65.9389022,67.3835833 C67.6366102,65.7352917 69.1819704,63.9272917 70.5473207,61.989875 C71.7883981,60.229125 72.8804306,58.3622083 73.8077293,56.4145417 C74.7036502,54.5316667 75.4447459,52.573625 76.0198693,50.5670833 C76.5190252,48.8263333 76.8934953,47.0492083 77.1395639,45.2542083 C77.383981,43.4732917 77.5024738,41.675 77.4971065,39.877125 C77.489262,37.5066667 77.2654883,35.1370833 76.8228951,32.80875 C76.5194381,31.2133333 76.1144158,29.6370833 75.6094798,28.0945833 C75.0219704,26.2991667 74.3011051,24.54875 73.4543154,22.8625 C72.504309,20.97125 71.3970005,19.1608333 70.1484914,17.455 C68.8273179,15.65 67.3480164,13.9633333 65.7345332,12.4195833 C64.0917364,10.8483333 62.3098036,9.42583333 60.415571,8.17541667 C58.7323133,7.06375 56.9607021,6.08916667 55.1230323,5.26333333 C53.5805621,4.57041667 51.9914381,3.98291667 50.3701104,3.50708333 C49.0997194,3.13375 47.8095109,2.82916667 46.5069163,2.59416667 C45.1622094,2.35125 43.8047035,2.18291667 42.4418304,2.08916667 C41.8803317,2.05041667 41.3175943,2.02458333 40.7552698,2.01083333 C40.4716304,2.00416667 40.1884038,2.00083333 39.9047643,2 L39.7825558,2 Z" id="Fill-34"></path>
                        <path d="M45.6481535,21.5591667 C45.8715144,21.6279167 46.0936367,21.7 46.3145204,21.7766667 C46.7703253,21.9341667 47.2207629,22.1083333 47.6637689,22.2991667 C48.7235978,22.7554167 49.7437915,23.3045833 50.7098997,23.9383333 C51.9835936,24.77375 53.1623281,25.7558333 54.2167898,26.8591667 C55.1696862,27.8558333 56.0214303,28.95125 56.7530301,30.1233333 C57.3500354,31.0795833 57.8673575,32.0866667 58.2971517,33.1304167 C58.7137343,34.1429167 59.0481563,35.19 59.2950506,36.2575 C59.7880135,38.3895417 59.9316912,40.602375 59.7260835,42.7815417 C59.6311242,43.7865833 59.4614359,44.7844583 59.2178446,45.7637083 C58.9445268,46.8628333 58.5787269,47.9385417 58.1249863,48.9751667 C57.6774388,49.997625 57.1456664,50.9821667 56.536688,51.9156667 C55.7997209,53.04475 54.9508668,54.098875 54.0062277,55.0575833 C53.1891645,55.887125 52.3010881,56.64525 51.3543847,57.3204583 C50.204138,58.1412083 48.9676021,58.839125 47.6716134,59.3972917 C46.4090669,59.9411667 45.0907834,60.3522917 43.7440121,60.6218333 C42.4604094,60.87875 41.1520347,61.0068333 39.8436601,61.0068333 C38.4935858,61.0068333 37.1439245,60.8704167 35.8210994,60.597 C34.5168534,60.3274167 33.2402695,59.92475 32.0157067,59.3972917 C30.8303663,58.8867083 29.6945699,58.25925 28.6289609,57.5277917 C27.5711963,56.80175 26.5827933,55.973125 25.6810924,55.0575833 C24.8070535,54.170625 24.0147622,53.2019583 23.3178432,52.1677083 C22.6386774,51.1598333 22.0499294,50.0900833 21.5623338,48.975 C21.1420354,48.014375 20.7968789,47.020375 20.5309927,46.005125 C20.2547848,44.9485833 20.0640404,43.869375 19.9612366,42.7815417 C19.7589319,40.636375 19.894765,38.4582917 20.3695618,36.3570833 C20.6115017,35.2875 20.9401436,34.2383333 21.3521846,33.2233333 C21.7584455,32.2229167 22.2443896,31.2558333 22.8046498,30.3341667 C23.5903352,29.0404167 24.5213497,27.8370833 25.5729213,26.7529167 C26.5893992,25.7045833 27.7194154,24.7679167 28.9361337,23.9654167 C29.9835766,23.2745833 31.0954268,22.6829167 32.2526922,22.2020833 C32.6217951,22.0491667 32.9954395,21.9070833 33.3727997,21.77625 C33.5779944,21.7054167 33.7848407,21.6379167 33.9925126,21.57375 C34.30753,21.52125 34.3855618,21.4779167 34.651448,21.5704167 C34.7492974,21.6045833 34.8426053,21.6545833 34.9251786,21.7175 C35.007752,21.7804167 35.0812422,21.8570833 35.1402822,21.9429167 C35.1993221,22.0283333 35.2459761,22.1241667 35.2761153,22.2241667 C35.3372196,22.4258333 35.3330909,22.6425 35.2649679,22.8420833 C35.2311129,22.9404167 35.181156,23.035 35.119226,23.1179167 C35.0568831,23.20125 34.9805028,23.2754167 34.8958651,23.3354167 C34.8112274,23.395 34.7109008,23.4283333 34.61718,23.4720833 C34.5296523,23.4991667 34.4863013,23.5129167 34.4433631,23.52625 C34.3859747,23.5445833 34.328999,23.5633333 34.2716106,23.5820833 C34.0721959,23.6479167 33.8731942,23.7166667 33.6758439,23.7895833 C33.32532,23.91875 32.9785119,24.0595833 32.6366583,24.2104167 C31.646191,24.6483333 30.6953589,25.1775 29.7990252,25.7879167 C28.786676,26.4775 27.8436883,27.2708333 26.9890542,28.1516667 C26.1240984,29.04375 25.3491475,30.025 24.6823677,31.07625 C24.1303649,31.9458333 23.6518523,32.8625 23.2546745,33.8141667 C22.8401563,34.8079167 22.5139916,35.8391667 22.2815476,36.8916667 C21.8579464,38.8137083 21.747711,40.8052083 21.9512543,42.7634583 C22.0470393,43.684875 22.2125989,44.5987083 22.4471072,45.4944583 C22.7001945,46.4615 23.033378,47.4071667 23.442116,48.318375 C23.9202157,49.3845 24.5007064,50.403375 25.1728534,51.3569167 C25.7785289,52.2160833 26.4581076,53.0219167 27.2012677,53.7630417 C28.0728294,54.6323333 29.0319188,55.412125 30.0595441,56.0859583 C30.9575293,56.674875 31.9071228,57.1826667 32.8947,57.601 C34.0866463,58.1059167 35.3326781,58.4791667 36.6043076,58.7129583 C37.7107905,58.9162917 38.8358523,59.01375 39.9600885,59.0064583 C41.1004264,58.9990833 42.2399386,58.8839583 43.3583946,58.6600417 C44.6060779,58.41025 45.8273377,58.0255833 46.9940991,57.51425 C48.0254402,57.0622917 49.0138432,56.512125 49.943619,55.8740417 C50.9270676,55.1992083 51.8436318,54.4260833 52.6767968,53.5700417 C53.4467933,52.77875 54.1457767,51.91675 54.7609481,50.9977083 C55.3806611,50.07275 55.9153235,49.0902917 56.3558523,48.0662083 C56.7439471,47.164375 57.0585515,46.2305417 57.295537,45.2769167 C57.5242652,44.3579583 57.6803288,43.4208333 57.7637279,42.477125 C57.8805692,41.1503333 57.8541457,39.8105 57.6840446,38.4895417 C57.599407,37.83125 57.4788499,37.1779167 57.3227862,36.5333333 C57.0767177,35.5175 56.7431213,34.5233333 56.3265388,33.5658333 C55.9157364,32.6208333 55.4240121,31.7120833 54.8600362,30.8516667 C54.1536212,29.77375 53.333255,28.7720833 52.4175165,27.86875 C51.5963246,27.05875 50.6991652,26.3275 49.7409015,25.68875 C48.8383748,25.0866667 47.8817626,24.5670833 46.8863409,24.13875 C46.4875116,23.9670833 46.0820765,23.8104167 45.6720998,23.6683333 C45.5015858,23.6091667 45.3298333,23.5533333 45.1576678,23.4991667 L44.791455,23.3354167 C44.5965819,23.1454167 44.5144215,23.1104167 44.4223522,22.8420833 C44.38891,22.7433333 44.370331,22.6383333 44.3682666,22.53375 C44.3666152,22.4295833 44.3810655,22.32375 44.4112048,22.2241667 C44.472309,22.0220833 44.5953433,21.8445833 44.7621415,21.7175 C44.986741,21.54625 45.0742687,21.5633333 45.3409807,21.5158333 C45.4433716,21.5304167 45.5457626,21.5445833 45.6481535,21.5591667 Z" id="Fill-35"></path>
                        <path d="M39.9571984,16.80625 C39.9823833,16.81 40.0075681,16.8129167 40.0323402,16.8179167 C40.1066562,16.8325 40.1797336,16.8554167 40.2490952,16.8870833 C40.3646979,16.9391667 40.4699789,17.01375 40.5575066,17.1058333 C40.6632005,17.2166667 40.7424709,17.3516667 40.7882991,17.4979167 C40.8114197,17.5708333 40.82587,17.6466667 40.8316502,17.7229167 C40.8337145,17.7483333 40.8337145,17.77375 40.8345402,17.7995833 L40.8345402,33.1195833 C40.832063,33.1875 40.8333016,33.2045833 40.82298,33.2720833 C40.807291,33.3729167 40.7767389,33.4716667 40.7317364,33.5629167 C40.6755865,33.6775 40.5975547,33.7808333 40.5030082,33.8658333 C40.3894699,33.9679167 40.252811,34.0429167 40.1062433,34.08375 C39.9596756,34.1241667 39.8044377,34.1304167 39.65498,34.10125 C39.5554791,34.0816667 39.4592811,34.0466667 39.3701019,33.9979167 C39.2813356,33.9491667 39.2000008,33.88625 39.1298135,33.8129167 C39.0067792,33.68375 38.9192514,33.5216667 38.8787905,33.3470833 C38.8672302,33.2975 38.8593857,33.2470833 38.8556699,33.1958333 C38.8536056,33.1704167 38.8536056,33.145 38.8527799,33.1195833 L38.8527799,17.7995833 C38.8536056,17.77375 38.8536056,17.7483333 38.8556699,17.7229167 C38.8614501,17.6466667 38.8759004,17.5708333 38.899021,17.4979167 C38.9448492,17.3516667 39.0241196,17.2166667 39.1298135,17.1058333 C39.2350945,16.9954167 39.3655604,16.91 39.5088251,16.8583333 C39.5802511,16.8325 39.6545671,16.815 39.7301217,16.80625 C39.7970061,16.7983333 39.8143465,16.8 39.8816438,16.8 C39.9068287,16.8020833 39.9320135,16.8041667 39.9571984,16.80625 Z" id="Fill-36"></path>
                    </g>
                </g>
            </g>
        </g>
    </g>
</svg>