<?xml version="1.0" encoding="UTF-8"?>
<svg width="80px" height="80px" viewBox="0 0 80 80" version="1.1" xmlns="http://www.w3.org/2000/svg" xmlns:xlink="http://www.w3.org/1999/xlink">
    <!-- Generator: Sketch 43.2 (39069) - http://www.bohemiancoding.com/sketch -->
    <title>sensitive_area</title>
    <desc>Created with Sketch.</desc>
    <defs></defs>
    <g id="system_defense" stroke="none" stroke-width="1" fill="none" fill-rule="evenodd">
        <g id="系统检测_扫描前-copy-5" transform="translate(-447.000000, -688.000000)" fill="#EFA223">
            <g id="icons" transform="translate(446.000000, 513.000000)">
                <g id="Group">
                    <g id="sensitive_area" transform="translate(1.000000, 175.000000)">
                        <path d="M40.118172,0 C40.3947927,0.000833333333 40.6714134,0.00375 40.9480341,0.01 C41.4971469,0.0225 42.0462597,0.04625 42.5953724,0.08125 C44.0940787,0.177083333 45.5886563,0.35875 47.0625905,0.625416667 C48.6149694,0.905416667 50.1508337,1.27916667 51.6577973,1.745 C53.1854042,2.21666667 54.6799818,2.78166667 56.1374014,3.43625 C58.1439337,4.33791667 60.0761501,5.40916667 61.9092784,6.63416667 C63.7795647,7.88458333 65.5425057,9.295 67.177458,10.8445833 C68.8247962,12.40625 70.3400172,14.1091667 71.7024774,15.9295833 C73.0566803,17.7420833 74.2622512,19.6708333 75.294418,21.68875 C76.1614382,23.38375 76.908727,25.1416667 77.5238984,26.9445833 C78.1308125,28.7158333 78.6138666,30.5308333 78.9648033,32.3708333 C79.4478574,34.8829167 79.6873201,37.44125 79.6873201,40 C79.6873201,41.8277083 79.5634601,43.655375 79.3198687,45.46625 C79.0473767,47.4589583 78.6303813,49.430875 78.0647538,51.3594583 C77.4743544,53.3704583 76.7270656,55.3339167 75.8270161,57.2258333 C74.8113639,59.368 73.6057931,61.4179583 72.2309468,63.3447083 C70.8395859,65.2933333 69.274821,67.115625 67.5655527,68.78325 C65.7778397,70.5215417 63.8332374,72.0915 61.7606464,73.4651667 C59.7210847,74.8157917 57.557663,75.9762917 55.3075393,76.9253333 C52.8303388,77.969875 50.2457931,78.7574167 47.6117033,79.2719583 C45.1427602,79.7538333 42.6284018,79.9959167 40.118172,79.9999583 C37.5996849,80.0039583 35.0853265,79.7697917 32.6122547,79.2954583 C29.9740363,78.7890833 27.3894905,78.009375 24.9081614,76.9721667 C22.653909,76.029875 20.4904873,74.8757917 18.4467969,73.5310833 C16.3659486,72.1636667 14.4172176,70.5995 12.6257888,68.8664583 C10.9086761,67.2040417 9.33895672,65.3865417 7.94222855,63.4421667 C6.56118931,61.5199167 5.34942544,59.4739167 4.32799313,57.3352083 C3.42546644,55.4465833 2.67157178,53.4860417 2.07539221,51.4774583 C1.50398465,49.5515417 1.07831904,47.5818333 0.801698329,45.590875 C0.544482351,43.7392917 0.416906529,41.869625 0.416906529,40 C0.416906529,37.4829167 0.648937636,34.96625 1.11506418,32.4933333 C1.46228511,30.65125 1.93873332,28.8345833 2.53986729,27.0604167 C3.15214866,25.255 3.89324446,23.4945833 4.75572307,21.79625 C5.78210978,19.775 6.98024905,17.8425 8.33114902,16.0254167 C9.68782912,14.20125 11.1985085,12.4933333 12.8413053,10.9266667 C14.4708903,9.3725 16.2297026,7.95708333 18.0958602,6.70083333 C19.9248599,5.47083333 21.8529475,4.39375 23.8553512,3.48583333 C25.3127708,2.82708333 26.8073484,2.2575 28.3308266,1.78125 C29.8336616,1.31125 31.3695258,0.932083333 32.9177761,0.6475 C34.395839,0.37625 35.8862879,0.19 37.3808655,0.0895833333 C37.9299783,0.0525 38.479091,0.0270833333 39.0282038,0.0129166667 C39.3048245,0.00583333333 39.5814452,0.00208333333 39.8580659,0.000416666667 C39.944768,0 40.03147,0 40.118172,0 Z M39.9901833,2 C39.2635378,2.00166667 38.5368924,2.02333333 37.8143756,2.06625 C36.332184,2.15416667 34.8499924,2.33 33.3884442,2.59416667 C32.0466273,2.83583333 30.7213251,3.15166667 29.4125375,3.54 C27.8312579,4.01 26.278879,4.58625 24.7719154,5.26333333 C22.7447397,6.17458333 20.7960087,7.2675 18.9587517,8.52458333 C17.2453547,9.69916667 15.6227885,11.0170833 14.1199535,12.4591667 C12.3850875,14.1229167 10.8071108,15.9533333 9.41409847,17.9170833 C8.30100975,19.4866667 7.30641378,21.14125 6.44145796,22.8625 C5.59466828,24.54875 4.87380296,26.2991667 4.28629359,28.0945833 C3.78135757,29.6370833 3.3763353,31.2133333 3.07287825,32.80875 C2.61500904,35.2175 2.39123527,37.6704167 2.39866687,40.122875 C2.40403414,41.7988333 2.51715962,43.474625 2.74010766,45.1354583 C2.98617624,46.9708333 3.36560077,48.7879167 3.87590405,50.5670833 C4.44070575,52.536875 5.16487401,54.459625 6.03891289,56.3108333 C7.0491978,58.4509583 8.25972307,60.4939583 9.64654244,62.407125 C10.9148691,64.15675 12.3318277,65.7967917 13.8763622,67.3043333 C15.5278291,68.9187917 17.3279281,70.3815417 19.2436298,71.6668333 C20.2221239,72.32275 21.2295188,72.9329167 22.2616856,73.4939583 C23.3186245,74.067125 24.404464,74.5891667 25.5068182,75.0577083 C27.9138312,76.0761667 30.424061,76.839125 32.9838348,77.3306667 C34.0903176,77.542625 35.2009292,77.7042917 36.319798,77.8155833 C37.5212402,77.934875 38.7268111,77.9959167 39.932382,77.9997917 C42.4591264,78.008 44.9858708,77.7629167 47.4671999,77.262625 C48.8915902,76.9748333 50.2994657,76.6029583 51.6825693,76.1493333 C52.5950048,75.8501667 53.499183,75.5153333 54.3827178,75.146375 C56.7897308,74.146 59.0893986,72.8908333 61.2363056,71.4113333 C62.9331879,70.2420833 64.5392395,68.9330417 66.0255598,67.5017917 C67.8256587,65.7695417 69.4564824,63.8579583 70.8850013,61.8033333 C71.32264,61.1786667 71.7355067,60.5410417 72.1359875,59.8912917 C72.7924456,58.815625 73.395231,57.706625 73.9402151,56.5701667 C74.7948493,54.7974583 75.5091087,52.9570833 76.0788648,51.0715833 C76.6362349,49.2274583 77.0532303,47.340125 77.3215937,45.431875 C77.4702257,44.3994167 77.5734424,43.360875 77.6353724,42.3197917 C77.6807878,41.5882083 77.7014311,40.8554167 77.7055598,40.1225 C77.7096884,39.3687083 77.6890451,38.6148333 77.6477584,37.8620833 C77.6064717,37.1391667 77.5486704,36.4170833 77.4660971,35.6970833 C77.3587517,34.7291667 77.2142483,33.7654167 77.032587,32.8083333 C76.6775216,30.9458333 76.1820815,29.1108333 75.5545241,27.3233333 C75.0136686,25.7791667 74.3737252,24.2708333 73.6388224,22.81125 C72.5736262,20.7008333 71.3143827,18.6916667 69.8817351,16.8170833 C69.1427036,15.8533333 68.3623855,14.9254167 67.536652,14.0366667 C66.9421239,13.39875 66.3310811,12.7808333 65.6952664,12.185 C63.9405827,10.5370833 62.0331384,9.05791667 60.0018341,7.77416667 C58.5568005,6.85833333 57.0457082,6.0425 55.4892006,5.33416667 C53.895535,4.61 52.2564541,3.99916667 50.5802151,3.50708333 C49.3085856,3.13375 48.0163127,2.82916667 46.7157825,2.59416667 C45.4111236,2.35833333 44.0940787,2.19291667 42.7687764,2.0975 C42.2072777,2.05708333 41.6457789,2.02916667 41.0842802,2.01416667 C40.8200454,2.00666667 40.5599394,2.0025 40.2957047,2.00083333 C40.192488,2 40.0934,2 39.9901833,2 Z" id="Fill-22"></path>
                        <path d="M40.4814947,17.7379167 C40.7374721,17.7391667 40.9934495,17.7441667 41.2494269,17.75375 C41.7778963,17.7741667 42.3063657,17.81375 42.8307065,17.8729167 C44.263354,18.03375 45.6794869,18.3391667 47.0543332,18.7845833 C48.2681614,19.1795833 49.4530889,19.68375 50.5802151,20.29 C51.6949553,20.88875 52.7601515,21.58625 53.7551603,22.37125 C54.9689885,23.3283333 56.0837287,24.4154167 57.0704802,25.6083333 C58.0613604,26.80625 58.9242519,28.11 59.64264,29.4920833 C60.3610281,30.8745833 60.9307842,32.335 61.3395223,33.84 C61.7441317,35.3191667 61.9877231,36.84125 62.0744251,38.3724167 C62.0950684,38.6995 62.1033258,39.0269583 62.1074544,39.3545417 C62.1115831,39.4249167 62.1115831,39.4952917 62.1115831,39.5656667 C62.1115831,39.6335833 62.1115831,39.687625 62.1074544,39.758625 C62.1033258,39.842375 62.0909398,39.92575 62.0785538,40.0081667 C62.0290097,40.2555833 61.9381791,40.4935833 61.8060617,40.7063333 C61.6945877,40.8835833 61.554213,41.042875 61.393195,41.1767083 C61.2321769,41.3105417 61.0546442,41.4186667 60.8605969,41.4959583 C60.7037075,41.5577917 60.5426895,41.5999167 60.3775428,41.6209583 C60.2660688,41.635 60.2412968,41.63325 60.1298228,41.63675 L40.4113074,41.63675 C40.2998334,41.63325 40.2750614,41.635 40.1635873,41.621 C39.9984406,41.6 39.8374226,41.558 39.6805333,41.4963333 C39.4121699,41.3882917 39.1644498,41.2197917 38.9662738,41.005875 C38.7680978,40.7919167 38.6153371,40.5339167 38.5286351,40.2547917 C38.4873484,40.1352917 38.4625764,40.012125 38.4460617,39.8874167 C38.4336757,39.7765417 38.4336757,39.7483333 38.429547,39.63675 L38.429547,19.7379167 C38.4336757,19.62625 38.4336757,19.5979167 38.4460617,19.4870833 C38.466705,19.3204167 38.5079917,19.1570833 38.5699217,19.0008333 C38.6772671,18.7279167 38.8424138,18.48 39.0571045,18.27875 C39.2676665,18.0779167 39.5236439,17.9254167 39.8002646,17.835 C39.919996,17.79625 40.043856,17.76875 40.167716,17.7533333 C40.2750614,17.7395833 40.303962,17.74125 40.415436,17.7379167 L40.4814947,17.7379167 Z M40.4113074,39.63675 L60.1298228,39.63675 L60.1298228,39.5081667 C60.1256941,39.2309583 60.1215654,38.953875 60.1050507,38.677 C60.0802787,38.15125 60.0348634,37.62625 59.9729334,37.10375 C59.7995294,35.7558333 59.494008,34.42625 59.0522406,33.1420833 C58.5650578,31.715 57.9127284,30.345 57.1158956,29.0666667 C56.2860334,27.73375 55.2992819,26.5008333 54.1845417,25.40125 C53.1234742,24.3566667 51.946804,23.4320833 50.6834318,22.6516667 C49.4572176,21.8945833 48.14843,21.2733333 46.7900985,20.80375 C45.4978256,20.3570833 44.1560087,20.0479167 42.7976771,19.8825 C42.2815937,19.8191667 41.7572529,19.7766667 41.2370409,19.755 C40.9604201,19.74375 40.6879281,19.7383333 40.4113074,19.7379167 L40.4113074,39.63675 Z" id="Fill-23"></path>
                        <path d="M36.2372247,21.5741667 C36.4725587,21.7108333 36.5592607,21.725 36.7120214,21.9629167 C36.7698228,22.0504167 36.8111094,22.1483333 36.8400101,22.24875 C36.8936828,22.4529167 36.8812968,22.66875 36.8069808,22.86625 C36.7698228,22.9633333 36.7161501,23.0558333 36.6500914,23.1370833 C36.5881614,23.2179167 36.5097167,23.2895833 36.4230147,23.34625 C36.3363127,23.4033333 36.233096,23.4329167 36.1381366,23.47375 C36.1257506,23.4791667 36.109236,23.48125 36.09685,23.485 C36.0555633,23.49625 36.0142766,23.5079167 35.97299,23.5191667 C35.9151886,23.535 35.8615159,23.5504167 35.8078433,23.5666667 C35.6550826,23.6104167 35.5064505,23.6566667 35.3578185,23.7045833 C35.0068818,23.8179167 34.6600737,23.9433333 34.3173943,24.0804167 C33.3141282,24.4820833 32.34802,24.9833333 31.4397132,25.5745833 C30.8451851,25.96375 30.2713003,26.39125 29.7304449,26.85375 C28.8675534,27.5870833 28.0831066,28.4083333 27.3853618,29.3016667 C26.8156057,30.0316667 26.303651,30.8091667 25.8618836,31.6245833 C25.2797415,32.6991667 24.813202,33.8383333 24.47878,35.01625 C24.3012473,35.6441667 24.1608726,36.2825 24.0576559,36.9270833 C23.8718659,38.0529167 23.8058072,39.1974167 23.8553512,40.337 C23.8883805,41.199 23.9874686,42.0581667 24.1567439,42.9044167 C24.3260193,43.781 24.5696107,44.643375 24.8792607,45.4805833 C25.2384548,46.4469583 25.6843509,47.3794583 26.2128203,48.2625 C26.712389,49.0951667 27.2821451,49.8839167 27.9138312,50.6170833 C28.623962,51.4371667 29.4084088,52.1880417 30.263043,52.855125 C31.0887764,53.5045 31.9805686,54.0747083 32.9136474,54.5548333 C33.9210423,55.072 34.9821098,55.4842083 36.072078,55.7825 C37.1083735,56.0655833 38.1735697,56.2456667 39.2428945,56.3210417 C40.4980094,56.4095417 41.7655103,56.3555 43.0123678,56.1574167 C44.0569207,55.9907917 45.0890875,55.722 46.0840963,55.3554583 C47.2442519,54.9280417 48.3589921,54.3681667 49.3952876,53.6909167 C50.4480978,53.0044167 51.4224633,52.197375 52.2936121,51.291 C52.9830995,50.576 53.610657,49.7991667 54.1597697,48.9725417 C54.6469525,48.246625 55.0763339,47.48225 55.4437853,46.6886667 C55.7162773,46.0945 55.95574,45.4838333 56.1580447,44.861 C56.2158461,44.6835833 56.2736474,44.5052083 56.3231914,44.3259583 C56.3603494,44.20075 56.3933788,44.0750417 56.4264081,43.949125 L56.5543968,43.663375 C56.7360582,43.4603333 56.7690875,43.3763333 57.0291936,43.2747917 C57.1282816,43.2375 57.2314983,43.2153333 57.3347149,43.2099583 C57.4379316,43.2045833 57.5411483,43.2158333 57.6402363,43.242875 C57.743453,43.2699583 57.8384124,43.3135 57.9251144,43.3703333 C58.1026471,43.4855 58.2347644,43.6537083 58.3090804,43.8509167 C58.4081685,44.105125 58.3751391,44.2072083 58.3421098,44.468125 C58.3379811,44.4835417 58.3338524,44.498125 58.3297238,44.513125 C58.3255951,44.528625 58.3214664,44.544125 58.3173378,44.559625 C58.3008231,44.6220833 58.2843084,44.6844583 58.2677938,44.7467083 C58.2099924,44.948125 58.1480624,45.1485417 58.0861324,45.3479167 C57.8838277,45.9876667 57.644365,46.61625 57.3760016,47.23 C57.0291936,48.0115 56.6328415,48.7690417 56.1869454,49.4956667 C55.8153653,50.0974167 55.4107559,50.6777917 54.9772459,51.233625 C54.1473837,52.2932083 53.2060476,53.2615833 52.1697521,54.1182917 C51.2036439,54.918375 50.159091,55.6198333 49.0526082,56.208375 C48.1443014,56.692 47.1988365,57.099125 46.224471,57.42375 C45.0271575,57.8215 43.792686,58.0949583 42.5416997,58.2395833 C41.8522123,58.3195 41.1585962,58.3601667 40.4608514,58.3620417 C39.6186032,58.3643333 38.7722264,58.3092917 37.934107,58.1963333 C37.1125021,58.0855 36.2991547,57.9189583 35.5023219,57.6977083 C34.6765884,57.4700417 33.8714983,57.1846667 33.0870515,56.8444167 C32.2448033,56.4782917 31.4314558,56.0484583 30.6511377,55.5602917 C29.5116255,54.8485833 28.4546867,54.0125833 27.4927072,53.0722083 C26.761933,52.35475 26.0848316,51.5765417 25.4779175,50.7480833 C24.8049447,49.824125 24.2104166,48.8372917 23.7149765,47.8039167 C23.2608231,46.8605 22.8851144,45.8785 22.591979,44.8714167 C22.3525163,44.0324583 22.1667263,43.1763333 22.0469949,42.3114167 C21.8901055,41.2257917 21.8323042,40.126125 21.8653335,39.03 C21.8942342,38.2179167 21.9685502,37.4075 22.1006676,36.6054167 C22.2699429,35.5654167 22.5217916,34.5404167 22.864471,33.5441667 C23.2030218,32.5508333 23.6241458,31.5866667 24.1237146,30.6645833 C24.6191547,29.7520833 25.1889108,28.8816667 25.8288542,28.0641667 C26.5100843,27.1883333 27.2738878,26.3741667 28.0996213,25.6341667 C28.9253547,24.8925 29.8171469,24.225 30.7626117,23.6429167 C31.7287199,23.0475 32.7485007,22.5416667 33.8095682,22.1341667 C34.1935343,21.9854167 34.5857577,21.85 34.9821098,21.7279167 C35.1968005,21.6620833 35.4114912,21.6 35.6261819,21.5416667 L35.9317033,21.5091667 C36.03492,21.5308333 36.134008,21.5525 36.2372247,21.5741667 Z" id="Fill-24"></path>
                    </g>
                </g>
            </g>
        </g>
    </g>
</svg>