<svg id="漏洞" xmlns="http://www.w3.org/2000/svg" width="83" height="46" viewBox="0 0 83 46">
  <metadata><?xpacket begin="﻿" id="W5M0MpCehiHzreSzNTczkc9d"?>
<x:xmpmeta xmlns:x="adobe:ns:meta/" x:xmptk="Adobe XMP Core 5.6-c138 79.159824, 2016/09/14-01:09:01        ">
   <rdf:RDF xmlns:rdf="http://www.w3.org/1999/02/22-rdf-syntax-ns#">
      <rdf:Description rdf:about=""/>
   </rdf:RDF>
</x:xmpmeta>
                                                                                                    
                                                                                                    
                                                                                                    
                                                                                                    
                                                                                                    
                                                                                                    
                                                                                                    
                                                                                                    
                                                                                                    
                                                                                                    
                                                                                                    
                                                                                                    
                                                                                                    
                                                                                                    
                                                                                                    
                                                                                                    
                                                                                                    
                                                                                                    
                                                                                                    
                                                                                                    
                           
<?xpacket end="w"?></metadata>
<defs>
    <style>
      .cls-1 {
        fill: #fff;
        fill-rule: evenodd;
      }
    </style>
  </defs>
  <path id="形状_1" data-name="形状 1" class="cls-1" d="M1798.86,324l-4.53-27.527-3.02,9.932h-8.62l-5.45,16.371-5.28-22.775-3.09,7.554H1759v-1.933h8.58l4.89-11.971,5.1,22.012,3.73-11.19h8.58L1794.9,288l4.34,26.444,5.26-21.195,3.5,11.231h28v1.932h-29.42l-1.87-6ZM1836,305" transform="translate(-1759 -288)"/>
  <path id="形状_89_副本" data-name="形状 89 副本" class="cls-1" d="M1842.01,305.909A17.005,17.005,0,1,0,1825,322.827a16.969,16.969,0,0,0,17.01-16.918h0Zm-17.01,13.9a13.9,13.9,0,1,1,13.98-13.9,13.941,13.941,0,0,1-13.98,13.9h0Zm14,4.952a3.674,3.674,0,0,0-4.98-1.334l-1.11.633a3.625,3.625,0,0,0-1.34,4.952l1.84,3.176a3.661,3.661,0,0,0,4.97,1.334l1.11-.634a3.625,3.625,0,0,0,1.34-4.952l-1.83-3.175h0Z" transform="translate(-1759 -288)"/>
</svg>
