<svg id="优化" xmlns="http://www.w3.org/2000/svg" width="66" height="64.969" viewBox="0 0 66 64.969">
  <metadata><?xpacket begin="﻿" id="W5M0MpCehiHzreSzNTczkc9d"?>
<x:xmpmeta xmlns:x="adobe:ns:meta/" x:xmptk="Adobe XMP Core 5.6-c138 79.159824, 2016/09/14-01:09:01        ">
   <rdf:RDF xmlns:rdf="http://www.w3.org/1999/02/22-rdf-syntax-ns#">
      <rdf:Description rdf:about=""/>
   </rdf:RDF>
</x:xmpmeta>
                                                                                                    
                                                                                                    
                                                                                                    
                                                                                                    
                                                                                                    
                                                                                                    
                                                                                                    
                                                                                                    
                                                                                                    
                                                                                                    
                                                                                                    
                                                                                                    
                                                                                                    
                                                                                                    
                                                                                                    
                                                                                                    
                                                                                                    
                                                                                                    
                                                                                                    
                                                                                                    
                           
<?xpacket end="w"?></metadata>
<defs>
    <style>
      .cls-1 {
        fill: #fff;
        fill-rule: evenodd;
      }
    </style>
  </defs>
  <path id="形状_96_拷贝" data-name="形状 96 拷贝" class="cls-1" d="M1493,339.984c-18.2,0-33.01-14.58-33.01-32.5s14.81-32.5,33.01-32.5,33.01,14.58,33.01,32.5S1511.2,339.984,1493,339.984Zm-1.78-61.393a29.2,29.2,0,0,0-27.57,27.139h10.7a18.516,18.516,0,0,1,16.87-16.6v-10.54Zm3.56,0v10.54a18.694,18.694,0,0,1,2.25.353l-1.73,3.24c-0.17-.025-0.34-0.061-0.52-0.08v1.042l-1,1.888-2.01-.993a2.114,2.114,0,0,0-.55-0.259v-1.678a15.05,15.05,0,0,0-13.3,13.086h1.23c-1.65,1.513-3.37,2.933-4.73,4.006-0.02-.165-0.05-0.326-0.07-0.493h-10.7a29.2,29.2,0,0,0,27.57,27.139v-7.2L1494,331a6.376,6.376,0,0,0,.78-0.193v5.575a29.2,29.2,0,0,0,27.57-27.139h-10.7a18.368,18.368,0,0,1-9.59,14.394c0.83-1.416,1.67-2.925,2.39-4.378a48.23,48.23,0,0,0,2.04-4.914,14.787,14.787,0,0,0,1.55-4.84c0.33-1.177.53-1.96,0.55-2.051a0.079,0.079,0,0,1,.01-0.047,0.685,0.685,0,0,0,.02-0.141,0.236,0.236,0,0,0,.01-0.083c0.01-.04.01-0.081,0.02-0.121v-0.2c0-.039-0.01-0.078-0.01-0.117a0.259,0.259,0,0,0-.01-0.087,0.486,0.486,0,0,0-.02-0.119c0-.029-0.01-0.057-0.01-0.085l-0.03-.113-0.03-.09a0.411,0.411,0,0,0-.04-0.1,0.389,0.389,0,0,0-.04-0.1,0.321,0.321,0,0,0-.04-0.084,0.471,0.471,0,0,0-.05-0.1,0.26,0.26,0,0,1-.04-0.072,0.671,0.671,0,0,1-.07-0.1c-0.02-.023-0.03-0.045-0.05-0.068s-0.05-.062-0.08-0.092l-0.06-.072c-0.01-.015-0.03-0.03-0.04-0.044a14.543,14.543,0,0,0-.74-2.951l2.12-3.884a18.041,18.041,0,0,1,2.24,7.153h10.7A29.2,29.2,0,0,0,1494.78,278.591Z" transform="translate(-1460 -275)"/>
  <path id="形状_96" data-name="形状 96" class="cls-1" d="M1504.2,309.194c0.01-.035.01-0.071,0.02-0.106a0.139,0.139,0,0,1,.01-0.063v-0.091a0.21,0.21,0,0,0,.01-0.078V308.78c0-.029-0.01-0.058-0.01-0.088a0.148,0.148,0,0,0-.01-0.065,0.28,0.28,0,0,0-.01-0.091c0-.021-0.01-0.042-0.01-0.063l-0.03-.086a0.176,0.176,0,0,0-.02-0.068,0.2,0.2,0,0,0-.02-0.074l-0.03-.075-0.03-.063a0.289,0.289,0,0,1-.04-0.078,0.179,0.179,0,0,0-.04-0.055,0.316,0.316,0,0,0-.05-0.077l-0.03-.052-0.06-.069a0.226,0.226,0,0,0-.05-0.054c-0.02-.02-0.03-0.039-0.05-0.058a0.385,0.385,0,0,0-.07-0.058,0.2,0.2,0,0,0-.05-0.043,0.439,0.439,0,0,0-.08-0.06l-0.03-.024-2.6-1.734,7.88-13.861a1.635,1.635,0,0,0,.21-0.98,1.653,1.653,0,0,0-.8-1.6l-3.66-2.094a2.565,2.565,0,0,0-2.74.552l-7.98,13.252-2.25-1.5a1.553,1.553,0,0,0-.86-0.261h-0.05a1.565,1.565,0,0,0-1.19.586c-0.03.036-2.95,3.652-5.85,6.627a67.029,67.029,0,0,1-6.97,5.955l-0.03.024c-0.03.021-.05,0.042-0.08,0.065s-0.03.031-.05,0.046-0.04.04-.06,0.062-0.04.042-.06,0.064-0.03.035-.04,0.054-0.04.054-.06,0.082c-0.01.011-.01,0.021-0.02,0.033a0.015,0.015,0,0,0-.01.016,0.354,0.354,0,0,0-.05.088l-0.03.055a0.3,0.3,0,0,1-.04.077l-0.03.073a0.142,0.142,0,0,1-.02.06,0.31,0.31,0,0,0-.02.093,0.074,0.074,0,0,0-.01.045l-0.03.108v0.043c-0.01.037-.01,0.074-0.02,0.111v0.153a0.2,0.2,0,0,0,.01.076v0.076c0,0.031.01,0.061,0.01,0.091s0.01,0.041.02,0.061a0.292,0.292,0,0,0,.02.091c0,0.021.01,0.041,0.01,0.061l0.03,0.079,0.03,0.072,0.03,0.061c0.01,0.029.03,0.058,0.04,0.086l0.03,0.046a0.464,0.464,0,0,0,.06.094v0.013c0.01,0.007.01,0.013,0.02,0.02q0.045,0.058.09,0.114a0.151,0.151,0,0,0,.04.04,0.54,0.54,0,0,0,.08.088c0.02,0.014.03,0.028,0.05,0.041s0.06,0.05.09,0.074a0.216,0.216,0,0,1,.05.036h0l17.32,11.642a0.661,0.661,0,0,0,.1.054c0.03,0.017.06,0.036,0.09,0.051s0.09,0.038.13,0.055,0.06,0.024.09,0.034a1.106,1.106,0,0,0,.16.038l0.06,0.015a1.762,1.762,0,0,0,.24.018c0.02,0,.04,0,0.06,0,0.04,0,.08,0,0.12-0.008s0.05-.009.08-0.014,0.07-.011.11-0.02c0.02-.007.05-0.016,0.07-0.024,0.04-.01.07-0.02,0.11-0.033,0.02-.01.05-0.022,0.07-0.033a0.673,0.673,0,0,0,.1-0.046,0.324,0.324,0,0,0,.07-0.043c0.03-.018.06-0.036,0.09-0.057a0.377,0.377,0,0,0,.07-0.054c0.03-.022.06-0.043,0.09-0.067s0.04-.043.06-0.065a0.444,0.444,0,0,0,.07-0.076,0.345,0.345,0,0,0,.06-0.076,0.225,0.225,0,0,0,.05-0.059,72.651,72.651,0,0,0,4.91-8.182,52.188,52.188,0,0,0,3.1-8.91c0-.011.01-0.023,0.01-0.035h0ZM1491.01,303l2.13,1.42a1.355,1.355,0,0,0,.33.281,1.5,1.5,0,0,0,.32.15l7.04,4.7c-0.16.607-.4,1.419-0.69,2.329l-10.46-7.315c0.52-.6.97-1.134,1.33-1.566h0Zm12.85-12.47,1.55,0.888-7.14,12.561-1.79-1.195,7.38-12.254h0Zm-9.39,32.63-2.8-1.881,2.67-3.473a1.643,1.643,0,0,0-.26-2.275,1.545,1.545,0,0,0-2.21.269l-2.85,3.7-3.6-2.422,2.69-3.137a1.64,1.64,0,0,0-.14-2.286,1.542,1.542,0,0,0-2.22.144l-3,3.486-2.42-1.63a61.655,61.655,0,0,0,5.53-4.894c0.57-.582,1.13-1.182,1.67-1.774l11.48,8.027c-0.24.575-.49,1.143-0.75,1.681a63.013,63.013,0,0,1-3.79,6.468h0Z" transform="translate(-1460 -275)"/>
</svg>
