<svg id="修复" xmlns="http://www.w3.org/2000/svg" width="60" height="67" viewBox="0 0 60 67">
  <metadata><?xpacket begin="﻿" id="W5M0MpCehiHzreSzNTczkc9d"?>
<x:xmpmeta xmlns:x="adobe:ns:meta/" x:xmptk="Adobe XMP Core 5.6-c138 79.159824, 2016/09/14-01:09:01        ">
   <rdf:RDF xmlns:rdf="http://www.w3.org/1999/02/22-rdf-syntax-ns#">
      <rdf:Description rdf:about=""/>
   </rdf:RDF>
</x:xmpmeta>
                                                                                                    
                                                                                                    
                                                                                                    
                                                                                                    
                                                                                                    
                                                                                                    
                                                                                                    
                                                                                                    
                                                                                                    
                                                                                                    
                                                                                                    
                                                                                                    
                                                                                                    
                                                                                                    
                                                                                                    
                                                                                                    
                                                                                                    
                                                                                                    
                                                                                                    
                                                                                                    
                           
<?xpacket end="w"?></metadata>
<defs>
    <style>
      .cls-1 {
        fill: #fff;
        fill-rule: evenodd;
      }
    </style>
  </defs>
  <path id="形状_97" data-name="形状 97" class="cls-1" d="M1176.49,343l-0.51-.125a36.954,36.954,0,0,1-11.12-4.767,40.2,40.2,0,0,1-7.63-6.337,37.125,37.125,0,0,1-5.88-8.01l-0.02-.053c-2.28-4.945-3.86-12.791-4.7-23.322-0.63-7.759-.6-14.2-0.6-14.268l0.01-1.819,1.81-.048c10.02-.266,16.89-2.215,20.88-3.8a24.792,24.792,0,0,0,6.31-3.4l1.17-1.046,1.21,1c8.63,6.914,26.53,7.125,26.71,7.127l1.87,0.013-0.01,1.876c-0.19,30.358-5.1,38.268-6.24,39.691a32.794,32.794,0,0,1-6.56,7.792,46.065,46.065,0,0,1-7.48,5.323,49.364,49.364,0,0,1-8.72,4.019l-0.5.161h0Zm-21.79-20.9a36.125,36.125,0,0,0,21.64,16.993,48.944,48.944,0,0,0,7.58-3.574c3.98-2.305,9.41-6.232,12.69-11.853l0.14-.237,0.1-.088c0.17-.234,1.4-2,2.64-7.079,1.16-4.785,2.55-13.558,2.75-28.444a80.065,80.065,0,0,1-8.88-.951c-7.31-1.205-13.05-3.243-17.11-6.068-2.92,1.962-11.15,6.416-26.47,7.139,0.09,5.923.71,24.946,4.92,34.162h0Z" transform="translate(-1146 -276)"/>
  <path id="形状_91" data-name="形状 91" class="cls-1" d="M1178.73,293.622l-13.11,18.3,10.57-.026-4.97,13.485,14.26-17.088-10.69-.052,3.94-14.616h0Z" transform="translate(-1146 -276)"/>
</svg>
