<?xml version="1.0" encoding="UTF-8"?>
<svg width="80px" height="80px" viewBox="0 0 80 80" version="1.1" xmlns="http://www.w3.org/2000/svg" xmlns:xlink="http://www.w3.org/1999/xlink">
    <!-- Generator: Sketch 44.1 (41455) - http://www.bohemiancoding.com/sketch -->
    <title>icon/data_tracking</title>
    <desc>Created with Sketch.</desc>
    <defs></defs>
    <g id="birdview" stroke="none" stroke-width="1" fill="none" fill-rule="evenodd">
        <g id="3d-界面-copy" transform="translate(-1339.000000, -782.000000)" fill="#F5A623">
            <g id="Group-7" transform="translate(1339.000000, 754.000000)">
                <path d="M58,73.055574 L58,52 C58,48.6862915 55.3137085,46 52,46 L26,46 C22.6862915,46 20,48.6862915 20,52 L20,84 C20,87.3137085 22.6862915,90 26,90 L41.055574,90 C39.1554143,87.876974 38,85.0734177 38,82 C38,75.372583 43.372583,70 50,70 C53.0734177,70 55.876974,71.1554143 58,73.055574 Z M40,108 C17.90861,108 0,90.09139 0,68 C0,45.90861 17.90861,28 40,28 C62.09139,28 80,45.90861 80,68 C80,90.09139 62.09139,108 40,108 Z M44.5570749,79.617164 C43.9693149,79.0333577 43.0195729,79.0365628 42.4357666,79.6243227 C41.8519603,80.2120826 41.8551653,81.1618247 42.4429252,81.745631 L47.5685816,86.8368091 C48.1621158,87.4263509 49.1232016,87.4164404 49.7044524,86.8147844 L57.696463,78.5422102 C58.272059,77.9464076 58.2556783,76.9968014 57.6598757,76.4212054 C57.0640731,75.8456094 56.1144669,75.86199 55.5388709,76.4577926 L48.6036296,83.6364993 L44.5570749,79.617164 Z" id="icon/data_tracking"></path>
            </g>
        </g>
    </g>
</svg>