<?xml version="1.0" encoding="UTF-8"?>
<svg width="80px" height="80px" viewBox="0 0 80 80" version="1.1" xmlns="http://www.w3.org/2000/svg" xmlns:xlink="http://www.w3.org/1999/xlink">
    <!-- Generator: Sketch 44.1 (41455) - http://www.bohemiancoding.com/sketch -->
    <title>icon/web_attack</title>
    <desc>Created with Sketch.</desc>
    <defs></defs>
    <g id="birdview" stroke="none" stroke-width="1" fill="none" fill-rule="evenodd">
        <g id="3d-界面-copy" transform="translate(-1139.000000, -780.000000)" fill="#F5A623">
            <g id="Group-4" transform="translate(1139.000000, 755.000000)">
                <path d="M40,105 C17.90861,105 0,87.09139 0,65 C0,42.90861 17.90861,25 40,25 C62.09139,25 80,42.90861 80,65 C80,87.09139 62.09139,105 40,105 Z M38,77.3988 L24.7043,77.3988 C24.8615,78.1225 25.0351,78.8415 25.2242,79.5565 C25.7735,81.6322 26.4539,83.6779 27.3173,85.645 C27.9746,87.1425 28.7389,88.5997 29.6615,89.9518 C30.2638,90.8345 30.9355,91.6745 31.7002,92.4224 C31.8543,92.5731 32.0122,92.7198 32.174,92.8618 C34.0466,93.3862 35.9954,93.7271 38,93.8639 L38,77.3988 Z M56.0296,77.3988 L42,77.3988 L42,93.8638 C44.2761,93.7086 46.4804,93.2901 48.5828,92.6387 C48.918,92.3428 49.2367,92.0276 49.54,91.6984 C50.2552,90.9221 50.8869,90.0708 51.4558,89.1825 C52.366,87.7612 53.1189,86.2418 53.7641,84.6837 C54.5323,82.8286 55.1485,80.9119 55.6513,78.9688 C55.7863,78.4472 55.9131,77.9235 56.0296,77.3988 Z M20.1057,77.3988 L13.8139,77.3988 C16.0831,82.1541 19.6106,86.1959 23.9642,89.0928 C23.6944,88.5529 23.4391,88.0058 23.1967,87.4537 C22.2797,85.3644 21.5462,83.1961 20.9507,80.9944 C20.6292,79.8058 20.3477,78.6064 20.1057,77.3988 Z M66.186,77.3988 L60.1253,77.3988 C59.9044,78.4542 59.6538,79.5028 59.3724,80.5432 C58.7565,82.8198 57.9928,85.061 57.029,87.2147 C56.7588,87.8184 56.4727,88.4159 56.1685,89.0039 C60.4615,86.1132 63.9407,82.1049 66.186,77.3988 Z M12.2584,73.3988 L19.4307,73.3988 C19.3788,73.0187 19.3306,72.6388 19.2857,72.2585 C18.9108,69.0856 18.7616,65.8849 18.8414,62.691 C18.89,60.749 19.0234,58.8082 19.254,56.8792 L12.1354,56.8792 C11.3958,59.4369 11,62.1386 11,64.9319 C11,67.8773 11.44,70.7207 12.2584,73.3988 Z M38,73.3988 L38,56.8792 L23.7875,56.8792 C23.5083,59.0426 23.3613,61.2222 23.328,63.4023 C23.2841,66.2812 23.4383,69.1642 23.7898,72.022 C23.8464,72.482 23.908,72.9414 23.9767,73.3988 L38,73.3988 Z M42,73.3988 L56.7831,73.3988 C56.9021,72.6284 57.0042,71.8551 57.092,71.0804 C57.4292,68.1048 57.5555,65.104 57.466,62.1107 C57.4137,60.3624 57.2877,58.6154 57.0763,56.8792 L42,56.8792 L42,73.3988 Z M60.8256,73.3988 L67.7419,73.3988 C68.5601,70.72 69,67.8769 69,64.9319 C69,62.138 68.604,59.4357 67.8648,56.8792 L61.1036,56.8792 C61.3079,58.6836 61.4276,60.4968 61.473,62.3112 C61.5525,65.4933 61.4039,68.6821 61.0304,71.8432 C60.969,72.3626 60.9016,72.8815 60.8256,73.3988 Z M19.8707,52.8792 C20.2391,50.9497 20.715,49.0448 21.3176,47.1799 C21.5347,46.5081 21.7683,45.8417 22.0198,45.1821 C22.2327,44.6236 22.4583,44.07 22.6975,43.5223 C23.1189,42.5574 23.5844,41.6075 24.0969,40.6833 C19.5559,43.6691 15.9021,47.8958 13.6198,52.8792 L19.8707,52.8792 Z M38,52.8792 L38,36 C36.2738,36.1178 34.5888,36.3869 32.9583,36.7943 C32.6733,37.0259 32.3956,37.2663 32.1261,37.5161 C30.906,38.6471 29.8514,39.9492 28.9456,41.3425 C27.7407,43.196 26.7934,45.2103 26.0383,47.2854 C25.7906,47.9661 25.5635,48.6543 25.3552,49.3482 C25.0061,50.5114 24.7094,51.69 24.4606,52.8792 L38,52.8792 Z M56.4397,52.8792 C56.1152,51.2621 55.7084,49.6659 55.2026,48.1007 C54.9806,47.4137 54.7394,46.7329 54.477,46.0603 C54.2851,45.5681 54.0818,45.0804 53.8664,44.598 C52.6846,41.952 51.1196,39.4244 49.0561,37.3763 C46.8121,36.6383 44.4476,36.167 42,36 L42,52.8792 L56.4397,52.8792 Z M66.3805,52.8792 C64.2257,48.177 60.8548,44.1525 56.6711,41.206 C57.0164,41.8726 57.3383,42.5507 57.6378,43.2364 C57.8754,43.7805 58.0995,44.3304 58.311,44.8851 C58.5609,45.5407 58.7931,46.2031 59.0088,46.8707 C59.6442,48.837 60.1378,50.8478 60.512,52.8792 L66.3805,52.8792 Z" id="icon/web_attack"></path>
            </g>
        </g>
    </g>
</svg>