<?xml version="1.0" encoding="UTF-8"?>
<svg width="20px" height="20px" viewBox="0 0 20 20" version="1.1" xmlns="http://www.w3.org/2000/svg" xmlns:xlink="http://www.w3.org/1999/xlink">
    <!-- Generator: Sketch 48.1 (47250) - http://www.bohemiancoding.com/sketch -->
    <title>icon/sidebar/plugin copy</title>
    <desc>Created with Sketch.</desc>
    <defs></defs>
    <g id="icons" stroke="none" stroke-width="1" fill="none" fill-rule="evenodd">
        <g id="icon/sidebar/plugin-copy" fill="#A1A6AD" fill-rule="nonzero">
            <path d="M3.63366987,14.2143725 L3.63366987,10.1050345 L11.3501727,10.1050345 L11.3501727,12.0737883 C11.3501727,12.6615016 11.8266085,13.1379374 12.4143219,13.1379374 C13.0020352,13.1379374 13.478471,12.6615016 13.478471,12.0737883 L13.478471,9.04088532 C13.478471,8.45317197 13.0020352,7.97673617 12.4143219,7.97673617 L2.56952072,7.97673617 C1.98180737,7.97673617 1.50537157,8.45317197 1.50537157,9.04088532 L1.50537157,15.2785217 C1.50537157,15.866235 1.98180737,16.3426708 2.56952072,16.3426708 L5.83404767,16.3426708 C6.42176101,16.3426708 6.89819681,15.866235 6.89819681,15.2785217 C6.89819681,14.6908083 6.42176101,14.2143725 5.83404767,14.2143725 L3.63366987,14.2143725 Z" id="Path-31-Copy-2" transform="translate(7.491921, 12.159703) rotate(-45.000000) translate(-7.491921, -12.159703) "></path>
            <path d="M8.14847233,5.590232 L15.8649752,5.590232 L15.8649752,7.55898584 C15.8649752,8.14669918 16.341411,8.62313498 16.9291243,8.62313498 C17.5168377,8.62313498 17.9932735,8.14669918 17.9932735,7.55898584 L17.9932735,4.52608285 C17.9932735,3.93836951 17.5168377,3.46193371 16.9291243,3.46193371 L7.08432318,3.46193371 C6.49660984,3.46193371 6.02017404,3.93836951 6.02017404,4.52608285 L6.02017404,10.7637192 C6.02017404,11.3514326 6.49660984,11.8278684 7.08432318,11.8278684 L10.3488501,11.8278684 C10.9365635,11.8278684 11.4129993,11.3514326 11.4129993,10.7637192 C11.4129993,10.1760059 10.9365635,9.69957006 10.3488501,9.69957006 L8.14847233,9.69957006 L8.14847233,5.590232 Z" id="Path-31-Copy-3" transform="translate(12.006724, 7.644901) rotate(-225.000000) translate(-12.006724, -7.644901) "></path>
        </g>
    </g>
</svg>