<?xml version="1.0" encoding="UTF-8"?>
<svg width="20px" height="20px" viewBox="0 0 20 20" version="1.1" xmlns="http://www.w3.org/2000/svg" xmlns:xlink="http://www.w3.org/1999/xlink">
    <!-- Generator: Sketch 48.1 (47250) - http://www.bohemiancoding.com/sketch -->
    <title>icon/sidebar/protect_control</title>
    <desc>Created with Sketch.</desc>
    <defs></defs>
    <g id="icons" stroke="none" stroke-width="1" fill="none" fill-rule="evenodd">
        <g id="icon/sidebar/protect_control" fill="#A1A6AD">
            <path d="M3,16 C3,15.4477153 3.44771525,15 4,15 C4.55228475,15 5,15.4477153 5,16 C5,17.1045695 5.8954305,18 7,18 C8.1045695,18 9,17.1045695 9,16 L9,11 C9,10.4477153 9.44771525,10 10,10 C10.5522847,10 11,10.4477153 11,11 L11,16 C11,18.209139 9.209139,20 7,20 C4.790861,20 3,18.209139 3,16 Z M19,10 C19,8.8954305 17.6568542,8 16,8 C14.3431458,8 13,8.8954305 13,10 C13,8.8954305 11.6568542,8 10,8 C8.34314575,8 7,8.8954305 7,10 C7,8.8954305 5.65685425,8 4,8 C2.34314575,8 1,8.8954305 1,10 C1,5.02943725 5.02943725,1 10,1 C14.9705627,1 19,5.02943725 19,10 Z" id="Combined-Shape"></path>
        </g>
    </g>
</svg>