<?xml version="1.0" encoding="UTF-8"?>
<svg width="20px" height="20px" viewBox="0 0 20 20" version="1.1" xmlns="http://www.w3.org/2000/svg" xmlns:xlink="http://www.w3.org/1999/xlink">
    <!-- Generator: Sketch 49.1 (51147) - http://www.bohemiancoding.com/sketch -->
    <title>icon/sidebar/ctf</title>
    <desc>Created with Sketch.</desc>
    <defs></defs>
    <g id="icon/sidebar/ctf" stroke="none" stroke-width="1" fill="none" fill-rule="evenodd">
        <path d="M11.7196229,13.3411179 C11.7138699,13.2746913 11.6945564,13.2082646 11.6608604,13.1450685 L7.42154166,5.28411349 C7.29641467,5.05313459 7.01410846,4.94410608 6.75810152,5.02830032 C6.50168366,5.11370598 6.3486137,5.36628867 6.39730843,5.62391898 L8.04943669,14.3407477 C8.06238086,14.410001 8.08970744,14.4719857 8.12689625,14.528519 C8.14292237,14.6030218 8.16244136,14.6771208 8.18853516,14.7514217 C8.45460979,15.4972575 9.18256532,16 9.99928088,16 C10.2102914,16 10.4200692,15.9664838 10.6206011,15.8996534 C11.1042611,15.7397449 11.4944354,15.4074099 11.7192119,14.9636235 C11.944194,14.5198371 11.9762462,14.0187098 11.8104375,13.5515025 C11.7851656,13.4782111 11.7539352,13.408554 11.7196229,13.3411179 Z M9.99989727,5.59948852 C9.69766115,5.59948852 9.45295467,5.83571694 9.45295467,6.12706533 C9.45295467,6.41841372 9.69766115,6.65484404 9.99989727,6.65484404 C14.3594119,6.65484404 17.905293,10.0793485 17.905293,14.2880506 C17.905293,14.5791971 18.1508213,14.8156274 18.4526465,14.8156274 C18.7552935,14.8156274 19,14.5791971 19,14.2880506 C18.9995891,9.49644985 14.9624459,5.59948852 9.99989727,5.59948852 Z M4.34411634,7.52848539 C2.21901218,9.18793957 1,11.651378 1,14.2878487 C1,14.5791971 1.24470647,14.8158293 1.54714806,14.8158293 C1.85000057,14.8158293 2.09470704,14.5791971 2.09470704,14.2878487 C2.09470704,11.9720026 3.16537491,9.8077868 5.0324175,8.35003534 C5.26787814,8.16670594 5.30362871,7.8339671 5.11398633,7.6072282 C4.92434395,7.3806912 4.57978244,7.34515598 4.34411634,7.52848539 Z" id="Shape" fill="#A1A6AD" fill-rule="nonzero"></path>
    </g>
</svg>