<?xml version="1.0" encoding="UTF-8"?>
<svg width="20px" height="20px" viewBox="0 0 20 20" version="1.1" xmlns="http://www.w3.org/2000/svg" xmlns:xlink="http://www.w3.org/1999/xlink">
    <!-- Generator: Sketch 48.1 (47250) - http://www.bohemiancoding.com/sketch -->
    <title>icon/sidebar/world</title>
    <desc>Created with Sketch.</desc>
    <defs></defs>
    <g id="icons" stroke="none" stroke-width="1" fill="none" fill-rule="evenodd">
        <g id="icon/sidebar/world" fill="#A1A6AD">
            <path d="M9.5,6.98635148 L9.5,12.9863515 L4.8415501,12.9863515 C4.70143516,12.068664 4.63064597,11.0686983 4.62971543,9.98588588 C4.62872218,8.91926502 4.70889442,7.91961996 4.87000247,6.98635148 L9.5,6.98635148 Z M10.5,6.98635148 L15.2597132,6.98635148 C15.4208212,7.91961996 15.5009935,8.91926502 15.5000002,9.98588588 C15.4990697,11.0686983 15.4282805,12.068664 15.2881655,12.9863515 L10.5,12.9863515 L10.5,6.98635148 Z M9.5,18.9726973 C8.79845296,18.9342823 8.11830374,18.815522 7.46859653,18.6254606 L7.47197944,18.621858 C6.29079558,17.512712 5.47422848,15.9699018 5.02891039,13.9863515 L9.5,13.9863515 L9.5,18.9727015 Z M10.5,18.9727026 L10.5,13.9863515 L15.1008053,13.9863515 C14.6622999,15.9395564 13.8638177,17.4654034 12.7116913,18.5706486 C12.0078902,18.7927617 11.2667243,18.9307134 10.5,18.9726973 Z M9.5,1.00000495 L9.5,5.98635148 L5.07989076,5.98635148 C5.53547703,4.15799377 6.33640791,2.6122144 7.48065597,1.34372375 C8.12671834,1.1557149 8.80279204,1.03818308 9.49999967,1.00000569 Z M10.5,1.00000567 C11.2614693,1.04170185 11.9977293,1.17805481 12.6972148,1.39749925 C13.8158058,2.65582347 14.6006568,4.18375114 15.0498249,5.98635148 L10.5,5.98635148 L10.5,1 Z M3.85635888,6.98635148 C3.70421613,7.9283815 3.62873052,8.92868693 3.62971583,9.98678117 C3.63063634,11.0579199 3.69757208,12.0579292 3.8309524,12.9863515 L1.51211712,12.9863515 C1.18046266,12.0480147 1,11.0382578 1,9.98635148 C1,8.93444521 1.18046266,7.92468826 1.51211712,6.98635148 L3.85635888,6.98635148 Z M5.4807344,17.7711353 C3.95973469,16.8862486 2.72171915,15.5683767 1.93551965,13.9863515 L4.00608049,13.9863515 C4.31106415,15.4489397 4.80194807,16.7112454 5.4807344,17.7711353 Z M5.64480659,2.10840473 C4.91570359,3.24920781 4.38492633,4.54252688 4.05170536,5.98635148 L1.93551965,5.98635148 C2.74980328,4.34781413 4.04875846,2.99263901 5.64480659,2.10840473 Z M16.2733568,6.98635148 L18.4878829,6.98635148 C18.8195373,7.92468826 19,8.93444521 19,9.98635148 C19,11.0382578 18.8195373,12.0480147 18.4878829,12.9863515 L16.2987632,12.9863515 C16.4321436,12.0579292 16.4990793,11.0579199 16.4999998,9.98678117 C16.5009851,8.92868693 16.4254995,7.9283815 16.2733568,6.98635148 Z M14.7275761,17.6461494 C15.3657903,16.6124374 15.8305511,15.3918737 16.1236352,13.9863515 L18.0644804,13.9863515 C17.3144855,15.495524 16.153329,16.7643118 14.7275761,17.6461494 Z M14.5578875,2.2241659 C16.0612235,3.10881796 17.2849459,4.41773793 18.0644804,5.98635148 L16.0780103,5.98635148 C15.7560098,4.59114465 15.2495337,3.33647807 14.5578875,2.2241659 Z" id="Combined-Shape"></path>
        </g>
    </g>
</svg>