<?xml version="1.0" encoding="UTF-8"?>
<svg width="189px" height="298px" viewBox="0 0 189 298" version="1.1" xmlns="http://www.w3.org/2000/svg" xmlns:xlink="http://www.w3.org/1999/xlink">
    <!-- Generator: Sketch 43.1 (39012) - http://www.bohemiancoding.com/sketch -->
    <title>Page 1</title>
    <desc>Created with Sketch.</desc>
    <defs></defs>
    <g id="Page-1" stroke="none" stroke-width="1" fill="none" fill-rule="evenodd">
        <g id="系统检测_空状态" transform="translate(-720.000000, -460.000000)">
            <g id="Page-1" transform="translate(720.000000, 460.000000)">
                <path d="M62.757228,174.756377 C62.5047994,174.757663 62.2523758,174.759422 61.9999579,174.761769 C61.2035053,174.774351 60.4090421,174.829316 59.6192211,174.934278 C58.2100105,175.122349 56.8220211,175.464056 55.4870842,175.951782 C53.8464316,176.551424 52.2876789,177.373242 50.8642105,178.384456 C49.5458526,179.320838 48.3438789,180.418802 47.2917789,181.6459 C45.7177737,183.482242 44.4862895,185.607644 43.6818789,187.887344 C43.1947895,189.268078 42.8652,190.703444 42.6987474,192.157684 C42.6122053,192.912287 42.5724158,193.670531 42.5700947,194.4301 L42.5700947,238.455165 L41.3671263,237.058338 C41.2955053,236.980196 41.2262053,236.899736 41.1516,236.823911 C41.0030526,236.671931 40.8448895,236.529884 40.6777737,236.398433 C40.1767579,236.003418 39.6001421,235.706742 38.9873842,235.528604 C38.7834632,235.469004 38.5755632,235.42298 38.3653421,235.3902 C38.2605632,235.373644 38.1544579,235.364042 38.0490158,235.350798 C37.9429105,235.344507 37.8368053,235.338216 37.7307,235.332256 C37.4475316,235.33358 37.3762421,235.326958 37.0937368,235.355764 C36.4590947,235.42 35.8380474,235.607409 35.2737,235.905078 C34.8035211,236.15308 34.3741263,236.476576 34.0060737,236.859671 C33.6383526,237.242767 33.3326368,237.685131 33.1045105,238.16458 C32.7839069,238.837802 32.6208053,239.579195 32.6236273,240.321596 C32.6233382,240.313529 32.6230382,240.305312 32.6227263,240.296936 C32.6227263,224.940996 32.5700053,209.585387 32.6230579,194.229447 C32.6346632,193.035129 32.7096,191.842798 32.8604684,190.657751 C33.1237421,188.590624 33.6061895,186.551973 34.2995211,184.586829 C35.5111105,181.152876 37.3643053,177.951693 39.7350947,175.186253 C41.3528684,173.298589 43.2077211,171.614889 45.2442789,170.186807 C47.4996789,168.60542 49.9759105,167.339582 52.5814579,166.441278 C54.6140368,165.740647 56.7228789,165.263516 58.8592421,165.019487 C59.9842895,164.891016 61.1149737,164.830753 62.2473158,164.82678 L62.7283543,164.82678 C62.6536781,140.111495 62.5720746,115.396173 62.7980684,90.6823933 C62.8136526,89.7244889 62.8852737,88.7692333 63.0245368,87.8212622 C63.2755421,86.1077622 63.7354421,84.4257178 64.3913053,82.8228089 C65.0816526,81.1351356 65.9878579,79.5299089 67.0853842,78.07302 C68.0167895,76.8373133 69.0725368,75.6989533 70.2433421,74.6864156 C72.7169211,72.5474378 75.6736105,70.9829378 78.8375368,70.1488689 C79.8806842,69.8740467 80.9443895,69.6780289 82.0167158,69.5624711 C82.6075895,69.4988978 83.2004526,69.4614822 83.7946421,69.4445956 C84.0257526,69.4396289 84.2568632,69.4373111 84.4879737,69.4379733 C85.0387263,69.4432711 85.5888158,69.4657867 86.1375789,69.5108178 C87.2609684,69.6031978 88.3767316,69.7836533 89.4716053,70.0505289 C91.3078895,70.49786 93.0834947,71.18922 94.7387368,72.1001067 C96.1389947,72.8702711 97.4523789,73.79672 98.6480526,74.8562756 C99.8079158,75.8833822 100.856037,77.0353178 101.769868,78.2855933 C102.872368,79.7944667 103.777247,81.4473733 104.452674,83.1890178 C105.047526,84.7233867 105.464321,86.3259644 105.692779,87.9553622 C105.825742,88.90532 105.891395,89.8622311 105.901011,90.8211289 L105.901674,90.9529111 L105.901674,127.212714 L184.895716,150.426758 C185.062832,150.485696 185.233595,150.536024 185.397395,150.603902 C185.725326,150.739989 186.038005,150.910511 186.329795,151.113151 C186.767147,151.416449 187.154763,151.790273 187.474074,152.216082 C187.899489,152.784269 188.200563,153.442849 188.351432,154.136196 C188.452232,154.598758 188.439963,154.720607 188.465163,155.191447 L188.465163,240.296936 C188.457205,240.457524 188.457205,240.619107 188.441621,240.779033 C188.394537,241.259807 188.277158,241.733296 188.093795,242.180296 C187.930326,242.57796 187.861026,242.664049 187.642516,243.032907 L166.580953,274.899371 L166.580953,292.93698 L166.549453,293.492916 C166.518284,293.67602 166.497395,293.861111 166.456279,294.042229 C166.290489,294.767362 165.960237,295.4521 165.495695,296.033531 C165.147537,296.469604 164.7261,296.845747 164.253268,297.142422 C163.304621,297.737429 162.163326,297.997682 161.050216,297.872522 C160.495484,297.809942 159.952026,297.653658 159.449021,297.411616 C158.946016,297.169904 158.485121,296.843098 158.090211,296.449076 C157.431032,295.790827 156.965495,294.949473 156.758258,294.042229 C156.647511,293.558144 156.661105,293.430336 156.633584,292.93698 L156.633584,273.408047 C156.654142,272.980251 156.643863,272.869991 156.727089,272.448156 C156.820595,271.974336 156.983732,271.514422 157.209868,271.08762 C157.285137,270.945242 157.374,270.81048 157.4559,270.672076 L178.517795,238.805611 L178.517795,158.907176 L160.943779,153.742664 L160.943779,185.953324 C160.936816,186.19636 160.940132,186.257616 160.913605,186.499658 C160.853258,187.044004 160.702058,187.577756 160.467963,188.073098 C160.194742,188.650887 159.809447,189.174704 159.338605,189.607467 C158.867763,190.040229 158.313363,190.380611 157.713868,190.604773 C157.2858,190.7647 156.836179,190.865358 156.380589,190.903104 C155.651447,190.963367 154.911032,190.860722 154.225989,190.604773 C153.626495,190.380611 153.072095,190.040229 152.601253,189.607467 C152.197721,189.236622 151.856858,188.798893 151.595574,188.317127 C151.334621,187.835691 151.154242,187.31088 151.064053,186.770838 C151.033879,186.590713 151.013984,186.409264 151.003705,186.226822 C150.998732,186.135767 150.998732,186.044711 150.996411,185.953324 L150.996411,150.81941 L133.422726,145.654996 L133.422726,177.872227 C133.420074,177.963282 133.420074,178.054669 133.4151,178.145724 C133.404821,178.328167 133.384926,178.509616 133.354753,178.68974 C133.264563,179.229782 133.084184,179.754593 132.823232,180.236029 C132.605716,180.637336 132.332495,181.008511 132.013847,181.335649 C131.503879,181.859136 130.878189,182.267396 130.192816,182.523676 C129.593653,182.747507 128.951716,182.854787 128.311768,182.836907 C127.763668,182.822007 127.218553,182.71572 126.704937,182.523676 C126.105442,182.299513 125.551042,181.959131 125.0802,181.526369 C124.609358,181.093607 124.224063,180.569789 123.950842,179.992 C123.716747,179.496658 123.565879,178.962907 123.505532,178.41856 C123.478674,178.176518 123.481989,178.115262 123.475358,177.872227 L123.475358,142.731743 L105.901674,137.567328 L105.901674,169.794109 L105.877468,170.280842 C105.853595,170.441762 105.837679,170.603676 105.805847,170.76294 C105.678853,171.400991 105.425195,172.012553 105.063442,172.553258 C104.791879,172.958869 104.460632,173.324084 104.082963,173.633342 C103.705626,173.942931 103.282532,174.1959 102.831253,174.382647 C102.078237,174.694222 101.251279,174.816733 100.440237,174.736936 C99.792,174.673031 99.1576895,174.480987 98.5833947,174.174378 C98.1526737,173.944256 97.7564368,173.650891 97.4109316,173.305873 C96.7185947,172.614844 96.2407895,171.721838 96.0498,170.76294 C95.9649158,170.337131 95.9755263,170.226209 95.9543053,169.794109 C95.9543053,143.439982 96.3621474,117.082876 95.9519842,90.73206 C95.9400474,90.1913556 95.8942895,89.6516444 95.8090737,89.1172311 C95.6369842,88.0404578 95.3120368,86.9878556 94.8431842,86.0024689 C94.1727316,84.5929289 93.2164579,83.3231178 92.0473105,82.2874022 C90.9806211,81.3427422 89.7415105,80.5947622 88.4052474,80.0971022 C86.4180947,79.3570689 84.2296737,79.1795933 82.1473579,79.5782511 C81.0544737,79.7875133 79.9937526,80.1557089 79.0066421,80.6679378 C77.8282105,81.2798311 76.7572105,82.0950267 75.8523316,83.0658444 C74.9133,84.0730844 74.1556421,85.2452178 73.6257789,86.5160222 C73.2315316,87.4623378 72.9666,88.4613 72.8372842,89.4778111 C72.7742842,89.9714978 72.7451053,90.4688267 72.7437789,90.9664867 L72.7437789,199.35902 C72.7358211,199.521264 72.7358211,199.684171 72.7199053,199.845753 C72.6559105,200.493407 72.4635947,201.126491 72.1565526,201.700307 C71.8491789,202.274122 71.4287368,202.785689 70.9254,203.198253 C70.5477316,203.507842 70.1246368,203.761142 69.6733579,203.947558 C68.9203421,204.259133 68.0933842,204.381644 67.2826737,204.301847 C66.6341053,204.237942 66.0001263,204.045898 65.4255,203.739289 C64.9947789,203.509498 64.5985421,203.215802 64.2530368,202.871116 C63.5610316,202.179756 63.0828947,201.286749 62.8919053,200.327851 C62.8070211,199.902373 62.8176316,199.79112 62.7964105,199.35902 C62.7964105,191.158205 62.7795194,182.957305 62.757228,174.756377 Z M42.5700947,238.455165 L69.8829158,270.169449 C70.0619684,270.391293 70.1123684,270.442947 70.2692053,270.681347 C70.6220053,271.217747 70.8690316,271.822356 70.9927105,272.451798 C71.0338263,272.661722 71.0616789,272.874296 71.0752737,273.087531 C71.0822368,273.194149 71.0822368,273.301098 71.0858842,273.408047 L71.0858842,292.93698 C71.0822368,293.042936 71.0822368,293.149222 71.0756053,293.255178 C71.0620105,293.467089 71.0348211,293.678007 70.9940368,293.886276 C70.8517895,294.616376 70.5434211,295.311709 70.0981105,295.907709 C69.7801263,296.333187 69.3935053,296.70668 68.9574789,297.01064 C68.5214526,297.314269 68.0370158,297.547371 67.5273789,297.698358 C67.1195368,297.819213 66.6964421,297.887422 66.2713579,297.900998 C65.6337316,297.921527 64.9931211,297.81822 64.3942895,297.598031 C63.7954579,297.377842 63.2407263,297.042096 62.7682263,296.613638 C62.2957263,296.18518 61.9077789,295.665998 61.6309105,295.091851 C61.4001316,294.613727 61.2472737,294.098518 61.1793,293.572051 C61.1428263,293.291269 61.1474684,293.219749 61.1385158,292.93698 L61.1385158,275.250018 L33.8253632,243.535533 L33.822519,243.532005 Z M33.6271926,243.289728 L33.6254211,243.287531 C33.5436868,243.171973 33.4911316,243.100619 33.4414776,243.027361 C33.320281,242.843012 33.2110504,242.650709 33.1151211,242.451807 C33.0252258,242.265354 32.9470766,242.073296 32.881157,241.877155 C32.8144718,241.678738 32.76029,241.476076 32.7192158,241.270733 C32.6769692,241.059932 32.6488227,240.846823 32.6345743,240.633015 C32.6302215,240.546155 32.6283827,240.454268 32.6236273,240.321596 Z" id="Combined-Shape" fill="#D9D9D9"></path>
                <path d="M84.9011211,33.1117733 C85.5616263,33.1180644 86.2218,33.1326333 86.8816421,33.1617711 C88.1870684,33.2197156 89.4905053,33.3266644 90.7879737,33.4829489 C94.4864053,33.9289556 98.1347684,34.7779244 101.648511,36.0139622 C105.278305,37.2907267 108.761542,38.9784 112.013668,41.0332756 C115.404063,43.1752333 118.541463,45.7138622 121.3443,48.5802911 C124.076842,51.3745378 126.490074,54.4790356 128.520995,57.8169667 C130.412653,60.9261 131.972068,64.2365489 133.161111,67.6754689 C134.378005,71.1948489 135.205958,74.8466733 135.629716,78.5458467 C135.778263,79.8438022 135.877074,81.1470556 135.926811,82.4522956 C135.952011,83.1098822 135.962289,83.7674689 135.964611,84.4253867 L135.964611,97.6310911 C135.948695,98.0049156 135.956653,98.1006067 135.892989,98.4704578 C135.725874,99.4426 135.264979,100.355473 134.581595,101.067693 C134.191989,101.473967 133.733084,101.812693 133.230079,102.065993 C132.727074,102.319293 132.181295,102.486173 131.622584,102.557693 C131.203468,102.611002 130.778053,102.611002 130.358937,102.557693 C129.6603,102.468293 128.982884,102.229231 128.383058,101.860373 C127.662868,101.417347 127.061384,100.790884 126.6489,100.053169 C126.374021,99.5621311 126.184026,99.0247378 126.088532,98.4704578 C126.0252,98.1006067 126.033158,98.0049156 126.017242,97.6310911 C126.017242,93.1425489 126.030505,88.6536756 126.016247,84.1651333 C126.010279,83.5426444 125.994695,82.9204867 125.963195,82.29866 C125.909811,81.2477133 125.816637,80.1987533 125.683674,79.15476 C125.284784,76.0178133 124.523147,72.9275533 123.415674,69.9651022 C121.954737,66.0556733 119.894305,62.3747111 117.332195,59.0781689 C114.583737,55.5419022 111.261647,52.4546222 107.532379,49.9706267 C104.111479,47.6922511 100.351042,45.9267667 96.4095632,44.7559578 C91.9730368,43.4381356 87.3206526,42.8812067 82.6981105,43.0855022 C80.2616684,43.1931133 77.8351737,43.51396 75.4554316,44.0470489 C73.2192632,44.5476889 71.0255368,45.2357378 68.9040947,46.1012622 C64.1187474,48.0534933 59.7150474,50.9109822 55.9741737,54.4724133 C52.0569,58.2017178 48.8780526,62.6929089 46.6783579,67.6317622 C45.1550842,71.0511467 44.1043105,74.6774756 43.5618474,78.3806222 C43.3711895,79.6799022 43.2428684,80.9877911 43.1765526,82.2993222 C43.1400789,83.0125356 43.1244947,83.7264111 43.1225053,84.4409489 L43.1225053,100.942202 C43.1065895,101.316027 43.1145474,101.411718 43.0508842,101.781569 C42.8837684,102.753711 42.4228737,103.666584 41.7394895,104.378804 C41.3498842,104.785078 40.8909789,105.123804 40.3879737,105.377104 C39.8849684,105.630404 39.3391895,105.797284 38.7804789,105.868804 C38.3613632,105.922113 37.9359474,105.922113 37.5168316,105.868804 C36.8181947,105.779404 36.1407789,105.540342 35.5409526,105.171484 C34.8207632,104.728458 34.2192789,104.101996 33.8067947,103.36428 C33.5319158,102.873242 33.3419211,102.335849 33.2464263,101.781569 C33.1830947,101.411718 33.1910526,101.316027 33.1751368,100.942202 L33.1751368,84.4253867 C33.1771263,83.7674689 33.1877368,83.1098822 33.2126053,82.4522956 C33.2623421,81.1470556 33.3611526,79.8438022 33.5100316,78.5458467 C33.9334579,74.8466733 34.7614105,71.1948489 35.9786368,67.6754689 C37.1000368,64.4315733 38.5506947,61.3022422 40.2997737,58.3480689 C42.1864579,55.1614556 44.4189789,52.1801311 46.9446158,49.47098 C49.6771579,46.5399844 52.7515579,43.92818 56.0879053,41.7064244 C59.5456105,39.4038778 63.2828368,37.5221733 67.1944737,36.1192556 C70.7994,34.8262667 74.5488947,33.9415378 78.3517737,33.4829489 C79.5401526,33.3399089 80.7335053,33.2379267 81.9288474,33.1773333 C82.5880263,33.1438911 83.2475368,33.1253489 83.9070474,33.1150844 C84.2386263,33.1117733 84.5698737,33.11078 84.9011211,33.1117733 Z" id="Fill-7" fill="#F7F7F7"></path>
                <path d="M84.8427632,4.68513452e-13 C86.0211947,0.00562888889 87.1989632,0.0317866667 88.3760684,0.0837711111 C90.7017632,0.186746667 93.0231474,0.384751111 95.3325947,0.677784444 C101.148821,1.41616222 106.886463,2.76146667 112.422837,4.68919556 C118.802416,6.91095111 124.909768,9.90452667 130.574795,13.5801911 C136.463637,17.4008822 141.873679,21.95366 146.642779,27.1014444 C150.784863,31.5724378 154.444168,36.4881133 157.532495,41.74086 C160.439116,46.6840178 162.838753,51.92352 164.678684,57.3534111 C166.503695,62.7382711 167.775963,68.30756 168.476589,73.9493622 C168.774347,76.3472689 168.968653,78.7580889 169.0605,81.1725511 C169.101947,82.2576022 169.120847,83.3433156 169.122505,84.42936 L169.122505,104.253313 C169.111895,104.438736 169.111895,104.62482 169.091005,104.80958 C169.007779,105.54862 168.756442,106.266138 168.360205,106.895911 C168.063111,107.367744 167.686105,107.788918 167.249747,108.136584 C166.667495,108.60014 165.981458,108.929927 165.2553,109.095482 C164.711179,109.219649 164.1465,109.251104 163.591768,109.188856 C163.037037,109.126276 162.493579,108.969991 161.990574,108.72828 C161.487568,108.486238 161.026674,108.159431 160.631763,107.765409 C159.972584,107.10716 159.507047,106.265807 159.299811,105.358562 C159.189063,104.874478 159.202658,104.746669 159.175137,104.253313 C159.175137,97.4857333 159.206305,90.7178222 159.173479,83.9502422 C159.161874,82.4340844 159.108821,80.91892 159.008021,79.4060733 C158.841237,76.9005556 158.547789,74.4036467 158.129337,71.9272667 C157.160463,66.1927533 155.509532,60.5757844 153.225284,55.2263533 C151.278916,50.6679467 148.870989,46.3075444 146.056879,42.2266 C143.642321,38.7251 140.927021,35.4308756 137.953089,32.3892889 C134.771258,29.1347978 131.292332,26.1700289 127.572347,23.5456422 C124.076842,21.0798578 120.370453,18.9137289 116.503579,17.0820222 C113.004426,15.42448 109.374963,14.0407667 105.659289,12.9497556 C102.096805,11.9037756 98.4560684,11.1263267 94.7772,10.6240311 C86.4724737,9.48964444 77.9737737,9.74890444 69.7559211,11.4004867 C62.8846105,12.7815511 56.2158947,15.1436978 50.0070789,18.3912356 C42.6503368,22.2394089 35.9511158,27.3209711 30.2569105,33.3571267 C27.3366947,36.4526844 24.6800842,39.7959133 22.3285263,43.3414511 C20.0863895,46.7211022 18.1207895,50.2828644 16.4592474,53.9820378 C13.8583421,59.77284 12.0104526,65.8970711 10.9716158,72.1583822 C10.5213316,74.8718378 10.2222474,77.6101267 10.0740316,80.3566933 C10.0053947,81.63412 9.97091053,82.91254 9.96494211,84.1916222 L9.96461053,84.4373067 L9.96461053,110.875536 L9.93311053,111.431802 C9.90194211,111.614576 9.88105263,111.799667 9.83993684,111.980784 C9.67414737,112.705918 9.34389474,113.390656 8.87935263,113.972087 C8.53119474,114.40816 8.10975789,114.784302 7.63692632,115.080978 C7.16442632,115.377653 6.64185789,115.593538 6.09740526,115.717704 C5.00551579,115.9667 3.84200526,115.835911 2.83267895,115.350502 C2.32967368,115.10846 1.86877895,114.781653 1.47386842,114.387631 C0.814689474,113.729382 0.349152632,112.888029 0.141915789,111.980784 C0.0311684211,111.4967 0.0447631579,111.368891 0.0172421053,110.875536 C0.0172421053,101.879578 -0.0225473684,92.88362 0.0189,83.8876622 C0.0275210526,82.8019489 0.0530526316,81.7165667 0.101463158,80.6315156 C0.212542105,78.1322889 0.433373684,75.6376978 0.764952632,73.1580067 C1.51730526,67.5304422 2.8413,61.9800267 4.71339474,56.6190067 C6.82621579,50.5689444 9.63667895,44.7642356 13.0668632,39.3495756 C16.4605737,33.9925289 20.4594158,29.0199022 24.9612632,24.5508956 C29.5237895,20.0212956 34.6025842,16.0112089 40.0706526,12.6255978 C45.3072789,9.38368889 50.8986947,6.71526444 56.7165789,4.68919556 C62.2529526,2.76146667 67.9905947,1.41616222 73.8068211,0.677784444 C76.0267421,0.396008889 78.2579368,0.202308889 80.4931105,0.0960222222 C81.6688895,0.0403955556 82.8459947,0.0109266667 84.0231,0.00132444444 C84.2963211,4.68513452e-13 84.5695421,-0.000331111111 84.8427632,4.68513452e-13 Z" id="Fill-8" fill="#F7F7F7"></path>
            </g>
        </g>
    </g>
</svg>