<?xml version="1.0" encoding="UTF-8"?>
<svg width="80px" height="80px" viewBox="0 0 80 80" version="1.1" xmlns="http://www.w3.org/2000/svg" xmlns:xlink="http://www.w3.org/1999/xlink">
    <!-- Generator: Sketch 43.1 (39012) - http://www.bohemiancoding.com/sketch -->
    <title>system_services</title>
    <desc>Created with Sketch.</desc>
    <defs></defs>
    <g id="Page-1" stroke="none" stroke-width="1" fill="none" fill-rule="evenodd">
        <g id="系统检测" transform="translate(-730.000000, -259.000000)" fill="#03A9F4">
            <g id="table" transform="translate(264.000000, 227.000000)">
                <g id="threats" transform="translate(49.000000, 32.000000)">
                    <g id="system_services" transform="translate(417.000000, 0.000000)">
                        <path d="M40.011881,0 C40.2889146,0.000833333333 40.5659482,0.00375 40.8425689,0.01 C41.3929203,0.0225 41.9424459,0.04625 42.4915587,0.08125 C43.989852,0.177083333 45.4823653,0.35875 46.9600154,0.625416667 C48.5119814,0.905416667 50.0470199,1.27916667 51.5539835,1.745 C53.0791133,2.21666667 54.5757552,2.78166667 56.0331748,3.43625 C58.0405328,4.33791667 59.9727492,5.40916667 61.804226,6.63416667 C63.6736866,7.88458333 65.4378662,9.295 67.0724056,10.8445833 C68.7197439,12.40625 70.2353777,14.1091667 71.597425,15.9295833 C72.9532794,17.7420833 74.1567859,19.6708333 75.1893657,21.68875 C76.0567987,23.38375 76.8032617,25.1416667 77.4204975,26.9445833 C78.0269987,28.7158333 78.5088142,30.5308333 78.8618153,32.3708333 C79.3432179,34.8829167 79.5830935,37.44125 79.5830935,40 C79.5830935,41.8277083 79.4608849,43.655375 79.2152292,45.46625 C78.9452144,47.4589583 78.524916,49.430875 77.9592886,51.3594583 C77.369302,53.3704583 76.6211875,55.3339167 75.7240281,57.2258333 C74.7087888,59.368 73.5032179,61.4179583 72.1275459,63.3447083 C70.7365979,65.2933333 69.1722458,67.115625 67.4596746,68.78325 C65.6744388,70.5215417 63.7285979,72.0915 61.6547683,73.4651667 C59.6156195,74.8157917 57.4530235,75.9762917 55.2024869,76.9253333 C52.7256993,77.969875 50.1432179,78.7574167 47.5074766,79.2719583 C45.0393593,79.7538333 42.5258266,79.9959167 40.011881,79.9999583 C37.4966969,80.0039583 34.980687,79.7697917 32.5096795,79.2954583 C29.8714611,78.7890833 27.2856767,78.009375 24.8047605,76.9721667 C22.550921,76.029875 20.3841963,74.8757917 18.3409189,73.5310833 C16.2625477,72.1636667 14.3121652,70.5995 12.5215622,68.8664583 C10.8044494,67.2040417 9.23473009,65.3865417 7.83800192,63.4421667 C6.45696268,61.5199167 5.24561167,59.4739167 4.2237665,57.3352083 C3.32123981,55.4465833 2.56734515,53.4860417 1.97116558,51.4774583 C1.39975802,49.5515417 0.97409241,47.5818333 0.697471696,45.590875 C0.440255719,43.7392917 0.312679897,41.869625 0.312679897,40 C0.312679897,37.4829167 0.544711003,34.96625 1.01083755,32.4933333 C1.35805848,30.65125 1.83450669,28.8345833 2.43564066,27.0604167 C3.04792203,25.255 3.78901783,23.4945833 4.65149644,21.79625 C5.67788315,19.775 6.87602242,17.8425 8.22692239,16.0254167 C9.58360248,14.20125 11.0942819,12.4933333 12.7370786,10.9266667 C14.3666636,9.3725 16.1267145,7.95708333 17.9920465,6.70083333 C19.8193946,5.47083333 21.748308,4.39375 23.752776,3.48583333 C25.2073056,2.82708333 26.7018831,2.2575 28.2253614,1.78125 C29.7302607,1.31125 31.2636477,0.932083333 32.8135495,0.6475 C34.289548,0.37625 35.7808227,0.19 37.2778775,0.0895833333 C37.8265774,0.0525 38.3756901,0.0270833333 38.9256286,0.0129166667 C39.2022494,0.00583333333 39.4788701,0.00208333333 39.7559037,0.000416666667 C39.8409542,0 39.9264176,0 40.011881,0 Z M39.8867824,2 C39.603143,2.00083333 39.3199164,2.00416667 39.0362769,2.01083333 C38.4739524,2.02458333 37.9112151,2.05041667 37.3497163,2.08916667 C35.9868432,2.18291667 34.6293374,2.35125 33.2846304,2.59416667 C31.9440521,2.83583333 30.6166856,3.15166667 29.3103752,3.54 C27.7274441,4.01 26.1758909,4.58625 24.6685145,5.26333333 C22.8997934,6.05791667 21.1925894,6.99083333 19.5658945,8.05083333 C17.6803321,9.27958333 15.9033536,10.6783333 14.2626212,12.2241667 C12.720564,13.6775 11.2986509,15.26125 10.0166997,16.9529167 C8.68396586,18.7120833 7.50316699,20.58875 6.49329496,22.555 C5.69398495,24.1120833 5.0020203,25.7245833 4.42441973,27.3783333 C3.8253501,29.0925 3.35014048,30.8508333 3.00209382,32.6345833 C2.54546321,34.9783333 2.31012917,37.3654167 2.29526597,39.7539583 C2.28411857,41.5730417 2.39930839,43.3927083 2.6437255,45.1950833 C2.89516134,47.04875 3.28284321,48.8837083 3.80388103,50.6793333 C4.36372832,52.6097083 5.07716205,54.4947917 5.93468626,56.3105 C6.37562794,57.2446667 6.85496622,58.1606667 7.37022391,59.0552917 C7.94039287,60.0452917 8.55515144,61.009125 9.21160955,61.9432917 C10.5629224,63.8672917 12.0921808,65.66425 13.7713098,67.3043333 C15.4925512,68.9852083 17.3715078,70.50125 19.3755629,71.8244583 C21.2825944,73.0835 23.3031642,74.1675833 25.404243,75.0576667 C27.8087789,76.0759583 30.3181829,76.8390833 32.880021,77.3306667 C33.9844395,77.542625 35.098354,77.7043333 36.2172228,77.8155833 C37.4161879,77.9348333 38.620933,77.9959167 39.826091,77.9997917 C42.354074,78.008 44.8824699,77.7629167 47.3613218,77.262625 C48.6932299,76.993875 50.0102748,76.6517083 51.3054378,76.2383333 C52.311594,75.917125 53.3041256,75.5524583 54.2797297,75.1464583 C56.6318315,74.1676667 58.8844325,72.945625 60.9921172,71.5077917 C62.7575353,70.3034583 64.4213883,68.9486667 65.9613812,67.4624583 C67.5686714,65.9115417 69.0401285,64.2177917 70.3534576,62.4068333 C71.7068347,60.5405 72.8917623,58.5499167 73.887184,56.466625 C74.6935127,54.77825 75.3755686,53.0294167 75.9250942,51.2389583 C76.5130164,49.3227917 76.9485908,47.3589583 77.2272759,45.3728333 C77.3498973,44.4998333 77.4423794,43.6225417 77.5047223,42.7430417 C77.5749097,41.7484167 77.6067004,40.751125 77.6005074,39.7539583 C77.5860571,37.4045833 77.3577418,35.0570833 76.9159743,32.7504167 C76.5666891,30.9270833 76.0832221,29.1295833 75.4713536,27.3783333 C74.8937531,25.7245833 74.2017884,24.1120833 73.4024784,22.555 C72.3926064,20.58875 71.2118075,18.7120833 69.8790737,16.9529167 C68.5971225,15.26125 67.1752094,13.6775 65.6327393,12.2241667 C64.0477439,10.73 62.3351727,9.37375 60.5197976,8.17541667 C58.8844325,7.09541667 57.1656682,6.14458333 55.3837354,5.33416667 C53.9684282,4.69041667 52.513073,4.13583333 51.028817,3.67458333 C49.6362175,3.24166667 48.2184332,2.89166667 46.7849599,2.62583333 C45.4229125,2.37333333 44.0468277,2.19708333 42.6657884,2.0975 C42.1047025,2.05708333 41.5427909,2.02916667 40.9804664,2.01416667 C40.7174703,2.00666667 40.4544742,2.0025 40.1914781,2.00083333 C40.0899128,2 39.9883476,2 39.8867824,2 Z" id="Fill-25"></path>
                        <path d="M57.7791882,49.8826667 C57.7994187,49.8845417 57.8196491,49.8858333 57.8398796,49.8883333 C57.8803406,49.893375 57.9203886,49.9009583 57.9600238,49.9109583 C58.0979213,49.9460417 58.2283872,50.0115 58.3394484,50.1016667 C58.4187188,50.1660417 58.4880804,50.2427917 58.5442303,50.328375 C58.6003801,50.414 58.6433183,50.5083333 58.6713932,50.6070833 C58.7044226,50.7256667 58.7159828,50.8502917 58.7048354,50.9730417 C58.693688,51.09575 58.6594201,51.2161667 58.6053345,51.3265 C58.5599192,51.4184167 58.5004664,51.5031667 58.4294533,51.576875 C58.3444028,51.665375 58.2432504,51.7377083 58.1321893,51.7892083 C58.0397071,51.832125 57.941032,51.8605417 57.8398796,51.8731667 C57.7862069,51.8799167 57.7721695,51.8790833 57.7180839,51.88075 L48.2419666,51.88075 C48.187881,51.8790833 48.1738436,51.8799167 48.1201709,51.8731667 C48.0190185,51.8605417 47.9203434,51.832125 47.8278612,51.7892083 C47.7168001,51.7377083 47.6156477,51.665375 47.5305972,51.576875 C47.4595841,51.5031667 47.4001313,51.4184167 47.354716,51.3265 C47.2915473,51.1977083 47.2560408,51.0553333 47.2514993,50.9115417 C47.2477835,50.7883333 47.2667753,50.6646667 47.3072363,50.5484167 C47.3410913,50.4515417 47.3898096,50.3600833 47.4513268,50.278125 C47.512431,50.1961667 47.5863342,50.123875 47.6693204,50.0645417 C47.7857488,49.9814583 47.9199305,49.9242083 48.0598923,49.8977917 C48.0999404,49.89025 48.1404014,49.8851667 48.1808623,49.8826667 C48.2010928,49.881375 48.2217361,49.881375 48.2419666,49.88075 L57.7180839,49.88075 C57.7383144,49.881375 57.7589577,49.8820417 57.7791882,49.8826667 Z" id="Fill-26"></path>
                        <path d="M57.7791882,30.9395833 C57.7994187,30.9416667 57.8196491,30.9429167 57.8398796,30.9454167 C57.8803406,30.9504167 57.9203886,30.9579167 57.9600238,30.9679167 C58.0979213,31.0033333 58.2283872,31.06875 58.3394484,31.15875 C58.4344077,31.23625 58.5153296,31.33125 58.5764339,31.4379167 C58.6375382,31.5445833 58.678412,31.6625 58.6974038,31.7845833 C58.7130928,31.8858333 58.7130928,31.99 58.6974038,32.09125 C58.6817149,32.1929167 58.650337,32.2916667 58.6053345,32.38375 C58.5599192,32.4754167 58.5004664,32.5604167 58.4294533,32.6341667 C58.3444028,32.7225 58.2432504,32.795 58.1321893,32.84625 C58.0397071,32.8891667 57.941032,32.9175 57.8398796,32.9304167 C57.7862069,32.9370833 57.7721695,32.93625 57.7180839,32.9379167 L48.2419666,32.9379167 C48.2217361,32.9370833 48.2010928,32.9370833 48.1808623,32.9358333 C48.1404014,32.9333333 48.0999404,32.9283333 48.0598923,32.9208333 C47.9199305,32.8945833 47.7857488,32.8370833 47.6693204,32.7541667 C47.5863342,32.6945833 47.512431,32.6225 47.4513268,32.5404167 C47.3898096,32.45875 47.3410913,32.3670833 47.3072363,32.2704167 C47.2667753,32.1541667 47.2477835,32.0304167 47.2514993,31.9070833 C47.2560408,31.7633333 47.2915473,31.6208333 47.354716,31.4920833 C47.4001313,31.4004167 47.4595841,31.3154167 47.5305972,31.2416667 C47.6156477,31.1533333 47.7168001,31.0808333 47.8278612,31.0295833 C47.9203434,30.9866667 48.0190185,30.9579167 48.1201709,30.9454167 C48.1738436,30.93875 48.187881,30.9395833 48.2419666,30.9379167 L57.7180839,30.9379167 C57.7383144,30.9383333 57.7589577,30.9391667 57.7791882,30.9395833 Z" id="Fill-27"></path>
                        <path d="M57.7791882,47.064 C57.8332737,47.0690417 57.8468983,47.0690833 57.9001582,47.079125 C58.0000719,47.098 58.0970956,47.1325 58.1871005,47.1810833 C58.2944459,47.2394167 58.3910567,47.317875 58.47074,47.4115 C58.5367987,47.4895 58.5908842,47.57775 58.6305194,47.6723333 C58.6701546,47.7669167 58.6953395,47.8675833 58.7048354,47.9698333 C58.7159828,48.0925833 58.7044226,48.2172083 58.6713932,48.3357917 C58.637951,48.4543333 58.5826269,48.566375 58.5087237,48.66475 C58.4476195,48.7467083 58.3737163,48.8189583 58.2907301,48.8782917 C58.1743017,48.9614167 58.04012,49.0186667 57.9001582,49.0450833 C57.8601101,49.052625 57.8196491,49.0577083 57.7791882,49.0602083 C57.7589577,49.0615 57.7383144,49.0615 57.7180839,49.062125 L48.2419666,49.062125 C48.187881,49.0604167 48.1738436,49.06125 48.1201709,49.0545417 C48.0190185,49.0419167 47.9203434,49.0135 47.8278612,48.9705833 C47.7168001,48.9190417 47.6156477,48.84675 47.5305972,48.75825 C47.4595841,48.6845417 47.4001313,48.5997917 47.354716,48.5078333 C47.2915473,48.3790833 47.2560408,48.2367083 47.2514993,48.0929167 C47.2477835,47.9697083 47.2667753,47.846 47.3072363,47.72975 C47.3410913,47.6329167 47.3898096,47.5414167 47.4513268,47.4594583 C47.512431,47.3775417 47.5863342,47.30525 47.6693204,47.2459167 C47.7857488,47.1627917 47.9199305,47.1055833 48.0598923,47.079125 C48.0999404,47.0715833 48.1404014,47.0665417 48.1808623,47.064 C48.2010928,47.06275 48.2217361,47.06275 48.2419666,47.062125 L57.7180839,47.062125 C57.7383144,47.06275 57.7589577,47.063375 57.7791882,47.064 Z" id="Fill-28"></path>
                        <path d="M57.7791882,28.12125 C57.7994187,28.1229167 57.8196491,28.1241667 57.8398796,28.1266667 C57.8803406,28.1316667 57.9203886,28.1395833 57.9600238,28.1495833 C58.0979213,28.1845833 58.2283872,28.25 58.3394484,28.34 C58.4187188,28.4045833 58.4880804,28.48125 58.5442303,28.5666667 C58.6003801,28.6525 58.6433183,28.7466667 58.6713932,28.8454167 C58.6990553,28.9441667 58.7118542,29.0475 58.7085512,29.15 C58.7048354,29.2733333 58.678412,29.3954167 58.6305194,29.5091667 C58.5830397,29.6225 58.5145039,29.7270833 58.4294533,29.8154167 C58.3444028,29.90375 58.2432504,29.97625 58.1321893,30.0275 C58.0397071,30.0704167 57.941032,30.0991667 57.8398796,30.1116667 C57.7862069,30.1183333 57.7721695,30.1175 57.7180839,30.1191667 L48.2419666,30.1191667 C48.2217361,30.11875 48.2010928,30.11875 48.1808623,30.1175 C48.1404014,30.115 48.0999404,30.1095833 48.0598923,30.1020833 C47.9199305,30.0758333 47.7857488,30.01875 47.6693204,29.9354167 C47.5863342,29.87625 47.512431,29.80375 47.4513268,29.7216667 C47.3898096,29.64 47.3410913,29.5483333 47.3072363,29.4516667 C47.2667753,29.3354167 47.2477835,29.2116667 47.2514993,29.0883333 C47.2560408,28.9445833 47.2915473,28.8020833 47.354716,28.6733333 C47.4001313,28.5816667 47.4595841,28.4966667 47.5305972,28.4229167 C47.6156477,28.3345833 47.7168001,28.2620833 47.8278612,28.2108333 C47.9203434,28.1679167 48.0190185,28.1395833 48.1201709,28.1266667 C48.1738436,28.12 48.187881,28.1208333 48.2419666,28.1191667 L57.7180839,28.1191667 C57.7383144,28.12 57.7589577,28.1204167 57.7791882,28.12125 Z" id="Fill-29"></path>
                        <path d="M24.7333345,45.0797083 C24.7981546,45.0803333 24.8625618,45.0819583 24.926969,45.08525 C25.0557835,45.0917917 25.184185,45.104125 25.3117608,45.1221667 C25.7204989,45.1799583 26.1205668,45.2969583 26.4966884,45.4685833 C26.990477,45.693875 27.4413275,46.0130833 27.8199263,46.4045417 C28.1853133,46.7827083 28.4825774,47.226875 28.6927266,47.71075 C28.8702593,48.1192083 28.9850362,48.5551667 29.032103,48.998625 C29.0812342,49.4595833 29.0581136,49.92825 28.9631543,50.381875 C28.8748008,50.8037083 28.7241044,51.2119167 28.5180839,51.5895 C28.2740797,52.0355 27.9532822,52.43775 27.5738577,52.773625 C27.2249853,53.0825 26.8273946,53.3345833 26.4000776,53.517125 C26.1445131,53.6261667 25.8786269,53.7104167 25.6073734,53.7683333 C25.320431,53.829625 25.0268828,53.8613333 24.7333345,53.8631667 C24.4302904,53.865125 24.1272462,53.8352917 23.830395,53.7739167 C23.566986,53.7195 23.3089443,53.6403333 23.0603985,53.53775 C22.5583526,53.330625 22.0959418,53.0278333 21.7033056,52.650125 C21.3308998,52.2916667 21.0216626,51.8665 20.7954116,51.3997917 C20.5947584,50.9858333 20.4593381,50.5403333 20.3961695,50.084 C20.3346523,49.642125 20.3400196,49.1907917 20.4122713,48.7505833 C20.4828715,48.323375 20.6162274,47.9072083 20.8069719,47.5193333 C21.0282684,47.0699583 21.3263582,46.6597917 21.6839008,46.3113333 C22.0360762,45.9685417 22.4452271,45.6861667 22.8894717,45.4799583 C23.2560974,45.309875 23.6458436,45.1919167 24.0446728,45.13025 C24.180506,45.10925 24.3175777,45.09475 24.4550624,45.0868333 C24.5198824,45.0830833 24.5851154,45.081 24.6499355,45.0799583 C24.6775975,45.0797083 24.7056725,45.079625 24.7333345,45.0797083 Z M24.6903964,47.0796667 C24.5743809,47.0807917 24.459191,47.0895417 24.3448269,47.1072083 C24.1330263,47.1399167 23.9257672,47.2019167 23.7304812,47.2910417 C23.4963858,47.3980417 23.2796308,47.543875 23.0913635,47.7207083 C22.8964904,47.90375 22.7325823,48.1197083 22.6083094,48.35725 C22.5017898,48.560375 22.4249966,48.7789583 22.3808199,49.00425 C22.3300373,49.2627083 22.3217799,49.5297083 22.3564607,49.7908333 C22.3886643,50.0345 22.4588517,50.2728333 22.563307,50.4949167 C22.6834512,50.750875 22.8494236,50.984625 23.0500769,51.1825417 C23.2614646,51.3908333 23.511249,51.5589583 23.7833282,51.6751667 C24.0698577,51.7975 24.3795078,51.8612083 24.6903964,51.8632083 C25.0016979,51.8652083 25.3125866,51.8053333 25.6011804,51.686375 C25.8744982,51.5734583 26.1263469,51.4082917 26.3402119,51.2024583 C26.5433423,51.0070417 26.711792,50.7754167 26.8352391,50.5210417 C26.9425845,50.3005833 27.015249,50.0635417 27.0503427,49.820625 C27.0875007,49.5647917 27.0837849,49.3027917 27.0383695,49.0482917 C26.9991472,48.8265 26.928547,48.6105833 26.8290461,48.4088333 C26.7105534,48.168125 26.5515997,47.948125 26.3608552,47.7603333 C26.1701108,47.572375 25.9479885,47.4170417 25.7068743,47.3031667 C25.5128269,47.2117917 25.3068064,47.14725 25.0958315,47.1119167 C24.9818803,47.092875 24.8666905,47.0826667 24.7515007,47.0800833 C24.7308573,47.07975 24.7106269,47.079625 24.6903964,47.0796667 Z" id="Fill-30"></path>
                        <path d="M24.7333345,26.1366667 C24.7981546,26.1375 24.8625618,26.1391667 24.926969,26.1425 C25.0557835,26.14875 25.184185,26.16125 25.3117608,26.1791667 C25.7204989,26.2370833 26.1205668,26.3541667 26.4966884,26.5258333 C26.990477,26.7508333 27.4413275,27.0704167 27.8199263,27.4616667 C28.1853133,27.84 28.4825774,28.2841667 28.6927266,28.7679167 C28.8702593,29.17625 28.9850362,29.6125 29.032103,30.0558333 C29.0812342,30.5166667 29.0581136,30.9854167 28.9631543,31.4391667 C28.8748008,31.8608333 28.7241044,32.2691667 28.5180839,32.6466667 C28.3033932,33.0391667 28.0292497,33.3979167 27.7076265,33.7070833 C27.328202,34.0725 26.8831316,34.3679167 26.4000776,34.5741667 C26.1445131,34.6833333 25.8786269,34.7675 25.6073734,34.8254167 C25.320431,34.8866667 25.0268828,34.9183333 24.7333345,34.9204167 C24.4302904,34.9220833 24.1272462,34.8925 23.830395,34.83125 C23.566986,34.7766667 23.3089443,34.6975 23.0603985,34.595 C22.5583526,34.3879167 22.0959418,34.085 21.7033056,33.7070833 C21.3308998,33.34875 21.0216626,32.92375 20.7954116,32.4570833 C20.5947584,32.0429167 20.4593381,31.5975 20.3961695,31.14125 C20.3346523,30.6991667 20.3400196,30.2479167 20.4122713,29.8079167 C20.4841101,29.37125 20.6220076,28.94625 20.8193579,28.5516667 C21.0394158,28.1120833 21.3329641,27.7104167 21.6839008,27.3683333 C22.0360762,27.0258333 22.4452271,26.7433333 22.8894717,26.5370833 C23.2560974,26.3670833 23.6458436,26.2491667 24.0446728,26.1875 C24.180506,26.16625 24.3175777,26.1520833 24.4550624,26.14375 C24.5198824,26.14 24.5851154,26.1379167 24.6499355,26.1370833 C24.6775975,26.1366667 24.7056725,26.1366667 24.7333345,26.1366667 Z M24.6903964,28.1366667 C24.5743809,28.1379167 24.459191,28.1466667 24.3448269,28.1641667 C24.1330263,28.1970833 23.9257672,28.2591667 23.7304812,28.3483333 C23.4963858,28.455 23.2796308,28.6008333 23.0913635,28.7779167 C22.8964904,28.9608333 22.7325823,29.1766667 22.6083094,29.4145833 C22.5017898,29.6175 22.4249966,29.83625 22.3808199,30.06125 C22.3300373,30.32 22.3217799,30.5866667 22.3564607,30.8479167 C22.3886643,31.0916667 22.4588517,31.33 22.563307,31.5520833 C22.6834512,31.8079167 22.8494236,32.0416667 23.0500769,32.2395833 C23.2614646,32.4479167 23.511249,32.61625 23.7833282,32.7325 C24.0698577,32.8545833 24.3795078,32.9183333 24.6903964,32.9204167 C25.0016979,32.9225 25.3125866,32.8625 25.6011804,32.7433333 C25.8744982,32.6304167 26.1263469,32.4654167 26.3402119,32.2595833 C26.5433423,32.0641667 26.711792,31.8325 26.8352391,31.5783333 C26.9425845,31.3575 27.015249,31.1208333 27.0503427,30.8779167 C27.0875007,30.6220833 27.0837849,30.36 27.0383695,30.1054167 C26.9991472,29.88375 26.928547,29.6675 26.8290461,29.4658333 C26.7105534,29.2254167 26.5515997,29.0054167 26.3608552,28.8175 C26.1701108,28.6295833 25.9479885,28.4741667 25.7068743,28.3604167 C25.5128269,28.26875 25.3068064,28.2045833 25.0958315,28.1691667 C24.9818803,28.15 24.8666905,28.1395833 24.7515007,28.1370833 C24.7308573,28.1366667 24.7106269,28.1366667 24.6903964,28.1366667 Z" id="Fill-31"></path>
                        <path d="M58.5405145,41.0209583 C58.7168086,41.022625 58.8922769,41.032125 59.0673324,41.05125 C59.4628588,41.094375 59.8530178,41.1837083 60.2283137,41.317125 C60.8583483,41.5412917 61.4433805,41.8899167 61.9429493,42.337375 C62.2757198,42.63525 62.5700938,42.97625 62.8169881,43.3495417 C63.0729655,43.737125 63.2777474,44.1593333 63.4230765,44.601625 C63.5345505,44.941375 63.6113437,45.2927083 63.6518047,45.6482917 C63.6679065,45.7912083 63.6782281,45.9348333 63.6827697,46.0785833 C63.6844211,46.1232083 63.684834,46.1677917 63.6852469,46.2124167 C63.6930913,48.3850833 63.6930913,50.5577917 63.6852469,52.7304583 C63.684834,52.7750833 63.6844211,52.8196667 63.6827697,52.8642917 C63.6782281,53.0080417 63.6679065,53.1515833 63.6518047,53.2945 C63.6088665,53.6717083 63.5250546,54.044125 63.4024332,54.4029583 C63.2959135,54.7134167 63.1604933,55.0135833 62.9982366,55.2983333 C62.8120337,55.624875 62.5907372,55.930875 62.3401271,56.2096667 C62.0618549,56.5187917 61.7464247,56.79425 61.4037453,57.0280833 C61.039184,57.276625 60.6432448,57.478125 60.2283137,57.62575 C59.8530178,57.7592083 59.4628588,57.8485417 59.0673324,57.8916667 C58.8922769,57.91075 58.7168086,57.92025 58.5405145,57.9219167 C46.1454293,57.9585417 33.7503441,57.9585417 21.3552589,57.9219167 C21.1789648,57.92025 21.0034964,57.91075 20.8284409,57.8916667 C20.4329146,57.8485417 20.0423427,57.7592083 19.6674597,57.62575 C19.2525286,57.478125 18.8565894,57.276625 18.4920281,57.0280833 C18.1493487,56.79425 17.8339185,56.5187917 17.5556463,56.2096667 C17.3050362,55.930875 17.0837396,55.624875 16.8975367,55.2983333 C16.7352801,55.0135833 16.5998598,54.7134167 16.4933402,54.4029583 C16.3707188,54.044125 16.2869068,53.6717083 16.2439687,53.2945 C16.2278669,53.1515833 16.2175452,53.0080417 16.2130037,52.8642917 C16.2113522,52.8196667 16.2109394,52.7750833 16.2105265,52.7304583 C16.202682,50.5577917 16.202682,48.3850833 16.2105265,46.2124167 C16.2109394,46.1677917 16.2113522,46.1232083 16.2130037,46.0785833 C16.2175452,45.9348333 16.2278669,45.7912083 16.2439687,45.6482917 C16.2844296,45.2927083 16.3612228,44.941375 16.4726969,44.601625 C16.618026,44.1593333 16.8228079,43.737125 17.0787852,43.3495417 C17.3256795,42.97625 17.6200535,42.63525 17.9528241,42.337375 C18.4523929,41.8899167 19.037425,41.5412917 19.6674597,41.317125 C20.0427555,41.1837083 20.4329146,41.094375 20.8284409,41.05125 C21.0034964,41.032125 21.1789648,41.022625 21.3552589,41.0209583 C33.7503441,40.9843333 46.1454293,40.9843333 58.5405145,41.0209583 Z M21.3878754,43.020875 C21.265254,43.02125 21.1430454,43.0278333 21.0212497,43.0419167 C20.7908701,43.0685 20.5637934,43.1205 20.344974,43.196875 C19.9003165,43.3518333 19.4919913,43.6073333 19.1559178,43.9387917 C18.9771465,44.1147917 18.8190185,44.3117917 18.6856626,44.5246667 C18.5576739,44.7286667 18.4523929,44.947125 18.3727096,45.1748333 C18.2959164,45.395125 18.2430694,45.6239167 18.2154074,45.8557917 C18.2005442,45.9784583 18.1931126,46.1017917 18.1922868,46.2252917 C18.1852681,48.389375 18.1852681,50.5535 18.1922868,52.7175833 C18.1931126,52.8410833 18.2005442,52.9644167 18.2154074,53.0870833 C18.2430694,53.319 18.2959164,53.54775 18.3727096,53.7680417 C18.5312504,54.2215833 18.7917693,54.6369167 19.1286686,54.976875 C19.4655678,55.316875 19.8767831,55.579625 20.326395,55.7395 C20.5448015,55.8171667 20.7714653,55.8705417 21.0010192,55.8985833 C21.1228149,55.9134167 21.2450235,55.92075 21.367232,55.9219583 C33.7544728,55.9615833 46.1413006,55.9615833 58.5285413,55.9219583 C58.6507499,55.92075 58.7729584,55.9134167 58.8947541,55.8985833 C59.124308,55.8705417 59.3509719,55.8171667 59.5693784,55.7395 C60.0185774,55.579625 60.4302055,55.316875 60.7671048,54.976875 C61.104004,54.6369167 61.364523,54.2215833 61.5230638,53.7680417 C61.599857,53.54775 61.6527039,53.319 61.680366,53.0870833 C61.6952292,52.9644167 61.7026608,52.8410833 61.7034865,52.7175833 C61.7105053,50.5535 61.7105053,48.389375 61.7034865,46.2252917 C61.7026608,46.1017917 61.6952292,45.9784583 61.680366,45.8557917 C61.6527039,45.6239167 61.599857,45.395125 61.5230638,45.1748333 C61.364523,44.7212917 61.104004,44.3059583 60.7671048,43.966 C60.4302055,43.6260417 60.0185774,43.36325 59.5693784,43.203375 C59.3509719,43.1257083 59.124308,43.0723333 58.8947541,43.0442917 C58.7729584,43.0294583 58.6507499,43.022125 58.5285413,43.0209583 C46.1483193,42.9813333 33.7680974,43.020875 21.3878754,43.020875 Z" id="Fill-32"></path>
                        <path d="M58.5413402,22.0779167 C58.5962515,22.07875 58.6515756,22.0795833 58.7068998,22.0816667 C58.8381914,22.0866667 58.9690701,22.0970833 59.099536,22.1120833 C59.4946495,22.1575 59.8839828,22.2491667 60.2580401,22.385 C60.6135184,22.51375 60.9545463,22.6820833 61.2736923,22.88625 C61.6233904,23.1095833 61.9458393,23.375 62.2331946,23.6754167 C62.5213755,23.97625 62.7732243,24.3125 62.9821348,24.67375 C63.1621447,24.9854167 63.3103639,25.3158333 63.4230765,25.65875 C63.5345505,25.9983333 63.6113437,26.35 63.6518047,26.7054167 C63.6679065,26.8483333 63.6782281,26.9920833 63.6827697,27.1358333 C63.6844211,27.1804167 63.684834,27.225 63.6852469,27.2695833 C63.6930913,29.4420833 63.6930913,31.615 63.6852469,33.7875 C63.684834,33.8320833 63.6844211,33.8766667 63.6827697,33.92125 C63.6782281,34.065 63.6679065,34.20875 63.6518047,34.3516667 C63.6088665,34.72875 63.5250546,35.10125 63.4024332,35.46 C63.2277905,35.9691667 62.9751161,36.4495833 62.6555572,36.8808333 C62.3644862,37.27375 62.0185039,37.6245833 61.6316477,37.9204167 C61.1894675,38.2583333 60.6936145,38.5240417 60.168448,38.7037083 C59.8117312,38.8257083 59.4418026,38.9079167 59.0673324,38.94875 C58.8926898,38.9678333 58.7172214,38.977375 58.5413402,38.9790417 C46.1458421,39.0229583 33.7499312,39.0229583 21.3544332,38.9790417 C21.1785519,38.977375 21.0030836,38.9678333 20.8284409,38.94875 C20.4539708,38.9079167 20.0840422,38.8257083 19.7273254,38.7037083 C19.2021589,38.5240417 18.7063059,38.2583333 18.2641256,37.9204167 C17.8768566,37.6245833 17.5312872,37.27375 17.2402161,36.8808333 C16.9206573,36.4495833 16.6679828,35.9691667 16.4933402,35.46 C16.3707188,35.10125 16.2869068,34.72875 16.2439687,34.3516667 C16.2278669,34.20875 16.2175452,34.065 16.2130037,33.92125 C16.2113522,33.8766667 16.2109394,33.8320833 16.2105265,33.7875 C16.202682,31.615 16.202682,29.4420833 16.2105265,27.2695833 C16.2109394,27.225 16.2113522,27.1804167 16.2130037,27.1358333 C16.2175452,26.9920833 16.2278669,26.8483333 16.2439687,26.7054167 C16.2844296,26.35 16.3612228,25.9983333 16.4726969,25.65875 C16.5854095,25.3158333 16.7336286,24.9854167 16.9136385,24.67375 C17.1225491,24.3125 17.3743978,23.97625 17.6625788,23.6754167 C17.9499341,23.375 18.272383,23.1095833 18.6220811,22.88625 C18.9412271,22.6820833 19.282255,22.51375 19.6377333,22.385 C20.0117905,22.2491667 20.4011239,22.1575 20.7962373,22.1120833 C20.9267032,22.0970833 21.057582,22.0866667 21.1888736,22.0816667 C21.2441977,22.0795833 21.2995219,22.07875 21.3544332,22.0779167 C33.7499312,22.0416667 46.1458421,22.0416667 58.5413402,22.0779167 Z M21.3878754,24.0779167 C21.265254,24.0783333 21.1430454,24.085 21.0212497,24.0991667 C20.7908701,24.1258333 20.5637934,24.1775 20.344974,24.2541667 C19.9003165,24.4091667 19.4919913,24.6645833 19.1559178,24.9958333 C18.9771465,25.1720833 18.8190185,25.36875 18.6856626,25.5816667 C18.5576739,25.7858333 18.4523929,26.0041667 18.3727096,26.2320833 C18.2959164,26.4520833 18.2430694,26.6808333 18.2154074,26.9129167 C18.2005442,27.0354167 18.1931126,27.15875 18.1922868,27.2825 C18.1852681,29.4466667 18.1852681,31.6104167 18.1922868,33.7745833 C18.1931126,33.8983333 18.2005442,34.0216667 18.2154074,34.1441667 C18.2430694,34.37625 18.2959164,34.605 18.3727096,34.825 C18.5312504,35.27875 18.7917693,35.6941667 19.1286686,36.0341667 C19.4655678,36.3741667 19.8767831,36.6366667 20.326395,36.7966667 C20.5448015,36.8741667 20.7714653,36.9275 21.0010192,36.9558333 C21.1228149,36.9704167 21.2450235,36.9779167 21.367232,36.9791667 C33.7544728,37.01875 46.1413006,37.01875 58.5285413,36.9791667 C58.6507499,36.9779167 58.7729584,36.9704167 58.8947541,36.9558333 C59.124308,36.9275 59.3509719,36.8741667 59.5693784,36.7966667 C60.0185774,36.6366667 60.4302055,36.3741667 60.7671048,36.0341667 C61.104004,35.6941667 61.364523,35.27875 61.5230638,34.825 C61.599857,34.605 61.6527039,34.37625 61.680366,34.1441667 C61.6952292,34.0216667 61.7026608,33.8983333 61.7034865,33.7745833 C61.7105053,31.6104167 61.7105053,29.4466667 61.7034865,27.2825 C61.7026608,27.15875 61.6952292,27.0354167 61.680366,26.9129167 C61.6527039,26.6808333 61.599857,26.4520833 61.5230638,26.2320833 C61.364523,25.7783333 61.104004,25.3629167 60.7671048,25.0229167 C60.4302055,24.6833333 60.0185774,24.4204167 59.5693784,24.2604167 C59.3509719,24.1829167 59.124308,24.1295833 58.8947541,24.10125 C58.7729584,24.0866667 58.6507499,24.0791667 58.5285413,24.0779167 C46.1483193,24.0383333 33.7680974,24.0779167 21.3878754,24.0779167 Z" id="Fill-33"></path>
                    </g>
                </g>
            </g>
        </g>
    </g>
</svg>