<?xml version="1.0" encoding="UTF-8"?>
<svg width="80px" height="80px" viewBox="0 0 80 80" version="1.1" xmlns="http://www.w3.org/2000/svg" xmlns:xlink="http://www.w3.org/1999/xlink">
    <!-- Generator: Sketch 43.1 (39012) - http://www.bohemiancoding.com/sketch -->
    <title>sacn_ports</title>
    <desc>Created with Sketch.</desc>
    <defs></defs>
    <g id="Page-1" stroke="none" stroke-width="1" fill="none" fill-rule="evenodd">
        <g id="系统检测" transform="translate(-1287.000000, -259.000000)" fill="#03A9F4">
            <g id="table" transform="translate(264.000000, 227.000000)">
                <g id="threats" transform="translate(49.000000, 32.000000)">
                    <g id="sacn_ports" transform="translate(974.000000, 0.000000)">
                        <path d="M40.4308519,0 C40.7074726,0.000833333333 40.9840933,0.00375 41.260714,0.01 C41.8098268,0.0225 42.3589396,0.04625 42.9080523,0.08125 C44.4067586,0.177083333 45.9013362,0.35875 47.3752704,0.625416667 C48.9276493,0.905416667 50.4635136,1.27916667 51.9704772,1.745 C53.4980841,2.21666667 54.9926617,2.78166667 56.4500813,3.43625 C58.4566136,4.33791667 60.38883,5.40916667 62.2219583,6.63416667 C64.0922446,7.88458333 65.8551856,9.295 67.4901379,10.8445833 C69.1374761,12.40625 70.6526971,14.1091667 72.0151573,15.9295833 C73.3693602,17.7420833 74.5749311,19.6708333 75.6070979,21.68875 C76.4741181,23.38375 77.2214069,25.1416667 77.8365783,26.9445833 C78.4434924,28.7158333 78.9265465,30.5308333 79.2774832,32.3708333 C79.7605373,34.8829167 80,37.44125 80,40 C80,41.8277083 79.87614,43.655375 79.6325486,45.46625 C79.3600566,47.4589583 78.9430612,49.430875 78.3774337,51.3594583 C77.7870343,53.3704583 77.0397455,55.3339167 76.139696,57.2258333 C75.1240438,59.368 73.918473,61.4179583 72.5436267,63.3447083 C71.1522658,65.2933333 69.5875009,67.115625 67.8782326,68.78325 C66.0905196,70.5215417 64.1459173,72.0915 62.0733263,73.4651667 C60.0337646,74.8157917 57.8703429,75.9762917 55.6202192,76.9253333 C53.1430187,77.969875 50.558473,78.7574167 47.9243832,79.2719583 C45.4554401,79.7538333 42.9410817,79.9959167 40.4308519,79.9999583 C37.9123648,80.0039583 35.3980064,79.7697917 32.9249346,79.2954583 C30.2867162,78.7890833 27.7021704,78.009375 25.2208413,76.9721667 C22.9665889,76.029875 20.8031672,74.8757917 18.7594768,73.5310833 C16.6786285,72.1636667 14.7298975,70.5995 12.9380559,68.8664583 C11.2205302,67.2040417 9.65163662,65.3865417 8.25614705,63.4421667 C6.87304348,61.5199167 5.66334394,59.4739167 4.63943443,57.3352083 C3.73938494,55.4465833 2.98383881,53.4860417 2.38931071,51.4774583 C1.81542595,49.5515417 1.39017321,47.5818333 1.11355249,45.590875 C0.857575115,43.7392917 0.729586426,41.869625 0.729586426,40 C0.729586426,37.4829167 0.960791799,34.96625 1.42733121,32.4933333 C1.77413927,30.65125 2.25306469,28.8345833 2.85172146,27.0604167 C3.46276423,25.255 4.20592435,23.4945833 5.06881584,21.79625 C6.09685401,19.775 7.29416755,17.8425 8.64424178,16.0254167 C9.99844468,14.20125 11.5095369,12.4933333 13.1527466,10.9266667 C14.7835702,9.3725 16.5423825,7.95708333 18.4085401,6.70083333 C20.2375398,5.47083333 22.1656274,4.39375 24.1680311,3.48583333 C25.6254507,2.82708333 27.1200283,2.2575 28.6435065,1.78125 C30.1463415,1.31125 31.6822057,0.932083333 33.230456,0.6475 C34.7085189,0.37625 36.1989678,0.19 37.6935454,0.0895833333 C38.2426582,0.0525 38.7917709,0.0270833333 39.3408837,0.0129166667 C39.6175044,0.00583333333 39.8941251,0.00208333333 40.1707458,0.000416666667 C40.2574479,0 40.3441499,0 40.4308519,0 Z M40.3028632,2 C39.5762177,2.00166667 38.8495723,2.02333333 38.1270555,2.06625 C36.6448639,2.15416667 35.1626723,2.33 33.7011241,2.59416667 C32.3593072,2.83583333 31.0340049,3.15166667 29.7252174,3.54 C28.1439378,4.01 26.5915589,4.58625 25.0845953,5.26333333 C23.0574196,6.17458333 21.1086886,7.2675 19.2714316,8.52458333 C17.5580346,9.69916667 15.9354684,11.0170833 14.4326334,12.4591667 C12.6985931,14.1229167 11.1214422,15.9533333 9.72595263,17.9170833 C8.65662778,19.4241667 7.69877695,21.0095833 6.85652881,22.6575 C6.034924,24.26875 5.32892188,25.9395833 4.74677978,27.6529167 C4.18115235,29.3175 3.72699894,31.0220833 3.39670555,32.7504167 C3.18201485,33.8641667 3.02099682,34.9870833 2.90539413,36.1154167 C2.77740544,37.4058333 2.71134677,38.703 2.71134677,40 C2.71134677,41.7770417 2.83107812,43.5537917 3.07879816,45.3137083 C3.3141322,47.0111667 3.66094026,48.6925833 4.12335101,50.3419583 C4.69723577,52.3899167 5.44452457,54.3891667 6.35283139,56.3102083 C6.59642276,56.8297917 6.85240014,57.343875 7.12076352,57.85175 C7.72767762,58.998 8.39239307,60.112875 9.11078119,61.1904583 C10.5888441,63.3995417 12.2898551,65.4519583 14.1890421,67.3043333 C15.840509,68.9187917 17.640608,70.3815417 19.5563097,71.6668333 C20.5348038,72.32275 21.5421987,72.9329167 22.5743655,73.4939583 C23.6313043,74.067125 24.7171439,74.5891667 25.8194981,75.0577083 C28.2265111,76.0761667 30.7367409,76.839125 33.2965147,77.3306667 C34.4029975,77.542625 35.513609,77.7042917 36.6324779,77.8155833 C37.8339201,77.934875 39.039491,77.9959167 40.2409332,77.9997917 C42.7718063,78.008 45.2985507,77.7629167 47.7798798,77.262625 C49.2042701,76.9748333 50.6121456,76.6029583 51.9952492,76.1493333 C52.9076847,75.8501667 53.8118628,75.5153333 54.6953977,75.146375 C57.1024107,74.146 59.4020785,72.8908333 61.5489855,71.4113333 C63.2458678,70.2420833 64.8519194,68.9330417 66.3382397,67.5017917 C68.1383386,65.7695417 69.7691622,63.8579583 71.1976812,61.8033333 C71.6353199,61.1786667 72.0481866,60.5410417 72.4486674,59.8912917 C73.1051255,58.815625 73.7079109,57.706625 74.252895,56.5701667 C75.1075292,54.7974583 75.8217886,52.9570833 76.3915447,51.0715833 C76.9489148,49.2274583 77.3659102,47.340125 77.6342736,45.431875 C77.7829056,44.3994167 77.8861223,43.360875 77.9480523,42.3197917 C77.9934677,41.5882083 78.014111,40.8554167 78.0182397,40.1225 C78.0223683,39.3687083 78.001725,38.6148333 77.9604383,37.8620833 C77.9191516,37.1391667 77.8613503,36.4170833 77.778777,35.6970833 C77.6714316,34.7291667 77.5269282,33.7654167 77.3452669,32.8083333 C76.9902015,30.9458333 76.4947614,29.1108333 75.867204,27.3233333 C75.3263485,25.7791667 74.6864051,24.2708333 73.9515023,22.81125 C72.8863061,20.7008333 71.6270626,18.6916667 70.194415,16.8170833 C69.4553835,15.8533333 68.6750654,14.9254167 67.8493319,14.0366667 C67.2548038,13.39875 66.643761,12.7808333 66.0079463,12.185 C64.2532626,10.5370833 62.3458183,9.05791667 60.314514,7.77416667 C58.8694804,6.85833333 57.3583881,6.0425 55.8018805,5.33416667 C54.2082149,4.61 52.569134,3.99916667 50.892895,3.50708333 C49.6212655,3.13375 48.3289926,2.82916667 47.0284624,2.59416667 C45.7238035,2.35833333 44.4067586,2.19291667 43.0814563,2.0975 C42.5199576,2.05708333 41.9584588,2.02916667 41.3969601,2.01416667 C41.1327253,2.00666667 40.8726193,2.0025 40.6083846,2.00083333 C40.5051679,2 40.4060799,2 40.3028632,2 Z" id="Fill-1"></path>
                        <path d="M40.4473666,30.8654167 C40.4721386,30.86875 40.5010392,30.8708333 40.5299399,30.8754167 C40.6083846,30.8891667 40.6868293,30.9129167 40.7611453,30.94625 C40.889134,31.00125 41.000608,31.0829167 41.0955673,31.1845833 C41.186398,31.2858333 41.2565854,31.4066667 41.3020007,31.5370833 C41.3267727,31.6154167 41.347416,31.6966667 41.3515447,31.7791667 C41.3556734,31.8066667 41.3556734,31.8341667 41.3556734,31.8616667 L41.3556734,49.053125 C41.3556734,49.080625 41.3556734,49.10825 41.3515447,49.1357083 C41.347416,49.1906667 41.3391587,49.245125 41.3267727,49.2985833 C41.2772287,49.4860417 41.1781407,49.657875 41.037766,49.7888333 C40.9551926,49.8635 40.864362,49.9245833 40.7611453,49.968875 C40.6868293,50.0020833 40.6083846,50.025875 40.5299399,50.0394583 C40.3936939,50.0621667 40.2533192,50.056375 40.1212018,50.0225 C39.9643125,49.981875 39.8156805,49.9009583 39.6918204,49.7888333 C39.6133758,49.7141667 39.5473171,49.6260417 39.4936444,49.5290417 C39.4399717,49.4320833 39.4069424,49.3264583 39.386299,49.2177083 C39.373913,49.145125 39.3780417,49.1264167 39.373913,49.053125 L39.373913,31.8616667 C39.373913,31.8341667 39.373913,31.8066667 39.3780417,31.7791667 C39.3821704,31.6966667 39.4028137,31.6154167 39.4275857,31.5370833 C39.4730011,31.4066667 39.5431884,31.2858333 39.6340191,31.1845833 C39.7454931,31.0629167 39.8858678,30.9695833 40.0427572,30.9158333 C40.1212018,30.8891667 40.1996465,30.8720833 40.2822199,30.8654167 C40.3111205,30.8629167 40.3358925,30.8629167 40.3647932,30.8616667 C40.3936939,30.8629167 40.4184659,30.8641667 40.4473666,30.8654167 Z" id="Fill-2"></path>
                        <path d="M54.2288583,25.5266667 C54.2784023,25.53125 54.2907883,25.53125 54.3403323,25.54 C54.418777,25.5533333 54.493093,25.5758333 54.5632803,25.6066667 C54.703655,25.6683333 54.8316437,25.7629167 54.9307317,25.8820833 C55.0174337,25.98625 55.0793637,26.1079167 55.1206504,26.2379167 C55.1371651,26.29375 55.1495511,26.3508333 55.1536797,26.40875 C55.1619371,26.46 55.1578084,26.4733333 55.1619371,26.525 L55.1619371,35.1204167 C55.1619371,35.14 55.1619371,35.1591667 55.1578084,35.17875 C55.1578084,35.2175 55.1536797,35.2558333 55.1454224,35.2941667 C55.1247791,35.4279167 55.0711064,35.5566667 54.9967904,35.67 C54.9472464,35.75125 54.8811877,35.8241667 54.8068717,35.8866667 C54.7325557,35.94875 54.6499823,36.0004167 54.5632803,36.03875 C54.4394203,36.0925 54.3031743,36.1204167 54.1710569,36.1204167 C54.0554542,36.1204167 53.9398515,36.1 53.8325062,36.06 C53.7210322,36.0204167 53.6219441,35.96125 53.5352421,35.8866667 C53.4320255,35.7991667 53.3453234,35.6908333 53.2833934,35.5691667 C53.2338494,35.4654167 53.2008201,35.3520833 53.1843054,35.2366667 C53.1801767,35.1854167 53.1801767,35.1720833 53.1801767,35.1204167 L53.1801767,27.525 L45.6536161,27.525 L45.5958148,27.5233333 C45.5462708,27.51875 45.5297561,27.51875 45.4802121,27.5095833 C45.3687381,27.4895833 45.2572641,27.4491667 45.158176,27.3908333 C45.0425733,27.3229167 44.9393567,27.2308333 44.8567833,27.1220833 C44.798982,27.0441667 44.7535666,26.9579167 44.7205373,26.8670833 C44.687508,26.7758333 44.6709933,26.68 44.6627359,26.5829167 C44.6586073,26.4666667 44.6709933,26.3495833 44.7040226,26.2379167 C44.737052,26.1266667 44.7907246,26.02125 44.8567833,25.9275 C44.9269707,25.8341667 45.0136727,25.7533333 45.108632,25.6891667 C45.220106,25.6145833 45.3480947,25.56375 45.4802121,25.54 C45.5173701,25.5333333 45.5586568,25.52875 45.5958148,25.5266667 C45.6164581,25.5254167 45.6329728,25.5254167 45.6536161,25.525 L54.1710569,25.525 C54.1875716,25.5254167 54.2082149,25.5258333 54.2288583,25.5266667 Z" id="Fill-3"></path>
                        <path d="M35.1337717,25.5266667 C35.1833157,25.53125 35.1998303,25.53125 35.2493743,25.54 C35.3608484,25.5604167 35.4723224,25.6008333 35.5714104,25.65875 C35.6870131,25.7266667 35.7902298,25.81875 35.8728031,25.9275 C35.9388618,26.02125 35.9925345,26.1266667 36.0255638,26.2379167 C36.0544645,26.3308333 36.0668505,26.4279167 36.0668505,26.525 C36.0668505,26.6216667 36.0544645,26.71875 36.0255638,26.8116667 C35.9925345,26.9233333 35.9388618,27.02875 35.8728031,27.1220833 C35.8026158,27.2154167 35.7159138,27.29625 35.6209544,27.3604167 C35.5094804,27.435 35.3814917,27.48625 35.2493743,27.5095833 C35.2122163,27.51625 35.1709297,27.5208333 35.1337717,27.5233333 C35.1131283,27.5241667 35.0966136,27.5241667 35.0759703,27.525 L27.5494097,27.525 L27.5494097,35.1204167 L27.5494097,35.17875 C27.545281,35.23 27.545281,35.2433333 27.5370237,35.2941667 C27.5163803,35.40875 27.4750937,35.5195833 27.4172923,35.6204167 C27.3512337,35.7383333 27.260403,35.8416667 27.148929,35.9225 C27.0580983,35.9920833 26.9548816,36.045 26.8434076,36.0783333 C26.7525769,36.10625 26.6534889,36.1204167 26.5585295,36.1204167 C26.4429268,36.1204167 26.3273241,36.1 26.2199788,36.06 C26.1126334,36.0204167 26.0094168,35.96125 25.9227147,35.8866667 C25.8483987,35.8241667 25.78234,35.75125 25.732796,35.67 C25.65848,35.5566667 25.6048074,35.4279167 25.584164,35.2941667 C25.5759067,35.2558333 25.571778,35.2175 25.571778,35.17875 C25.5676493,35.1591667 25.5676493,35.14 25.5676493,35.1204167 L25.5676493,26.525 C25.571778,26.4733333 25.5676493,26.46 25.5759067,26.40875 C25.584164,26.3316667 25.6006787,26.2558333 25.6295794,26.1829167 C25.6791234,26.0370833 25.7658254,25.9041667 25.8772994,25.7975 C25.9763874,25.7041667 26.0919901,25.6316667 26.2199788,25.585 C26.2942948,25.55875 26.3686108,25.5408333 26.4429268,25.5316667 C26.4965995,25.5254167 26.5089855,25.52625 26.5585295,25.525 L35.0759703,25.525 C35.0966136,25.5254167 35.1131283,25.5258333 35.1337717,25.5266667 Z" id="Fill-4"></path>
                        <path d="M26.5915589,35.1204167 C26.6823895,35.1216667 26.7732202,35.1241667 26.8640509,35.1291667 C27.0333263,35.13875 27.198473,35.1566667 27.3636197,35.1820833 C27.8384164,35.255 28.3008271,35.3933333 28.7343372,35.5920833 C29.258678,35.8308333 29.7417321,36.15625 30.1628561,36.5508333 C30.5963662,36.9595833 30.9638176,37.44125 31.2404383,37.97125 C31.4757724,38.4245833 31.6491764,38.9122917 31.7482644,39.4150417 C31.8597384,39.9917083 31.8762531,40.5874583 31.8019371,41.1701667 C31.7276211,41.713875 31.5707317,42.245625 31.3395263,42.7412083 C31.0670343,43.322 30.6871969,43.8514583 30.2289148,44.2978333 C29.7541181,44.759875 29.196748,45.1317083 28.5857052,45.3873333 C28.2554118,45.5262083 27.9127324,45.63075 27.5617957,45.698875 C27.2315023,45.7626667 26.8929516,45.7944167 26.5585295,45.7944167 C26.2241075,45.7944167 25.8896854,45.7626667 25.559392,45.698875 C25.2084553,45.63075 24.8616472,45.5262083 24.5313538,45.3873333 C23.9244397,45.1317083 23.362941,44.759875 22.8881442,44.2978333 C22.4298621,43.8514583 22.0500247,43.322 21.7775327,42.7412083 C21.5463273,42.245625 21.389438,41.713875 21.3192506,41.1701667 C21.2408059,40.5874583 21.2573206,39.9917083 21.3729233,39.4150417 C21.4720113,38.9122917 21.6412867,38.4245833 21.8807494,37.97125 C22.1573701,37.44125 22.5248215,36.9595833 22.9583316,36.5508333 C23.3794556,36.15625 23.8625097,35.8308333 24.3827218,35.5920833 C24.8203606,35.3933333 25.2827713,35.255 25.7534394,35.1820833 C25.9185861,35.1566667 26.0878614,35.13875 26.2530081,35.1291667 C26.3438388,35.1241667 26.4346695,35.1216667 26.5255002,35.1204167 L26.5915589,35.1204167 Z M26.5378862,37.1204167 C26.4800848,37.12125 26.4222835,37.1229167 26.3644821,37.1258333 C26.2530081,37.1325 26.1415341,37.1445833 26.0341888,37.1625 C25.7410534,37.2095833 25.4520467,37.2975 25.1836833,37.4229167 C24.7543019,37.6220833 24.3662071,37.915 24.0606858,38.2754167 C23.8707671,38.4937083 23.7138777,38.736375 23.585889,38.9955833 C23.462029,39.2517083 23.3711983,39.5243333 23.3175256,39.8040833 C23.2390809,40.1930417 23.2308236,40.5963333 23.2927536,40.987875 C23.3464263,41.3107917 23.4455143,41.6259167 23.585889,41.9195417 C23.759293,42.275 23.9946271,42.5990833 24.2795051,42.8720833 C24.5726405,43.15475 24.9153199,43.38325 25.2910286,43.540625 C25.4809473,43.6190833 25.6749947,43.6800833 25.8731707,43.7223333 C26.0961188,43.7705 26.3273241,43.7944167 26.5585295,43.7944167 C26.7608342,43.7944167 26.9672676,43.7759583 27.1654436,43.7385417 C27.3925203,43.69625 27.6154684,43.6297083 27.8260304,43.540625 C28.2017391,43.38325 28.5444185,43.1547917 28.8416826,42.8720833 C29.122432,42.5996667 29.357766,42.276125 29.53117,41.9212083 C29.6013574,41.775 29.6632874,41.6238333 29.7128314,41.46875 C29.7665041,41.2915 29.8077907,41.1094583 29.8325627,40.92525 C29.8573347,40.770375 29.8655921,40.613875 29.8655921,40.4574583 C29.8655921,40.211 29.8408201,39.964375 29.7871474,39.723875 C29.7210887,39.4324583 29.617872,39.1504583 29.4774973,38.887125 C29.295836,38.5446667 29.0522446,38.2341667 28.7673666,37.975 C28.5196465,37.7504167 28.2388971,37.5633333 27.9375044,37.4229167 C27.6650124,37.2975 27.3801343,37.2095833 27.0869989,37.1625 C26.9755249,37.1445833 26.8640509,37.1325 26.7525769,37.12625 C26.6947755,37.1229167 26.6369742,37.12125 26.5791729,37.1204167 L26.5378862,37.1204167 Z" id="Fill-5"></path>
                        <path d="M54.2040862,35.1204167 C54.2949169,35.1216667 54.3857476,35.1241667 54.4765783,35.1291667 C54.641725,35.13875 54.8110004,35.1566667 54.976147,35.1820833 C55.4468151,35.255 55.9092259,35.3933333 56.3468646,35.5920833 C56.8670767,35.8308333 57.3501308,36.15625 57.7712549,36.5508333 C58.2047649,36.9595833 58.5722163,37.44125 58.848837,37.97125 C59.0882998,38.4245833 59.2575751,38.9122917 59.3566631,39.4150417 C59.4722658,39.9917083 59.4887805,40.5874583 59.4103358,41.1701667 C59.3401485,41.713875 59.1832591,42.245625 58.9520537,42.7412083 C58.675433,43.322 58.2997243,43.8514583 57.8414422,44.2978333 C57.3666455,44.759875 56.8051467,45.1317083 56.1982326,45.3873333 C55.8679392,45.5262083 55.5211311,45.63075 55.1701944,45.698875 C54.839901,45.7626667 54.505479,45.7944167 54.1710569,45.7944167 C53.8366349,45.7944167 53.4980841,45.7626667 53.1677907,45.698875 C52.816854,45.63075 52.4741746,45.5262083 52.1438812,45.3873333 C51.5328385,45.1317083 50.9754684,44.759875 50.5006716,44.2978333 C50.0423895,43.8514583 49.6625521,43.322 49.3900601,42.7412083 C49.1588547,42.245625 49.0019654,41.713875 48.9276493,41.1701667 C48.8533333,40.5874583 48.869848,39.9917083 48.981322,39.4150417 C49.08041,38.9122917 49.2538141,38.4245833 49.4891481,37.97125 C49.7657688,37.44125 50.1332202,36.9595833 50.5667303,36.5508333 C50.9878544,36.15625 51.4709084,35.8308333 51.9952492,35.5920833 C52.4287593,35.3933333 52.89117,35.255 53.3659668,35.1820833 C53.5311135,35.1566667 53.6962602,35.13875 53.8655355,35.1291667 C53.9563662,35.1241667 54.0471969,35.1216667 54.1380276,35.1204167 L54.2040862,35.1204167 Z M54.1504136,37.1204167 C54.0926122,37.12125 54.0348109,37.1229167 53.9770095,37.1258333 C53.8655355,37.1325 53.7540615,37.1445833 53.6425875,37.1625 C53.3494521,37.2095833 53.0645741,37.2975 52.792082,37.4229167 C52.4122446,37.5995833 52.0654366,37.8504167 51.7764298,38.1566667 C51.5410958,38.4043333 51.3470484,38.6884167 51.1984164,38.9955833 C51.0745564,39.2517083 50.9837257,39.5243333 50.9259244,39.8040833 C50.8516083,40.1930417 50.843351,40.5963333 50.905281,40.987875 C50.954825,41.3107917 51.053913,41.6259167 51.1984164,41.9195417 C51.3718204,42.275 51.6071545,42.5990833 51.8879039,42.8720833 C52.1851679,43.15475 52.5278473,43.38325 52.903556,43.540625 C53.0893461,43.6190833 53.2833934,43.6800833 53.4815695,43.7223333 C53.7086462,43.7705 53.9398515,43.7944167 54.1710569,43.7944167 C54.3733616,43.7944167 54.5756663,43.7759583 54.777971,43.7385417 C55.0050477,43.69625 55.2238671,43.6297083 55.4385578,43.540625 C55.8101379,43.3835417 56.1569459,43.1555833 56.4500813,42.8730833 C56.6234853,42.706375 56.7803747,42.52125 56.912492,42.3210833 C57.0074514,42.1814167 57.0900247,42.03475 57.1602121,41.8825417 C57.2964581,41.59325 57.3914175,41.283625 57.4368328,40.967 C57.4657335,40.7985 57.4781195,40.6279583 57.4781195,40.4574583 C57.4781195,40.2314167 57.4533475,40.0053333 57.4079321,39.7838333 C57.3501308,39.4845417 57.2469141,39.194 57.1065394,38.9229583 C56.924878,38.5721667 56.6812867,38.2541667 56.39228,37.9883333 C56.1404312,37.7579167 55.8555532,37.56625 55.5459031,37.4229167 C55.2899258,37.3033333 55.0174337,37.2175 54.7366843,37.1691667 C54.5632803,37.1391667 54.3898763,37.12375 54.2123436,37.1208333 C54.1917002,37.1204167 54.1710569,37.1204167 54.1504136,37.1204167 Z" id="Fill-6"></path>
                        <path d="M40.3978226,49.0532083 C40.4886532,49.0540833 40.5794839,49.0567083 40.6703146,49.0619167 C40.83959,49.0715417 41.0047367,49.089125 41.1698834,49.1146667 C41.6405514,49.187625 42.1029622,49.3259583 42.5406009,49.524875 C43.0649417,49.763625 43.5479958,50.089 43.9649912,50.483625 C44.4026299,50.892 44.7659526,51.3739167 45.0425733,51.9039583 C45.2820361,52.3572083 45.4513114,52.8449167 45.5503994,53.3476667 C45.6660021,53.9243333 45.6825168,54.5200833 45.6082008,55.10275 C45.5338848,55.6465 45.3769954,56.17825 45.14579,56.6737917 C44.873298,57.254625 44.4934606,57.7840833 44.0351785,58.2304583 C43.5603818,58.6925 43.0030117,59.0642917 42.3919689,59.3199583 C42.0616755,59.4588333 41.7189961,59.563375 41.3639307,59.6315 C41.037766,59.6952917 40.6992153,59.7270417 40.3647932,59.7270417 C40.0303712,59.7270417 39.6918204,59.6952917 39.3656557,59.6315 C39.0105903,59.563375 38.6679109,59.4588333 38.3376175,59.3199583 C37.7265748,59.0642917 37.1692047,58.6925 36.6944079,58.2304583 C36.2361258,57.7840833 35.8562884,57.254625 35.5837964,56.6737917 C35.352591,56.17825 35.1957017,55.6465 35.1213856,55.10275 C35.0470696,54.5200833 35.0635843,53.9243333 35.179187,53.3476667 C35.278275,52.8449167 35.4475504,52.3572083 35.6828844,51.9039583 C35.9636338,51.3739167 36.3269565,50.892 36.7645953,50.483625 C37.1815907,50.089 37.6646448,49.763625 38.1889855,49.524875 C38.6266242,49.3259583 39.089035,49.187625 39.5597031,49.1146667 C39.7248498,49.089125 39.8899965,49.0715417 40.0592718,49.0619167 C40.1501025,49.0567083 40.2409332,49.0540833 40.3317639,49.0532083 C40.3524072,49.0531667 40.3771792,49.0531667 40.3978226,49.0532083 Z M40.3441499,51.0532083 C40.2863485,51.05375 40.2285472,51.055375 40.1707458,51.0586667 C40.0675292,51.0647083 39.9643125,51.0757083 39.8610958,51.0917083 C39.5597031,51.1380833 39.262439,51.2271667 38.989947,51.3554583 C38.6555249,51.50975 38.3500035,51.7204167 38.0857688,51.9752083 C37.8380488,52.2110833 37.6316154,52.4849583 37.4664687,52.7844167 C37.3178367,53.0517917 37.2104913,53.3392083 37.1444327,53.636625 C37.0494733,54.0364167 37.0329586,54.4535417 37.09076,54.8597917 C37.1361753,55.1910417 37.2311347,55.5147083 37.375638,55.816875 C37.5449134,56.1741667 37.7761188,56.5007083 38.0568682,56.7768333 C38.3500035,57.067875 38.7009403,57.3030833 39.0807777,57.465625 C39.2706964,57.5478333 39.4730011,57.611375 39.6753058,57.6549583 C39.8941251,57.701625 40.1212018,57.7255417 40.3441499,57.7269583 C40.5547119,57.7282917 40.7652739,57.71 40.9717073,57.6712083 C41.1905267,57.6300417 41.4052174,57.56625 41.6116508,57.4809583 C41.9873595,57.325875 42.3341676,57.0995417 42.6314316,56.818625 C42.9163097,56.5479167 43.1557724,56.22575 43.3291764,55.871875 C43.3828491,55.75675 43.4365217,55.6385 43.4778084,55.5175417 C43.5479958,55.3172083 43.6016684,55.1100417 43.6346978,54.899625 C43.6924991,54.5078333 43.6842418,54.10475 43.6057971,53.7164583 C43.5397384,53.4038333 43.4323931,53.1010417 43.283761,52.81975 C43.085585,52.4469167 42.8172216,52.1134583 42.4951856,51.8402917 C42.2722375,51.6495417 42.0245175,51.488875 41.7602828,51.363875 C41.4795334,51.231 41.1781407,51.139125 40.8684906,51.0916667 C40.7239873,51.0691667 40.5753552,51.0570833 40.4308519,51.05375 C40.4019512,51.0532917 40.3730505,51.0530833 40.3441499,51.0532083 Z" id="Fill-7"></path>
                        <path d="M40.3978226,21.1879167 C40.4886532,21.18875 40.5794839,21.1916667 40.6703146,21.1966667 C40.83959,21.20625 41.0047367,21.22375 41.1698834,21.2495833 C41.6405514,21.3225 42.1029622,21.4608333 42.5406009,21.6595833 C43.0649417,21.8983333 43.5479958,22.22375 43.9649912,22.6183333 C44.4026299,23.0266667 44.7659526,23.50875 45.0425733,24.03875 C45.2820361,24.4920833 45.4513114,24.9795833 45.5503994,25.4825 C45.6660021,26.0591667 45.6825168,26.655 45.6082008,27.2375 C45.5338848,27.78125 45.3769954,28.3129167 45.14579,28.80875 C44.873298,29.3895833 44.4934606,29.91875 44.0351785,30.3654167 C43.5603818,30.8270833 43.0030117,31.1991667 42.3919689,31.4545833 C42.0616755,31.59375 41.7189961,31.6983333 41.3639307,31.76625 C41.037766,31.83 40.6992153,31.8616667 40.3647932,31.8616667 C40.0303712,31.8616667 39.6918204,31.83 39.3656557,31.76625 C39.0105903,31.6983333 38.6679109,31.59375 38.3376175,31.4545833 C37.7265748,31.1991667 37.1692047,30.8270833 36.6944079,30.3654167 C36.2361258,29.91875 35.8562884,29.3895833 35.5837964,28.80875 C35.352591,28.3129167 35.1957017,27.78125 35.1213856,27.2375 C35.0470696,26.655 35.0635843,26.0591667 35.179187,25.4825 C35.278275,24.9795833 35.4475504,24.4920833 35.6828844,24.03875 C35.9636338,23.50875 36.3269565,23.0266667 36.7645953,22.6183333 C37.1815907,22.22375 37.6646448,21.8983333 38.1889855,21.6595833 C38.6266242,21.4608333 39.089035,21.3225 39.5597031,21.2495833 C39.7248498,21.22375 39.8899965,21.20625 40.0592718,21.1966667 C40.1501025,21.1916667 40.2409332,21.18875 40.3317639,21.1879167 L40.3978226,21.1879167 Z M40.3441499,23.1879167 C40.2946059,23.1883333 40.2450619,23.1895833 40.1913892,23.1920833 C40.0757865,23.1983333 39.9560551,23.2108333 39.8404525,23.2295833 C39.5431884,23.2770833 39.2583104,23.365 38.989947,23.4904167 C38.5605656,23.6895833 38.1724708,23.9825 37.8628208,24.3429167 C37.6770308,24.56125 37.5160127,24.80375 37.3921527,25.0629167 C37.2682927,25.3191667 37.177462,25.5916667 37.1196607,25.8716667 C37.0742453,26.1008333 37.053602,26.335 37.0577306,26.56875 C37.0618593,26.7175 37.0701166,26.86625 37.0948887,27.0133333 C37.140304,27.3304167 37.2311347,27.64125 37.3673807,27.93125 C37.4293107,28.0720833 37.5036267,28.2079167 37.5903287,28.3379167 C37.7224461,28.5458333 37.8793355,28.73875 38.0568682,28.9120833 C38.3500035,29.2029167 38.7009403,29.4379167 39.0807777,29.6004167 C39.2913397,29.6908333 39.5101591,29.7583333 39.7372358,29.8020833 C39.9354118,29.8408333 40.1418452,29.8604167 40.3441499,29.8616667 C40.5753552,29.8633333 40.8065606,29.8408333 41.0336373,29.7941667 C41.2318134,29.7529167 41.4258607,29.6929167 41.6116508,29.6158333 C41.9873595,29.4608333 42.3341676,29.2341667 42.6314316,28.9533333 C42.9163097,28.6825 43.1557724,28.3604167 43.3291764,28.0066667 C43.3828491,27.8916667 43.4365217,27.7733333 43.4778084,27.6525 C43.5479958,27.4520833 43.6016684,27.245 43.6346978,27.0345833 C43.6924991,26.6429167 43.6842418,26.2395833 43.6057971,25.85125 C43.5397384,25.53875 43.4323931,25.2358333 43.283761,24.9545833 C43.1020997,24.6179167 42.8667656,24.3120833 42.5860163,24.0554167 C42.3424249,23.8295833 42.0616755,23.6408333 41.7602828,23.49875 C41.4960481,23.3745833 41.2152987,23.28625 40.9304206,23.23625 C40.7652739,23.2075 40.5959986,23.1920833 40.4308519,23.1883333 C40.4019512,23.1879167 40.3730505,23.1879167 40.3441499,23.1879167 Z" id="Fill-8"></path>
                    </g>
                </g>
            </g>
        </g>
    </g>
</svg>