<?xml version="1.0" encoding="UTF-8"?>
<svg width="80px" height="80px" viewBox="0 0 80 80" version="1.1" xmlns="http://www.w3.org/2000/svg" xmlns:xlink="http://www.w3.org/1999/xlink">
    <!-- Generator: Sketch 43.1 (39012) - http://www.bohemiancoding.com/sketch -->
    <title>trojan</title>
    <desc>Created with Sketch.</desc>
    <defs></defs>
    <g id="Page-1" stroke="none" stroke-width="1" fill="none" fill-rule="evenodd">
        <g id="系统检测" transform="translate(-313.000000, -259.000000)" fill="#03A9F4">
            <g id="table" transform="translate(264.000000, 227.000000)">
                <g id="threats" transform="translate(49.000000, 32.000000)">
                    <g id="trojan">
                        <path d="M39.6992837,0 C39.9762347,0.000833333333 40.2531857,0.00375 40.5300954,0.01 C41.0801578,0.0225 41.629766,0.04625 42.1788788,0.08125 C43.6771721,0.177083333 45.1696854,0.35875 46.6473355,0.625416667 C48.1993015,0.905416667 49.73434,1.27916667 51.2413036,1.745 C52.7664334,2.21666667 54.2630753,2.78166667 55.7204949,3.43625 C57.727853,4.33791667 59.6600693,5.40916667 61.4915461,6.63416667 C63.3610067,7.88458333 65.1251863,9.295 66.7597257,10.8445833 C68.407064,12.40625 69.9226978,14.1091667 71.2847451,15.9295833 C72.6405995,17.7420833 73.844106,19.6708333 74.8766858,21.68875 C75.7441188,23.38375 76.4905818,25.1416667 77.1078176,26.9445833 C77.7143188,28.7158333 78.1961343,30.5308333 78.5491354,32.3708333 C79.030538,34.8829167 79.2704136,37.44125 79.2704136,40 C79.2704136,41.8277083 79.148205,43.655375 78.9025493,45.46625 C78.6325345,47.4589583 78.2122361,49.430875 77.6466087,51.3594583 C77.0566221,53.3704583 76.3085076,55.3339167 75.4113482,57.2258333 C74.3961089,59.368 73.190538,61.4179583 71.814866,63.3447083 C70.423918,65.2933333 68.8595659,67.115625 67.1469947,68.78325 C65.3621718,70.5215417 63.4163309,72.0915 61.3420884,73.4651667 C59.3029396,74.8157917 57.1403436,75.9762917 54.889807,76.9253333 C52.4130194,77.969875 49.830538,78.7574167 47.1947967,79.2719583 C44.7266794,79.7538333 42.2131467,79.9959167 39.6992837,79.9999583 C37.1838105,80.0039583 34.6682135,79.7697917 32.1969171,79.2954583 C29.5588225,78.7890833 26.972873,78.009375 24.4919154,76.9721667 C22.2380759,76.029875 20.071599,74.8757917 18.0280738,73.5310833 C15.9499504,72.1636667 13.9993615,70.5995 12.2090062,68.8664583 C10.4916457,67.2040417 8.92188505,65.3865417 7.52515688,63.4421667 C6.14428279,61.5199167 4.93272534,59.4739167 3.91096274,57.3352083 C3.00868378,55.4465833 2.25454139,53.4860417 1.65856826,51.4774583 C1.08711941,49.5515417 0.661247367,47.5818333 0.384833086,45.590875 C0.127782255,43.7392917 0,41.869625 0,40 C0,37.4829167 0.23211368,34.96625 0.698116366,32.4933333 C1.04525472,30.65125 1.52170293,28.8345833 2.12312591,27.0604167 C2.73515956,25.255 3.47646179,23.4945833 4.33877526,21.79625 C5.36532711,19.775 6.56325995,17.8425 7.91411863,16.0254167 C9.27075744,14.20125 10.7814781,12.4933333 12.4243162,10.9266667 C14.0541489,9.3725 15.8139108,7.95708333 17.6793253,6.70083333 C19.5068799,5.47083333 21.4356281,4.39375 23.4399723,3.48583333 C24.8947908,2.82708333 26.3892858,2.2575 27.9125164,1.78125 C29.4177046,1.31125 30.9508853,0.932083333 32.5010347,0.6475 C33.9770333,0.37625 35.468308,0.19 36.9652389,0.0895833333 C37.5138562,0.0525 38.0632167,0.0270833333 38.6128662,0.0129166667 C38.8895695,0.00583333333 39.1662727,0.00208333333 39.4430586,0.000416666667 C39.5284807,0 39.6138616,0 39.6992837,0 Z M39.5741025,2 C39.2906282,2.00083333 39.0071952,2.00416667 38.7237622,2.01083333 C38.1611074,2.02458333 37.5987003,2.05041667 37.0371603,2.08916667 C35.6743285,2.18291667 34.3164923,2.35125 32.9718267,2.59416667 C31.4982227,2.86 30.0405554,3.21541667 28.6091464,3.6575 C27.1608512,4.105 25.7395987,4.64166667 24.3558759,5.26333333 C22.5872373,6.05791667 20.8797031,6.99083333 19.2532971,8.05083333 C17.3676109,9.27958333 15.5907563,10.6779167 13.9502303,12.2241667 C12.3940943,13.6908333 10.9604971,15.2891667 9.669917,16.9983333 C8.35109678,18.7445833 7.18189947,20.6058333 6.18073892,22.5554167 C5.34596366,24.1808333 4.62823613,25.8675 4.0356485,27.5979167 C3.47241569,29.2425 3.02239095,30.9266667 2.68957907,32.6341667 C2.45750668,33.825 2.28236861,35.0270833 2.16449516,36.2345833 C2.04241046,37.4858333 1.98176034,38.7429167 1.98176034,40 C1.98176034,41.737 2.09773461,43.474 2.33116946,45.195 C2.5826053,47.0488333 2.97045232,48.8837083 3.49124242,50.6795417 C4.05108971,52.61 4.76460601,54.494875 5.62200636,56.3107083 C6.59183033,58.3645833 7.74554514,60.3296667 9.06329191,62.1756667 C10.3741851,64.0120417 11.8471285,65.7304167 13.4587125,67.3043333 C15.1663293,68.9720833 17.0292253,70.4771667 19.0157336,71.7932083 C20.9365548,73.0657917 22.9731026,74.1602083 25.0917695,75.0576667 C27.4958925,76.0760833 30.0057094,76.8390833 32.5671347,77.3306667 C33.6716358,77.542625 34.7855502,77.7043333 35.9043778,77.8155833 C37.1035905,77.9348333 38.3084595,77.9959167 39.5134524,77.9997917 C42.0413941,78.008 44.56979,77.7629167 47.0486419,77.2626667 C48.3995419,76.9900833 49.7351658,76.64225 51.0476691,76.2207917 C52.0348335,75.9037083 53.009199,75.5451667 53.9670498,75.1465 C56.1618494,74.2330417 58.269947,73.108 60.2545974,71.7932083 C62.1781435,70.5189583 63.986087,69.0674583 65.6487013,67.4625417 C67.2968653,65.8719583 68.8021774,64.1315 70.1406914,62.2682917 C71.4527819,60.4420417 72.6034415,58.498375 73.5745041,56.4665417 C74.4060177,54.7256667 75.1054139,52.920375 75.6631969,51.0715 C76.2255214,49.20825 76.6437554,47.301 76.914596,45.3725417 C77.1590131,43.6340417 77.2828731,41.8787083 77.2886532,40.122875 C77.2960848,37.69 77.075614,35.2570833 76.6255893,32.8670833 C76.3031403,31.1558333 75.8630244,29.4675 75.3093701,27.8183333 C74.727228,26.0833333 74.0195744,24.39125 73.1938409,22.76 C72.2558077,20.9054167 71.1658395,19.1295833 69.9400382,17.455 C68.6188646,15.65 67.139976,13.9633333 65.5260799,12.4195833 C64.0343924,10.9929167 62.427515,9.68833333 60.7265041,8.52458333 C58.9367268,7.29958333 57.0424942,6.23083333 55.0710555,5.33416667 C53.6379951,4.6825 52.1640608,4.12208333 50.6612259,3.6575 C49.3421166,3.25 48.0011255,2.91625 46.645684,2.65833333 C45.2270739,2.38833333 43.7927748,2.20125 42.3531085,2.0975 C41.7920226,2.05708333 41.2300697,2.02916667 40.6677865,2.01416667 C40.4048317,2.00666667 40.1418356,2.0025 39.8788394,2.00083333 C39.7772742,2 39.675709,2 39.5741025,2 Z" id="Fill-44"></path>
                        <path d="M34.6213794,16.2414028 C35.0062125,16.4118195 35.0076576,16.4126528 35.3482313,16.6609862 L35.3765953,16.6868195 C35.4239511,16.7305695 35.470894,16.7747362 35.5167635,16.8205695 C35.6103604,16.9130695 35.7003654,17.0097362 35.7867371,17.1097362 C36.3220601,17.7280695 36.7152331,18.4634862 36.9873536,19.2347362 C37.0293008,19.3534862 37.0683993,19.4734862 37.1047729,19.5943195 C37.1486606,19.7397362 37.1886261,19.8864028 37.2248345,20.0339028 C37.2679378,20.2097362 37.3057151,20.3864028 37.3385793,20.5643195 C37.3772649,20.7739028 37.4090556,20.9843195 37.4346121,21.1959862 C37.4660725,21.4564028 37.4879545,21.7180695 37.5012901,21.9801528 C37.5175157,22.2993195 37.5205297,22.6193195 37.5134284,22.9389028 L37.5130155,22.9555695 C37.5801476,22.9834862 37.6470733,23.0118195 37.713999,23.0405695 C37.7782824,23.0680695 37.8425244,23.0955695 37.9066839,23.1234862 C38.1321504,23.2214028 38.3566261,23.3222362 38.5798631,23.4251528 C39.3236013,23.7693195 40.0548708,24.1405695 40.7763142,24.5297362 C41.5432967,24.9434862 42.2988428,25.3776528 43.0473702,25.8247362 C43.9622829,26.3705695 44.8660482,26.9351528 45.7648591,27.5072362 C46.6929835,28.0972362 47.6157407,28.6951528 48.5409751,29.2897362 C48.7242879,29.4072362 48.9076007,29.5251528 49.0909135,29.6422362 C50.1082172,30.2926528 51.1292366,30.9372362 52.1651193,31.5568195 C52.9186011,32.0072362 53.6799273,32.4447362 54.4536396,32.8584862 C55.1654219,33.2393195 55.8883515,33.6005695 56.6257315,33.9293195 C57.2409029,34.2034862 57.8668089,34.4555695 58.5042752,34.6726528 C58.7263975,34.7480695 58.9501712,34.8193195 59.1751836,34.8859862 L59.2139931,34.8972362 L59.2556926,34.9093195 L59.6330528,35.0630695 C59.7457654,35.1393195 59.8667354,35.2039028 59.9711907,35.2914028 C60.1813398,35.4668195 60.3530924,35.6843195 60.4757138,35.9301528 C60.537231,36.0522362 60.5727375,36.1859862 60.6210429,36.3139028 C60.6280617,36.3397362 60.6346675,36.3655695 60.6412734,36.3918195 C60.6767799,36.5326528 60.7077449,36.6743195 60.7337555,36.8176528 C60.7841253,37.0984862 60.8150903,37.3826528 60.8266506,37.6680695 C60.8386237,37.9601528 60.8299535,38.2530695 60.8022914,38.5439028 C60.7828867,38.7476528 60.753986,38.9504028 60.7160023,39.1514862 C60.6887531,39.2970695 60.6569623,39.4417778 60.6206301,39.5853612 C60.5876007,39.7146112 60.5512684,39.8429445 60.5116332,39.9702362 C60.2259295,40.8884028 59.7680602,41.7464028 59.2069743,42.5225695 C59.0955003,42.6771112 58.9794848,42.8285695 58.8597534,42.9768612 C58.7090571,43.1635695 58.5525806,43.3452778 58.3903239,43.5219028 C58.1785233,43.7523195 57.9580525,43.9740695 57.7289114,44.1869028 C57.4308216,44.4641945 57.1182815,44.7256945 56.794594,44.9718612 L56.7677577,44.9921112 C56.5088902,45.1542778 56.4502631,45.2146528 56.1550634,45.3049028 C56.0452409,45.3385278 55.9304639,45.3535278 55.8181642,45.3764862 C55.8066039,45.3787778 55.7950436,45.3793195 55.7838962,45.3806528 C55.769033,45.3824445 55.7541698,45.3841945 55.7397195,45.3859028 C55.6959556,45.3909862 55.6526046,45.3959862 55.6088407,45.4008612 C55.3962144,45.4245278 55.183588,45.4460278 54.9705488,45.4660695 C54.3351468,45.5259445 53.6980935,45.5729445 53.0606272,45.6089862 C52.203103,45.6574862 51.3443402,45.6859445 50.4851645,45.6916112 C49.6561281,45.6970278 48.8270917,45.6812362 47.9997068,45.6383612 C47.2978333,45.6019862 46.5967856,45.5461528 45.8986279,45.4647362 C45.1245028,45.3744028 44.3536806,45.2521945 43.5919415,45.0860695 L43.5663437,45.0804445 C43.9437039,46.2207362 44.3351016,47.3563195 44.7405367,48.4867362 C45.0613342,49.3810695 45.3908018,50.2722778 45.7318298,51.1589862 C46.0113406,51.8860695 46.2978701,52.6105695 46.5996757,53.3286528 C46.7210585,53.6181945 46.8453314,53.9067362 46.9741458,54.1930278 C47.0777753,54.4224862 47.1838821,54.6510278 47.2990719,54.8746945 L47.3098064,54.8951112 L47.3155866,54.9066528 L47.4410981,55.0226528 C47.654963,55.3276945 47.7379492,55.3946112 47.8481847,55.7579862 C47.930758,56.0295278 47.9551172,56.3156945 47.9196106,56.5974028 C47.8836912,56.8791112 47.7891447,57.1499862 47.6417513,57.3919028 C47.5686739,57.5121945 47.4708245,57.6154445 47.3853611,57.7272362 L47.3366428,57.7784862 C47.3015491,57.8108612 47.267694,57.8445695 47.2313618,57.8756112 C47.15622,57.9396528 47.0707566,58.0026528 46.9873575,58.0545695 C46.8478086,58.1410695 46.6987637,58.2107778 46.5431129,58.2610278 C46.4423734,58.2934862 46.3317251,58.3193195 46.2272699,58.3351112 C46.1290076,58.3499862 46.0204236,58.3575278 45.9209227,58.3571528 C45.8713787,58.3569445 45.8222476,58.3539445 45.7731164,58.3509028 C45.7541246,58.3496945 45.7351327,58.3465695 45.7165537,58.3444028 L26.3716001,58.3444028 C26.2318035,58.3292778 26.0896535,58.3291112 25.9522514,58.2991112 C25.8148906,58.2691112 25.6799245,58.2239862 25.5519358,58.1653195 C25.2945134,58.0473195 25.0650834,57.8750695 24.8790869,57.6601528 C24.7866047,57.5533195 24.7176973,57.4278195 24.6370231,57.3116528 C24.6195176,57.2797362 24.6022597,57.2476945 24.5851258,57.2155695 C24.5320311,57.1152362 24.4807118,57.0139862 24.4315393,56.9116112 C24.1675111,56.3620278 23.9592198,55.7861112 23.7867241,55.2011112 C23.6732683,54.8164028 23.5753776,54.4271112 23.4895426,54.0351945 C23.3985055,53.6196528 23.3210104,53.2011528 23.254126,52.7809862 C23.1718416,52.2637362 23.1056591,51.7439445 23.0521929,51.2229028 C22.9927401,50.6436112 22.9489762,50.0627362 22.9179699,49.4812362 C22.8492689,48.1940695 22.8420024,46.9037778 22.8799449,45.6154445 C22.9273007,44.0062778 23.045587,42.3992778 23.2236977,40.7995695 C23.4181579,39.0529445 23.6843331,37.3143195 24.0219755,35.5901528 C24.3464062,33.9330695 24.7369369,32.2889028 25.2025267,30.6668195 C25.6353349,29.1584862 26.1330457,27.6689028 26.710894,26.2105695 C27.1034064,25.2201528 27.5331594,24.2443195 28.007502,23.2909862 C28.4531504,22.3951528 28.9382275,21.5189028 29.4710733,20.6730695 C29.8730404,20.0347362 30.3022566,19.4139028 30.7626443,18.8172362 C31.160524,18.3014028 31.5818132,17.8043195 32.028824,17.3309862 C32.2342252,17.1139028 32.4452001,16.9018195 32.6614185,16.6955695 L32.9962121,16.4380695 C33.3324921,16.2789028 33.4126295,16.2080695 33.7877602,16.1626528 C33.9271027,16.1455695 34.068427,16.1589028 34.2087604,16.1572362 C34.3462863,16.1851528 34.4838535,16.2134862 34.6213794,16.2414028 Z M33.9975378,18.1730695 C33.841309,18.3230695 33.6880942,18.4759862 33.5382235,18.6322362 C33.2483498,18.9347362 32.9705731,19.2489028 32.7039024,19.5726528 C32.5674087,19.7380695 32.4335986,19.9059862 32.3029676,20.0764028 C32.1623864,20.2597362 32.0246954,20.4451528 31.8902247,20.6330695 C31.5991536,21.0397362 31.3224503,21.4568195 31.0585046,21.8818195 C30.5799508,22.6530695 30.1433029,23.4501528 29.7410056,24.2639028 C29.2936232,25.1693195 28.8886009,26.0955695 28.5184659,27.0355695 C27.9786839,28.4064028 27.51264,29.8064028 27.1060488,31.2230695 C26.6563956,32.7897362 26.2794483,34.3776528 25.9661237,35.9776528 C25.6449134,37.6184862 25.3904636,39.2724445 25.2030221,40.9340278 C25.0284621,42.4811945 24.9116208,44.0354862 24.8633154,45.5919862 C24.8250014,46.8274445 24.8295016,48.0649028 24.8929592,49.2994862 C24.9212406,49.8498612 24.9614125,50.3996945 25.0164064,50.9480278 C25.0672716,51.4549862 25.1307705,51.9607362 25.2108253,52.4638612 C25.2746545,52.8648612 25.3489705,53.2641945 25.4371589,53.6604445 C25.5135805,54.0036528 25.6003651,54.3446112 25.7012284,54.6813612 C25.7784758,54.9393195 25.8640218,55.1948195 25.9604675,55.4461112 C26.0785886,55.7539445 26.2133483,56.0553612 26.3716001,56.3444028 L45.8973893,56.3444028 C45.9006923,56.3462362 45.9035823,56.3479862 45.9068853,56.3496112 C45.9097753,56.3509862 45.9126654,56.3522362 45.9155555,56.3533195 C45.9258771,56.3563612 45.9361988,56.3569862 45.9456947,56.3511945 C45.9485848,56.3493195 45.951062,56.3469445 45.9535392,56.3444028 L45.8973893,56.3444028 C45.8841776,56.3363195 45.8726173,56.3254445 45.8618828,56.3145278 C45.8433038,56.2961112 45.8267891,56.2758612 45.8111002,56.2551528 C45.7644462,56.1940278 45.7239853,56.1281112 45.6851758,56.0618612 C45.6248973,55.9586112 45.5687474,55.8526945 45.514249,55.7460278 C45.4498418,55.6193612 45.3879118,55.4913195 45.3276332,55.3626528 C45.1484491,54.9823195 44.9808252,54.5965695 44.8173299,54.2093195 C44.5985106,53.6916112 44.3879485,53.1703612 44.181928,52.6473612 C43.8825997,51.8876945 43.5931801,51.1241112 43.3103664,50.3579862 C42.9730542,49.4444028 42.6456509,48.5271112 42.3273307,47.6066945 C42.0469941,46.7972362 41.7740892,45.9853195 41.508203,45.1708612 C41.2410783,44.3514028 40.9814677,43.5294028 40.731353,42.7044862 C40.6330494,42.3801945 40.5364799,42.0554028 40.4410664,41.7302362 C40.4668293,41.7479028 40.4926334,41.7653612 40.5186028,41.7827362 C40.6243792,41.8527362 40.7319723,41.9199028 40.8415058,41.9837362 C41.1378203,42.1565278 41.4466859,42.3069445 41.7621161,42.4401945 C42.0870422,42.5772778 42.4189871,42.6962362 42.7550606,42.8012778 C43.2538036,42.9571528 43.7620426,43.0826528 44.2735845,43.1867778 C44.8346704,43.3009445 45.4007106,43.3893612 45.9688153,43.4591112 C46.8069348,43.5620695 47.6500086,43.6245695 48.4934954,43.6591945 C49.4385473,43.6979445 50.3852508,43.7014445 51.3311285,43.6781528 C52.1647064,43.6575695 52.9978715,43.6161528 53.829798,43.5548195 C54.1489439,43.5312778 54.4680899,43.5047362 54.7864102,43.4747362 C55.041149,43.4507778 55.2954749,43.4248195 55.5489751,43.3947362 L55.5799401,43.3909445 C55.8763784,43.1671112 56.1612564,42.9279862 56.4316841,42.6732362 C56.6438976,42.4735278 56.8478538,42.2645695 57.0414883,42.0465278 C57.1930104,41.8759862 57.3383395,41.6998612 57.4766498,41.5181945 C57.5827566,41.3790695 57.6847347,41.2367362 57.7817584,41.0911528 C57.8610288,40.9724445 57.9369963,40.8515695 58.0096608,40.7286112 C58.0608563,40.6415695 58.1104003,40.5534445 58.1582928,40.4643195 C58.4947792,39.8355695 58.7391963,39.1497778 58.8205311,38.4376528 C58.8337428,38.3234862 58.842413,38.2089028 58.8469545,38.0943195 C58.8535604,37.9218195 58.8502575,37.7493195 58.83622,37.5772362 C58.8230083,37.4134862 58.7998877,37.2501528 58.7672713,37.0889028 C58.7499309,37.0026528 58.7292875,36.9164028 58.7065799,36.8314028 C58.6479528,36.8143195 58.5897386,36.7968195 58.5311115,36.7793195 C58.2800885,36.7034862 58.0303041,36.6230695 57.7825841,36.5372362 C56.9634565,36.2543195 56.1620822,35.9201528 55.3763968,35.5543195 C54.4057471,35.1026528 53.457805,34.6018195 52.5251391,34.0751528 C51.4083345,33.4443195 50.3129991,32.7751528 49.2271596,32.0918195 C48.0843444,31.3730695 46.9514381,30.6380695 45.8156417,29.9076528 C45.6310903,29.7889028 45.4465389,29.6705695 45.2619874,29.5522362 C44.2558312,28.9089028 43.2459591,28.2709862 42.2224625,27.6559862 C41.5276078,27.2384862 40.8262711,26.8318195 40.1156448,26.4422362 C39.4873855,26.0980695 38.8516533,25.7672362 38.2063013,25.4568195 C37.5421226,25.1372362 36.8675809,24.8389028 36.1807771,24.5722362 C35.9441632,24.4805695 35.7060629,24.3926528 35.4666415,24.3084862 L35.4221345,24.2930695 C35.4289881,24.2393195 35.4356352,24.1855695 35.4420346,24.1322362 C35.4482276,24.0793195 35.4541729,24.0264028 35.4599531,23.9734862 C35.4968221,23.6255695 35.5220069,23.2764028 35.531379,22.9264028 C35.5391409,22.6343195 35.5362096,22.3422362 35.520438,22.0505695 C35.5072676,21.8068195 35.4851379,21.5634862 35.4525628,21.3218195 C35.3972386,20.9105695 35.3118578,20.5026528 35.1875436,20.1072362 C35.092832,19.8055695 34.9754127,19.5109862 34.8306616,19.2301528 C34.6589503,18.8972362 34.4482231,18.5818195 34.1900988,18.3105695 C34.1365913,18.2543195 34.0808543,18.2005695 34.0233833,18.1484862 C34.0147543,18.1564028 34.0061667,18.1647362 33.9975378,18.1730695 Z" id="Fill-45"></path>
                    </g>
                </g>
            </g>
        </g>
    </g>
</svg>