<?xml version="1.0" encoding="UTF-8"?>
<svg width="72px" height="80px" viewBox="0 0 72 80" version="1.1" xmlns="http://www.w3.org/2000/svg" xmlns:xlink="http://www.w3.org/1999/xlink">
    <!-- Generator: Sketch 43.2 (39069) - http://www.bohemiancoding.com/sketch -->
    <title>Page 1 Copy</title>
    <desc>Created with Sketch.</desc>
    <defs></defs>
    <g id="system_defense" stroke="none" stroke-width="1" fill="none" fill-rule="evenodd">
        <g id="系统检测_扫描前-copy" transform="translate(-388.000000, -299.000000)" fill="#A1A6AD">
            <g id="Group-6" transform="translate(384.000000, 299.000000)">
                <g id="Group-5">
                    <path d="M40.0000164,0 C47.4959131,7.84936805 59.4756976,9.80471003 71.7001421,6.87469707 C89.293979,52.5442324 47.7113132,80.0003538 40.0000164,80.0003538 C32.2886543,80.0003538 -9.29381556,52.5442324 8.29976008,6.87469707 C20.5243352,9.80471003 32.5040544,7.84936805 40.0000164,0 Z M44.2963271,33.9830836 L44.2963271,20.8820257 C44.2963271,20.3980236 43.9113109,20.0050218 43.437078,20.0049551 L36.5629547,20.0049551 C36.0886566,20.0050218 35.7036404,20.3980236 35.7036404,20.8820257 L35.7036404,33.9830836 L22.8688521,33.9830836 C22.3945539,33.9831503 22.0095377,34.376152 22.0095377,34.8601542 L22.0095377,41.8768519 C22.0095377,42.3609874 22.3945539,42.7539891 22.8688521,42.7539891 L35.7036404,42.7539891 L35.7036404,55.855047 C35.7036404,56.3391158 36.0887219,56.7321176 36.5629547,56.7321176 L43.437078,56.7321176 C43.9113762,56.7320509 44.2963271,56.3390492 44.2963271,55.855047 L44.2963271,42.7539891 L57.1311807,42.7539891 C57.6054789,42.7538558 57.9904298,42.3609207 57.9904298,41.8768519 L57.9904298,34.8601542 C57.9904298,34.3762187 57.6055442,33.983217 57.1311807,33.9830836 L44.2963271,33.9830836 Z" id="Page-1-Copy"></path>
                </g>
            </g>
        </g>
    </g>
</svg>