<?xml version="1.0" standalone="no"?><!DOCTYPE svg PUBLIC "-//W3C//DTD SVG 1.1//EN" "http://www.w3.org/Graphics/SVG/1.1/DTD/svg11.dtd"><svg t="1497339982827" class="icon" style="" viewBox="0 0 1024 1024" version="1.1" xmlns="http://www.w3.org/2000/svg" p-id="3955" xmlns:xlink="http://www.w3.org/1999/xlink" width="32" height="32"><defs><style type="text/css"></style></defs><path d="M511.210667 89.813333C278.848 89.813333 89.813333 278.613333 89.813333 510.613333c0 232.021333 189.034667 421.696 421.397334 421.696 232.32 0 421.376-189.674667 421.376-421.696S743.552 89.813333 511.210667 89.813333m0 889.429334C252.437333 979.242667 42.666667 769.621333 42.666667 510.976 42.666667 252.309333 252.416 42.666667 511.210667 42.666667s468.586667 209.685333 468.586666 468.288c0 258.666667-209.792 468.288-468.586666 468.288" p-id="3956" fill="#ffffff"></path><path d="M563.477333 744.170667c-5.973333 0-11.946667-2.282667-16.512-6.848a23.338667 23.338667 0 0 1 0-33.109334l137.813334-151.722666h-384A23.466667 23.466667 0 0 1 277.333333 529.088c0-12.928 10.517333-23.402667 23.445334-23.402667H683.306667l-139.285334-149.290666a23.381333 23.381333 0 1 1 33.130667-33.109334l190.997333 206.293334-188.096 207.744c-4.565333 4.565333-10.581333 6.826667-16.576 6.826666" p-id="3957" fill="#ffffff"></path></svg>