<?xml version="1.0" encoding="UTF-8"?>
<svg width="20px" height="20px" viewBox="0 0 20 20" version="1.1" xmlns="http://www.w3.org/2000/svg" xmlns:xlink="http://www.w3.org/1999/xlink">
    <!-- Generator: Sketch 48.1 (47250) - http://www.bohemiancoding.com/sketch -->
    <title>icon/sidebar/dbStatus</title>
    <desc>Created with Sketch.</desc>
    <defs></defs>
    <g id="icons" stroke="none" stroke-width="1" fill="none" fill-rule="evenodd">
        <g id="icon/sidebar/dbStatus" fill="#A1A6AD">
            <path d="M2,14 L18,14 C18.5522847,14 19,14.4477153 19,15 L19,17 C19,17.5522847 18.5522847,18 18,18 L2,18 C1.44771525,18 1,17.5522847 1,17 L1,15 C1,14.4477153 1.44771525,14 2,14 Z M3,17 C3.55228475,17 4,16.5522847 4,16 C4,15.4477153 3.55228475,15 3,15 C2.44771525,15 2,15.4477153 2,16 C2,16.5522847 2.44771525,17 3,17 Z" id="Combined-Shape"></path>
            <path d="M2,8 L18,8 C18.5522847,8 19,8.44771525 19,9 L19,11 C19,11.5522847 18.5522847,12 18,12 L2,12 C1.44771525,12 1,11.5522847 1,11 L1,9 C1,8.44771525 1.44771525,8 2,8 Z M3,11 C3.55228475,11 4,10.5522847 4,10 C4,9.44771525 3.55228475,9 3,9 C2.44771525,9 2,9.44771525 2,10 C2,10.5522847 2.44771525,11 3,11 Z" id="Combined-Shape-Copy"></path>
            <path d="M2,2 L18,2 C18.5522847,2 19,2.44771525 19,3 L19,5 C19,5.55228475 18.5522847,6 18,6 L2,6 C1.44771525,6 1,5.55228475 1,5 L1,3 C1,2.44771525 1.44771525,2 2,2 Z M3,5 C3.55228475,5 4,4.55228475 4,4 C4,3.44771525 3.55228475,3 3,3 C2.44771525,3 2,3.44771525 2,4 C2,4.55228475 2.44771525,5 3,5 Z" id="Combined-Shape-Copy-2"></path>
        </g>
    </g>
</svg>