<?xml version="1.0" encoding="UTF-8"?>
<svg width="20px" height="20px" viewBox="0 0 20 20" version="1.1" xmlns="http://www.w3.org/2000/svg" xmlns:xlink="http://www.w3.org/1999/xlink">
    <!-- Generator: Sketch 48.1 (47250) - http://www.bohemiancoding.com/sketch -->
    <title>icon/sidebar/defence</title>
    <desc>Created with Sketch.</desc>
    <defs></defs>
    <g id="icons" stroke="none" stroke-width="1" fill="none" fill-rule="evenodd">
        <g id="icon/sidebar/defence">
            <path d="M9.99996227,1.34953767 C8.11997542,2.83745056 5.51856499,3.34462948 2.72449331,2.87172436 C1.27093481,7.28567381 2.05199638,11.2286145 4.47335229,14.5519663 C5.45546155,15.8999278 6.66577789,17.0656743 7.90239053,17.9292257 C8.85696466,18.5958239 9.74267122,19 9.99996429,19 C10.2572535,19 11.1429613,18.595823 12.0975357,17.9292254 C13.334151,17.0656731 14.544469,15.8999267 15.5265786,14.551966 C17.9479377,11.2286127 18.7289906,7.28567357 17.2754074,2.87172488 C14.4813549,3.34462987 11.8799393,2.83744892 9.99996227,1.34953767 Z" id="defence_icon" stroke="#A1A6AD" stroke-width="2"></path>
            <path d="M11.0740372,8.49573333 L11.0740372,5.22048333 C11.0740372,5.09948333 10.9777836,5.00123333 10.8592259,5.00121667 L9.14070268,5.00121667 C9.02212866,5.00123333 8.92587503,5.09948333 8.92587503,5.22048333 L8.92587503,8.49573333 L5.71719216,8.49573333 C5.59861814,8.49575 5.50236451,8.594 5.50236451,8.715 L5.50236451,10.4691667 C5.50236451,10.5902 5.59861814,10.68845 5.71719216,10.68845 L8.92587503,10.68845 L8.92587503,13.9637 C8.92587503,14.0847167 9.02214499,14.1829667 9.14070268,14.1829667 L10.8592259,14.1829667 C10.9777999,14.18295 11.0740372,14.0847 11.0740372,13.9637 L11.0740372,10.68845 L14.2827364,10.68845 C14.4013104,10.6884167 14.4975477,10.5901833 14.4975477,10.4691667 L14.4975477,8.715 C14.4975477,8.59401667 14.4013268,8.49576667 14.2827364,8.49573333 L11.0740372,8.49573333 Z" id="Path" fill="#A1A6AD"></path>
        </g>
    </g>
</svg>