<?xml version="1.0" encoding="UTF-8"?>
<svg width="20px" height="20px" viewBox="0 0 20 20" version="1.1" xmlns="http://www.w3.org/2000/svg" xmlns:xlink="http://www.w3.org/1999/xlink">
    <!-- Generator: Sketch 48.1 (47250) - http://www.bohemiancoding.com/sketch -->
    <title>icon/sidebar/honeypot</title>
    <desc>Created with Sketch.</desc>
    <defs></defs>
    <g id="icons" stroke="none" stroke-width="1" fill="none" fill-rule="evenodd">
        <g id="icon/sidebar/honeypot" fill="#A1A6AD">
            <rect id="Rectangle-8-Copy-9" x="3" y="2" width="14" height="2" rx="1"></rect>
            <path d="M8,7 C8,6.44771525 8.44771525,6 9,6 C9.55228475,6 10,6.44771525 10,7 L10,7.5 C10,8.32842712 10.6715729,9 11.5,9 C12.3284271,9 13,8.32842712 13,7.5 L13,5 L15.7142857,5 C17.2380952,6.93181815 18,8.74999997 18,10.4545455 C18,12.5837747 17.6190476,14.7655929 16.8571429,17 L10,17 L3.14285714,17 C2.38095238,14.7655929 2,12.5837747 2,10.4545455 C2,8.74999997 2.76190476,6.93181815 4.28571429,5 L5,5 L5,10.5 C5,11.3284271 5.67157288,12 6.5,12 C7.32842712,12 8,11.3284271 8,10.5 L8,7 Z" id="Combined-Shape"></path>
        </g>
    </g>
</svg>