<?xml version="1.0" encoding="UTF-8"?>
<svg width="20px" height="20px" viewBox="0 0 20 20" version="1.1" xmlns="http://www.w3.org/2000/svg" xmlns:xlink="http://www.w3.org/1999/xlink">
    <!-- Generator: Sketch 48.1 (47250) - http://www.bohemiancoding.com/sketch -->
    <title>icon/sidebar/plugin</title>
    <desc>Created with Sketch.</desc>
    <defs></defs>
    <g id="icons" stroke="none" stroke-width="1" fill="none" fill-rule="evenodd">
        <g id="icon/sidebar/plugin" fill="#A1A6AD">
            <path d="M1.33853333,6.4553 L4.38073333,6.4553 C5.3955,6.4553 5.84908333,5.86391667 5.01508333,4.95636667 L5.01468333,4.95593333 C4.61806667,4.5391 4.38073333,4.01023333 4.38073333,3.43506667 C4.38073333,2.09116667 5.67643333,1 7.27236667,1 C8.86828333,1 10.1639833,2.09116667 10.1639833,3.43506667 C10.1639833,4.01023333 9.92666667,4.5391 9.53003333,4.95593333 L9.52963333,4.95636667 C8.69563333,5.86391667 9.14923333,6.4553 10.1639833,6.4553 L13.2061833,6.4553 C13.9449833,6.45533333 14.5447167,7.0551 14.5447167,7.79385 L14.5447167,10.2563667 C14.5447333,11.2711333 15.1361333,11.7247 16.04365,10.8907167 L16.0440833,10.8903167 C16.4609333,10.4936833 16.9898333,10.2563667 17.565,10.2563667 C18.9088333,10.2563667 20,11.55205 20,13.1479833 C20,14.7439167 18.9088333,16.0396167 17.565,16.0396167 C16.9898333,16.0396167 16.4609333,15.8022833 16.0440833,15.4056667 L16.04365,15.4052667 C15.1361333,14.5712667 14.5447333,15.02485 14.5447167,16.0396167 L14.5447167,18.5021333 C14.5447167,19.2408833 13.9449667,19.84065 13.2061833,19.8406667 L7.27236667,19.8406667 L10.1639833,19.8406667 C9.14923333,19.8406667 8.69563333,19.2492667 9.52963333,18.3417333 L9.53003333,18.3413 C9.92666667,17.9244667 10.1639833,17.3956 10.1639833,16.8204333 C10.1639833,15.4765 8.86828333,14.3853833 7.27236667,14.3853833 C5.67643333,14.3853833 4.38073333,15.4765 4.38073333,16.8204333 C4.38073333,17.3956 4.61806667,17.9244667 5.01468333,18.3413 L5.01508333,18.3417333 C5.84908333,19.2492667 5.3955,19.8406667 4.38073333,19.8406667 L5.82655,19.8406667 L1.33853333,19.8406667 C0.599783333,19.8406667 0,19.2408833 0,18.5021333 L0,7.79385 C0,7.0551 0.599766667,6.45531667 1.33853333,6.4553 Z" id="Page-1"></path>
        </g>
    </g>
</svg>